<svg width="372" height="328" viewBox="0 0 372 328" fill="none" xmlns="http://www.w3.org/2000/svg">
<path d="M276.959 0C262.42 0 250.875 11.5452 250.875 26.0836C250.875 40.622 262.42 52.1671 276.959 52.1671C291.497 52.1671 303.042 40.622 303.042 26.0836C303.042 11.5452 291.497 0 276.959 0ZM276.959 22.2352C282.517 22.2352 287.221 26.5112 287.221 32.4976C287.221 36.7736 284.655 40.1944 281.235 41.9047V44.0427C281.235 46.1807 279.097 48.3187 276.959 48.3187C274.821 48.3187 272.683 46.1807 272.683 44.0427V42.7599H270.972C268.834 42.7599 266.696 40.622 266.696 38.484C266.696 36.346 268.834 34.208 270.972 34.208H275.248C275.676 33.7804 276.531 33.7804 276.959 33.7804C277.386 33.7804 277.386 33.7804 277.814 33.7804C278.241 33.3528 278.669 32.9252 278.669 32.4976C278.669 31.2148 277.814 30.7872 276.959 30.7872C271.4 30.7872 266.696 26.5112 266.696 20.5248C266.696 16.2488 269.262 12.828 272.683 11.1176V8.55199C272.683 6.41399 274.821 4.27599 276.959 4.27599C279.097 4.27599 281.235 6.41399 281.235 8.55199V10.2624H282.945C285.083 10.2624 287.221 11.9728 287.221 14.5384C287.221 16.6764 285.083 18.8144 282.945 18.8144H276.959C275.676 18.8144 275.248 19.242 275.248 20.5248C275.248 21.8076 276.103 22.2352 276.959 22.2352Z" fill="#00FFA3"/>
<path fill-rule="evenodd" clip-rule="evenodd" d="M254.455 51.4548C229.567 48.734 210.121 29.1499 210.121 29.1499C210.121 29.1499 209.335 24.434 208.234 20.8185C206.975 17.203 202.414 12.3299 199.583 14.2162C196.752 16.1026 196.752 18.4606 196.752 18.4606L196.594 28.6783C184.105 29.7295 176.341 36.4913 171.189 40.9779C170.177 41.8591 169.266 42.6525 168.44 43.2976C164.361 46.531 153.614 46.9985 149.588 47.1736L149.587 47.1736C149.112 47.1943 148.73 47.2109 148.464 47.2275H137.769C117.479 47.3847 101.278 63.576 101.278 83.6971C101.278 103.818 117.636 120.167 137.769 120.167H179.922V120.324C180.394 120.324 180.826 120.285 181.259 120.245L181.259 120.245C181.691 120.206 182.124 120.167 182.596 120.167C199.268 120.167 212.795 133.371 213.11 149.877V160.881V161.038V161.195V161.509V161.667C213.581 167.011 221.76 171.256 231.669 171.256C241.736 171.256 249.915 167.011 250.229 161.667V161.509V161.195V161.038V160.881V157.894C250.229 154.436 253.061 151.763 256.364 151.763H285.619C289.079 151.763 291.753 154.593 291.753 157.894V160.881C291.753 161.195 291.753 161.509 291.911 161.824C292.697 167.011 300.719 171.098 310.471 171.098C320.694 171.098 329.031 166.697 329.031 161.038V160.881V157.265V149.877C329.031 149.877 330.289 142.174 333.906 137.93C334.229 137.715 334.478 137.427 334.704 137.165C334.808 137.044 334.908 136.929 335.008 136.83L335.479 136.358C344.13 127.398 349.321 115.294 349.321 101.932C349.793 74.1081 327.458 51.7862 299.932 51.7862H298.315C292.475 56.8054 284.879 59.8387 276.575 59.8387C268.089 59.8387 260.343 56.6715 254.455 51.4548ZM180.236 54.3014C177.72 54.3014 175.675 52.2578 175.675 49.7427C175.675 47.2275 177.72 45.184 180.236 45.184C182.753 45.184 184.798 47.2275 184.798 49.7427C184.798 52.2578 182.753 54.3014 180.236 54.3014ZM248.573 76.3327C248.573 73.5787 250.806 71.3461 253.56 71.3461H299.589C302.343 71.3461 304.576 73.5787 304.576 76.3327C304.576 79.0867 302.343 81.3192 299.589 81.3192H253.56C250.806 81.3192 248.573 79.0867 248.573 76.3327Z" fill="#00FFA3"/>
<path d="M371.254 118.394C369.038 119.769 356.797 120.308 344.197 100.001C331.597 79.6951 327.677 64.282 329.893 62.9072C332.108 61.5324 341.052 72.4186 353.652 92.725C366.252 113.031 373.469 117.019 371.254 118.394Z" fill="#00FFA3"/>
<path d="M52.0827 238L41.855 237.382V258.712C41.855 261.494 42.2746 263.503 43.1138 264.74C44.0579 265.976 45.7362 266.595 48.1489 266.595C50.6665 266.595 52.5547 266.698 53.8135 266.904C55.1772 267.007 56.5934 267.47 58.062 268.295C60.4746 269.634 61.681 273.086 61.681 278.651C61.681 285.142 60.2124 289.109 57.2752 290.552C55.7017 291.273 54.2856 291.737 53.0268 291.943C51.8729 292.046 50.142 292.098 47.8342 292.098C36.9247 292.098 28.6376 289.676 22.973 284.833C17.3084 279.99 14.4762 271.798 14.4762 260.257V237.382C12.4831 237.691 10.3326 237.846 8.02482 237.846C5.71703 237.846 3.77639 236.97 2.20289 235.218C0.734298 233.466 0 230.478 0 226.253C0 222.029 0.262249 218.989 0.786747 217.134C1.31125 215.176 2.04554 213.785 2.98964 212.961C4.66803 211.621 6.76603 210.952 9.28362 210.952L14.4762 211.57V195.65C14.4762 193.28 14.5286 191.528 14.6335 190.395C14.8433 189.261 15.3678 188.025 16.207 186.685C17.5707 184.109 21.6093 182.821 28.3229 182.821C35.4561 182.821 39.7045 184.727 41.0682 188.54C41.5927 190.189 41.855 192.816 41.855 196.423V211.57C46.4705 211.158 49.9322 210.952 52.24 210.952C54.6527 210.952 56.436 211.055 57.5899 211.261C58.8487 211.364 60.2649 211.828 61.8384 212.652C64.5657 213.991 65.9294 217.959 65.9294 224.553C65.9294 231.045 64.5133 235.012 61.681 236.455C60.1075 237.176 58.6914 237.64 57.4326 237.846C56.2787 237.949 54.4954 238 52.0827 238Z" fill="#00FFA3"/>
<path d="M72.1005 224.244C72.1005 221.874 72.1529 220.122 72.2578 218.989C72.4676 217.752 72.9397 216.361 73.674 214.816C75.1426 212.137 79.2337 210.797 85.9472 210.797C90.9824 210.797 94.549 211.673 96.647 213.425C98.4303 214.867 99.3744 217.083 99.4793 220.071C99.5842 221.101 99.6366 222.595 99.6366 224.553V278.651C99.6366 281.02 99.5317 282.824 99.3219 284.06C99.217 285.194 98.745 286.533 97.9058 288.079C96.5421 290.758 92.5035 292.098 85.7899 292.098C79.1812 292.098 75.1426 290.706 73.674 287.924C72.9397 286.379 72.4676 285.039 72.2578 283.906C72.1529 282.772 72.1005 280.969 72.1005 278.496V224.244ZM97.9058 195.65C97.1715 197.092 95.8078 198.123 93.8147 198.741C91.8216 199.359 89.1467 199.669 85.7899 199.669C82.538 199.669 79.9155 199.359 77.9224 198.741C75.9293 198.123 74.5132 197.041 73.674 195.495C72.9397 193.95 72.4676 192.61 72.2578 191.477C72.1529 190.24 72.1005 188.437 72.1005 186.067C72.1005 183.697 72.1529 181.945 72.2578 180.812C72.4676 179.575 72.9397 178.236 73.674 176.793C75.1426 174.011 79.2337 172.62 85.9472 172.62C92.5559 172.62 96.5421 174.011 97.9058 176.793C98.745 178.339 99.217 179.73 99.3219 180.966C99.5317 182.1 99.6366 183.852 99.6366 186.221C99.6366 188.591 99.5317 190.395 99.3219 191.631C99.217 192.765 98.745 194.104 97.9058 195.65Z" fill="#00FFA3"/>
<path d="M109.689 314.2V223.935C109.689 221.565 109.741 219.813 109.846 218.68C110.056 217.546 110.528 216.258 111.262 214.816C112.731 212.034 116.245 210.643 121.804 210.643C127.364 210.643 131.088 211.364 132.976 212.806C134.969 214.146 136.123 216.155 136.438 218.834C140.424 213.476 146.666 210.797 155.163 210.797C163.764 210.797 171.894 214.764 179.552 222.698C187.209 230.633 191.038 239.855 191.038 250.365C191.038 260.876 187.209 270.098 179.552 278.032C171.999 285.967 163.922 289.934 155.32 289.934C146.718 289.934 140.477 287.564 136.595 282.824V314.046C136.595 316.416 136.49 318.167 136.281 319.301C136.176 320.434 135.704 321.722 134.864 323.165C134.13 324.71 132.819 325.792 130.931 326.411C129.043 327.029 126.473 327.338 123.221 327.338C119.969 327.338 117.346 327.029 115.353 326.411C113.465 325.792 112.101 324.762 111.262 323.319C110.528 321.877 110.056 320.589 109.846 319.455C109.741 318.322 109.689 316.57 109.689 314.2ZM140.844 241.401C138.431 244.183 137.225 247.223 137.225 250.52C137.225 253.817 138.431 256.857 140.844 259.639C143.361 262.318 146.508 263.658 150.285 263.658C154.166 263.658 157.418 262.318 160.04 259.639C162.768 256.96 164.131 253.92 164.131 250.52C164.131 247.12 162.873 244.08 160.355 241.401C157.838 238.619 154.533 237.227 150.442 237.227C146.456 237.227 143.256 238.619 140.844 241.401Z" fill="#00FFA3"/>
<path d="M198.753 314.2V223.935C198.753 221.565 198.806 219.813 198.911 218.68C199.12 217.546 199.592 216.258 200.327 214.816C201.795 212.034 205.309 210.643 210.869 210.643C216.429 210.643 220.153 211.364 222.041 212.806C224.034 214.146 225.188 216.155 225.503 218.834C229.489 213.476 235.73 210.797 244.227 210.797C252.829 210.797 260.959 214.764 268.616 222.698C276.274 230.633 280.103 239.855 280.103 250.365C280.103 260.876 276.274 270.098 268.616 278.032C261.064 285.967 252.986 289.934 244.385 289.934C235.783 289.934 229.541 287.564 225.66 282.824V314.046C225.66 316.416 225.555 318.167 225.345 319.301C225.24 320.434 224.768 321.722 223.929 323.165C223.195 324.71 221.884 325.792 219.995 326.411C218.107 327.029 215.537 327.338 212.285 327.338C209.033 327.338 206.411 327.029 204.418 326.411C202.53 325.792 201.166 324.762 200.327 323.319C199.592 321.877 199.12 320.589 198.911 319.455C198.806 318.322 198.753 316.57 198.753 314.2ZM229.908 241.401C227.496 244.183 226.289 247.223 226.289 250.52C226.289 253.817 227.496 256.857 229.908 259.639C232.426 262.318 235.573 263.658 239.349 263.658C243.231 263.658 246.483 262.318 249.105 259.639C251.832 256.96 253.196 253.92 253.196 250.52C253.196 247.12 251.937 244.08 249.42 241.401C246.902 238.619 243.598 237.227 239.507 237.227C235.521 237.227 232.321 238.619 229.908 241.401Z" fill="#00FFA3"/>
<path d="M285.458 251.447C285.458 239.082 289.864 228.881 298.675 220.844C307.487 212.806 317.557 208.788 328.886 208.788C340.215 208.788 350.233 212.806 358.94 220.844C367.647 228.778 372 238.928 372 251.293C372 259.845 369.745 267.47 365.234 274.168C360.723 280.763 355.216 285.657 348.712 288.852C342.313 291.943 335.652 293.489 328.729 293.489C321.805 293.489 315.092 291.84 308.588 288.543C302.084 285.142 296.577 280.196 292.066 273.704C287.661 267.11 285.458 259.691 285.458 251.447ZM318.344 262.576C321.701 265.049 325.11 266.285 328.572 266.285C332.033 266.285 335.495 264.997 338.957 262.421C342.418 259.845 344.149 256.033 344.149 250.984C344.149 245.935 342.523 242.173 339.271 239.7C336.019 237.227 332.505 235.991 328.729 235.991C324.952 235.991 321.438 237.279 318.186 239.855C314.935 242.431 313.309 246.244 313.309 251.293C313.309 256.239 314.987 260 318.344 262.576Z" fill="#00FFA3"/>
</svg>
