<svg width="216" height="255" viewBox="0 0 216 255" fill="none" xmlns="http://www.w3.org/2000/svg">
<path fill-rule="evenodd" clip-rule="evenodd" d="M120.517 160.671C100.936 158.53 85.6362 143.122 85.6362 143.122C85.6362 143.122 85.0175 139.412 84.1512 136.567C83.1612 133.722 79.5724 129.888 77.3448 131.372C75.1173 132.856 75.1173 134.712 75.1173 134.712L74.9936 142.751C65.1671 143.578 59.0582 148.898 55.0049 152.428L55.0049 152.428C54.2088 153.121 53.4921 153.746 52.842 154.253C49.6325 156.797 41.1773 157.165 38.0097 157.303L38.0093 157.303C37.6351 157.319 37.3347 157.332 37.1255 157.345H28.7104C12.7464 157.469 0 170.208 0 186.039C0 201.87 12.8702 214.733 28.7104 214.733H61.8759V214.856C62.2471 214.856 62.5874 214.825 62.9278 214.795C63.2681 214.764 63.6084 214.733 63.9797 214.733C77.0973 214.733 87.74 225.122 87.9875 238.108V246.766V246.889V247.013V247.26V247.384C88.3588 251.589 94.7938 254.929 102.59 254.929C110.51 254.929 116.945 251.589 117.193 247.384V247.26V247.013V246.889V246.766V244.416C117.193 241.695 119.42 239.592 122.019 239.592H145.037C147.76 239.592 149.863 241.819 149.863 244.416V246.766C149.863 247.013 149.863 247.261 149.987 247.508C150.606 251.589 156.917 254.805 164.59 254.805C172.634 254.805 179.193 251.342 179.193 246.889V246.766V243.921V238.108C179.193 238.108 180.183 232.048 183.029 228.708C183.283 228.539 183.478 228.313 183.656 228.107C183.738 228.012 183.817 227.921 183.895 227.843L184.266 227.472C191.073 220.422 195.157 210.899 195.157 200.386C195.528 178.494 177.955 160.932 156.298 160.932H155.026C150.431 164.881 144.455 167.267 137.921 167.267C131.245 167.267 125.15 164.775 120.517 160.671ZM62.1234 162.911C60.1434 162.911 58.5346 161.303 58.5346 159.324C58.5346 157.345 60.1434 155.737 62.1234 155.737C64.1034 155.737 65.7122 157.345 65.7122 159.324C65.7122 161.303 64.1034 162.911 62.1234 162.911ZM115.89 180.245C115.89 178.078 117.646 176.321 119.813 176.321H156.028C158.195 176.321 159.952 178.078 159.952 180.245C159.952 182.412 158.195 184.168 156.028 184.168H119.813C117.646 184.168 115.89 182.412 115.89 180.245Z" fill="#00FFA3"/>
<path d="M212.413 213.338C210.67 214.42 201.039 214.844 191.125 198.867C181.212 182.89 178.127 170.763 179.87 169.682C181.614 168.6 188.651 177.165 198.564 193.142C208.478 209.119 214.156 212.256 212.413 213.338Z" fill="#00FFA3"/>
<path d="M138.5 110.06C127.074 110.06 118 119.133 118 130.56C118 141.986 127.074 151.06 138.5 151.06C149.926 151.06 159 141.986 159 130.56C159 119.133 149.926 110.06 138.5 110.06ZM138.5 127.535C142.869 127.535 146.566 130.896 146.566 135.601C146.566 138.961 144.549 141.65 141.861 142.994V144.674C141.861 146.355 140.18 148.035 138.5 148.035C136.82 148.035 135.139 146.355 135.139 144.674V143.666H133.795C132.115 143.666 130.434 141.986 130.434 140.305C130.434 138.625 132.115 136.945 133.795 136.945H137.156C137.492 136.609 138.164 136.609 138.5 136.609C138.836 136.609 138.836 136.609 139.172 136.609C139.508 136.273 139.844 135.937 139.844 135.601C139.844 134.592 139.172 134.256 138.5 134.256C134.131 134.256 130.434 130.896 130.434 126.191C130.434 122.83 132.451 120.142 135.139 118.797V116.781C135.139 115.101 136.82 113.42 138.5 113.42C140.18 113.42 141.861 115.101 141.861 116.781V118.125H143.205C144.885 118.125 146.566 119.469 146.566 121.486C146.566 123.166 144.885 124.846 143.205 124.846H138.5C137.492 124.846 137.156 125.183 137.156 126.191C137.156 127.199 137.828 127.535 138.5 127.535Z" fill="#00FFA3"/>
<path d="M82.5492 47.5289C72.0838 52.146 67.4396 64.1232 72.0567 74.5886C76.6737 85.054 88.651 89.6982 99.1163 85.0811C109.582 80.464 114.226 68.4868 109.609 58.0214C104.992 47.5561 93.0146 42.9118 82.5492 47.5289ZM89.6106 63.5348C93.6121 61.7694 98.3559 63.3537 100.257 67.663C101.615 70.741 100.855 74.0183 98.9353 76.3358L99.6143 77.8749C100.293 79.4139 99.4332 81.6319 97.8942 82.3109C96.3552 82.9899 94.1371 82.1298 93.4582 80.5908L93.0508 79.6674L91.8196 80.2106C90.2805 80.8895 88.0625 80.0295 87.3835 78.4905C86.7046 76.9515 87.5646 74.7334 89.1036 74.0545L92.1817 72.6965C92.3537 72.2529 92.9693 71.9813 93.2771 71.8455C93.5849 71.7097 93.5849 71.7097 93.8927 71.5739C94.0647 71.1303 94.2367 70.6867 94.1009 70.3789C93.6935 69.4555 92.9421 69.4193 92.3265 69.6909C88.3251 71.4562 83.5812 69.8719 81.6801 65.5627C80.3221 62.4846 81.0826 59.2074 83.0018 56.8898L82.1871 55.043C81.5081 53.504 82.3681 51.2859 83.9071 50.607C85.4462 49.928 87.6642 50.788 88.3432 52.3271L88.8863 53.5583L90.1176 53.0151C91.6566 52.3361 93.7388 52.8883 94.5536 54.7352C95.2326 56.2742 94.3725 58.4922 92.8335 59.1712L88.5242 61.0723C87.6008 61.4797 87.4288 61.9233 87.8362 62.8467C88.2436 63.7702 88.995 63.8064 89.6106 63.5348Z" fill="#00FFA3"/>
<path d="M173.935 5.31153C162.886 2.35101 151.761 8.77407 148.801 19.8229C145.84 30.8717 152.263 41.9968 163.312 44.9573C174.361 47.9179 185.486 41.4948 188.447 30.446C191.407 19.3971 184.984 8.27206 173.935 5.31153ZM169.407 22.2097C173.632 23.3417 176.336 27.5492 175.117 32.0987C174.246 35.3484 171.6 37.4256 168.652 38.0289L168.216 39.6537C167.781 41.2786 165.721 42.468 164.096 42.0326C162.471 41.5973 161.282 39.5371 161.717 37.9123L161.978 36.9374L160.678 36.5891C159.053 36.1537 157.864 34.0935 158.299 32.4687C158.735 30.8438 160.795 29.6544 162.42 30.0897L165.669 30.9605C166.081 30.7226 166.731 30.8967 167.056 30.9838C167.381 31.0709 167.381 31.0709 167.706 31.158C168.118 30.9201 168.53 30.6822 168.617 30.3572C168.879 29.3823 168.316 28.8832 167.666 28.7091C163.441 27.5771 160.737 23.3696 161.956 18.8201C162.827 15.5704 165.474 13.4932 168.422 12.8899L168.944 10.9401C169.379 9.31527 171.44 8.12582 173.064 8.56119C174.689 8.99656 175.879 11.0568 175.443 12.6816L175.095 13.9815L176.395 14.3297C178.02 14.7651 179.296 16.5004 178.774 18.4501C178.338 20.075 176.278 21.2644 174.653 20.8291L170.104 19.61C169.129 19.3488 168.717 19.5867 168.456 20.5616C168.195 21.5365 168.757 22.0356 169.407 22.2097Z" fill="#00FFA3"/>
<path fill-rule="evenodd" clip-rule="evenodd" d="M123.517 160.728C103.936 158.587 88.6362 143.179 88.6362 143.179C88.6362 143.179 88.0175 139.468 87.1512 136.624C86.1612 133.779 82.5724 129.945 80.3448 131.429C78.1173 132.913 78.1173 134.768 78.1173 134.768L77.9936 142.808C68.1671 143.635 62.0582 148.955 58.0049 152.485L58.0049 152.485C57.2088 153.178 56.4921 153.802 55.842 154.31C52.6325 156.854 44.1773 157.222 41.0097 157.359L41.0093 157.359C40.6351 157.376 40.3347 157.389 40.1255 157.402H31.7104C15.7464 157.525 3 170.264 3 186.096C3 201.927 15.8702 214.789 31.7104 214.789H64.8759V214.913C65.2471 214.913 65.5874 214.882 65.9278 214.851C66.2681 214.82 66.6084 214.789 66.9797 214.789C80.0973 214.789 90.74 225.178 90.9875 238.165V246.822V246.946V247.07V247.317V247.441C91.3588 251.646 97.7938 254.985 105.59 254.985C113.51 254.985 119.945 251.646 120.193 247.441V247.317V247.07V246.946V246.822V244.473C120.193 241.752 122.42 239.649 125.019 239.649H148.037C150.76 239.649 152.863 241.875 152.863 244.473V246.822C152.863 247.07 152.863 247.317 152.987 247.565C153.606 251.646 159.917 254.862 167.59 254.862C175.634 254.862 182.193 251.399 182.193 246.946V246.822V243.978V238.165C182.193 238.165 183.183 232.104 186.029 228.765C186.283 228.596 186.478 228.369 186.656 228.164C186.738 228.068 186.817 227.978 186.895 227.899L187.266 227.528C194.073 220.479 198.157 210.955 198.157 200.442C198.528 178.551 180.955 160.988 159.298 160.988H158.026C153.431 164.937 147.455 167.324 140.921 167.324C134.245 167.324 128.15 164.832 123.517 160.728ZM65.1234 162.967C63.1434 162.967 61.5346 161.36 61.5346 159.381C61.5346 157.402 63.1434 155.794 65.1234 155.794C67.1034 155.794 68.7122 157.402 68.7122 159.381C68.7122 161.36 67.1034 162.967 65.1234 162.967ZM118.89 180.301C118.89 178.135 120.646 176.378 122.813 176.378H159.028C161.195 176.378 162.952 178.135 162.952 180.301C162.952 182.468 161.195 184.225 159.028 184.225H122.813C120.646 184.225 118.89 182.468 118.89 180.301Z" fill="#142135"/>
<path d="M215.413 213.395C213.67 214.476 204.039 214.9 194.125 198.924C184.212 182.947 181.127 170.82 182.87 169.738C184.614 168.657 191.651 177.222 201.564 193.198C211.478 209.175 217.156 212.313 215.413 213.395Z" fill="#142135"/>
<path d="M141.5 110.116C130.074 110.116 121 119.19 121 130.616C121 142.042 130.074 151.116 141.5 151.116C152.926 151.116 162 142.042 162 130.616C162 119.19 152.926 110.116 141.5 110.116ZM141.5 127.592C145.869 127.592 149.566 130.952 149.566 135.657C149.566 139.018 147.549 141.706 144.861 143.051V144.731C144.861 146.411 143.18 148.092 141.5 148.092C139.82 148.092 138.139 146.411 138.139 144.731V143.723H136.795C135.115 143.723 133.434 142.042 133.434 140.362C133.434 138.682 135.115 137.001 136.795 137.001H140.156C140.492 136.665 141.164 136.665 141.5 136.665C141.836 136.665 141.836 136.665 142.172 136.665C142.508 136.329 142.844 135.993 142.844 135.657C142.844 134.649 142.172 134.313 141.5 134.313C137.131 134.313 133.434 130.952 133.434 126.247C133.434 122.887 135.451 120.198 138.139 118.854V116.838C138.139 115.157 139.82 113.477 141.5 113.477C143.18 113.477 144.861 115.157 144.861 116.838V118.182H146.205C147.885 118.182 149.566 119.526 149.566 121.542C149.566 123.223 147.885 124.903 146.205 124.903H141.5C140.492 124.903 140.156 125.239 140.156 126.247C140.156 127.256 140.828 127.592 141.5 127.592Z" fill="#142135"/>
<path d="M85.5492 47.5856C75.0838 52.2026 70.4396 64.1799 75.0567 74.6452C79.6737 85.1106 91.651 89.7548 102.116 85.1378C112.582 80.5207 117.226 68.5435 112.609 58.0781C107.992 47.6127 96.0146 42.9685 85.5492 47.5856ZM92.6106 63.5914C96.6121 61.8261 101.356 63.4104 103.257 67.7196C104.615 70.7977 103.855 74.0749 101.935 76.3925L102.614 77.9315C103.293 79.4705 102.433 81.6885 100.894 82.3675C99.3552 83.0465 97.1371 82.1865 96.4582 80.6474L96.0508 79.724L94.8196 80.2672C93.2805 80.9462 91.0625 80.0861 90.3835 78.5471C89.7046 77.0081 90.5646 74.7901 92.1036 74.1111L95.1817 72.7531C95.3537 72.3095 95.9693 72.0379 96.2771 71.9022C96.5849 71.7664 96.5849 71.7664 96.8927 71.6306C97.0647 71.187 97.2367 70.7434 97.1009 70.4356C96.6935 69.5121 95.9421 69.4759 95.3265 69.7475C91.3251 71.5129 86.5812 69.9286 84.6801 65.6193C83.3221 62.5413 84.0826 59.264 86.0018 56.9465L85.1871 55.0996C84.5081 53.5606 85.3681 51.3426 86.9071 50.6636C88.4462 49.9846 90.6642 50.8447 91.3432 52.3837L91.8863 53.6149L93.1176 53.0717C94.6566 52.3927 96.7388 52.945 97.5536 54.7918C98.2326 56.3308 97.3725 58.5488 95.8335 59.2278L91.5242 61.129C90.6008 61.5364 90.4288 61.98 90.8362 62.9034C91.2436 63.8268 91.995 63.863 92.6106 63.5914Z" fill="#142135"/>
<path d="M176.935 5.36817C165.886 2.40765 154.761 8.83071 151.801 19.8795C148.84 30.9284 155.263 42.0535 166.312 45.014C177.361 47.9745 188.486 41.5514 191.447 30.5026C194.407 19.4538 187.984 8.3287 176.935 5.36817ZM172.407 22.2664C176.632 23.3984 179.336 27.6058 178.117 32.1553C177.246 35.405 174.6 37.4823 171.652 38.0855L171.216 39.7104C170.781 41.3352 168.721 42.5247 167.096 42.0893C165.471 41.6539 164.282 39.5937 164.717 37.9689L164.978 36.994L163.678 36.6457C162.053 36.2103 160.864 34.1501 161.299 32.5253C161.735 30.9005 163.795 29.711 165.42 30.1464L168.669 31.0171C169.081 30.7792 169.731 30.9534 170.056 31.0405C170.381 31.1275 170.381 31.1275 170.706 31.2146C171.118 30.9767 171.53 30.7388 171.617 30.4139C171.879 29.439 171.316 28.9398 170.666 28.7657C166.441 27.6337 163.737 23.4263 164.956 18.8767C165.827 15.6271 168.474 13.5498 171.422 12.9465L171.944 10.9967C172.379 9.37191 174.44 8.18246 176.064 8.61783C177.689 9.0532 178.879 11.1134 178.443 12.7382L178.095 14.0381L179.395 14.3864C181.02 14.8218 182.296 16.557 181.774 18.5068C181.338 20.1316 179.278 21.3211 177.653 20.8857L173.104 19.6667C172.129 19.4054 171.717 19.6433 171.456 20.6182C171.195 21.5931 171.757 22.0922 172.407 22.2664Z" fill="#142135"/>
</svg>
