<svg width="845" height="215" viewBox="0 0 845 215" fill="none" xmlns="http://www.w3.org/2000/svg">
<path d="M11.6936 88.8088H14.2844L8.44459 73.1096H5.83979L0 88.8088H2.50677L4.00523 84.5992H10.1951L11.6936 88.8088ZM7.01615 75.916H7.19821L9.56494 82.5986H4.64943L7.01615 75.916Z" fill="black"/>
<path d="M24.8016 88.8088C28.2467 88.8088 30.3193 87.1278 30.3193 84.363C30.3193 82.3069 28.8629 80.8064 26.6782 80.5841V80.4035C28.2747 80.1395 29.5071 78.6668 29.5071 77.0275C29.5071 74.61 27.6865 73.1096 24.6616 73.1096H18.2196V88.8088H24.8016ZM20.6563 75.138H24.1014C25.978 75.138 27.0703 75.9994 27.0703 77.4581C27.0703 78.9725 25.908 79.7783 23.6673 79.7783H20.6563V75.138ZM20.6563 86.7804V81.6678H24.1714C26.5662 81.6678 27.8125 82.5291 27.8125 84.1963C27.8125 85.8913 26.6082 86.7804 24.3255 86.7804H20.6563Z" fill="black"/>
<path d="M41.2707 89.1979C44.8418 89.1979 47.4886 87.1556 47.9367 84.0713H45.514C45.0518 85.8496 43.4133 86.975 41.2707 86.975C38.3298 86.975 36.4952 84.6548 36.4952 80.9592C36.4952 77.2636 38.3298 74.9435 41.2567 74.9435C43.3853 74.9435 45.0378 76.1939 45.5 78.125H47.9367C47.5306 74.9574 44.7857 72.7206 41.2567 72.7206C36.7753 72.7206 34.0024 75.8743 34.0024 80.9592C34.0024 86.0441 36.7893 89.1979 41.2707 89.1979Z" fill="black"/>
<path d="M52.3621 73.1096V88.8088H58.1458C62.9633 88.8088 65.7502 85.9191 65.7502 80.9175C65.7502 75.9855 62.9353 73.1096 58.1458 73.1096H52.3621ZM54.7988 75.263H57.8938C61.2688 75.263 63.2574 77.3609 63.2574 80.9453C63.2574 84.5853 61.2968 86.6554 57.8938 86.6554H54.7988V75.263Z" fill="black"/>
<path d="M80.4687 86.6554H72.6963V81.8484H80.0626V79.7783H72.6963V75.263H80.4687V73.1096H70.2596V88.8088H80.4687V86.6554Z" fill="black"/>
<path d="M87.6529 88.8088V82.2652H94.613V80.1673H87.6529V75.263H95.2572V73.1096H85.2162V88.8088H87.6529Z" fill="black"/>
<path d="M113.379 82.6125V80.6675H106.769V82.6681H110.984V83.0154C110.956 85.3772 109.135 86.975 106.461 86.975C103.394 86.975 101.475 84.6687 101.475 80.9314C101.475 77.2636 103.394 74.9435 106.405 74.9435C108.645 74.9435 110.186 75.9994 110.816 77.9166H113.267C112.721 74.749 110.06 72.7206 106.405 72.7206C101.895 72.7206 98.9824 75.9577 98.9824 80.9453C98.9824 86.0163 101.867 89.1979 106.433 89.1979C110.648 89.1979 113.379 86.5998 113.379 82.6125Z" fill="black"/>
<path d="M131.192 88.8088V73.1096H128.756V79.7227H120.395V73.1096H117.958V88.8088H120.395V81.8901H128.756V88.8088H131.192Z" fill="black"/>
<path d="M138.825 88.8088V73.1096H136.388V88.8088H138.825Z" fill="black"/>
<path d="M142.9 84.7798C142.9 87.4473 144.888 89.1979 147.787 89.1979C150.854 89.1979 152.717 87.3779 152.717 84.2519V73.1096H150.28V84.2241C150.28 86.0024 149.384 86.9611 147.759 86.9611C146.303 86.9611 145.337 86.0719 145.295 84.7798H142.9Z" fill="black"/>
<path d="M160.335 88.8088V83.6128L162.156 81.6261L167.631 88.8088H170.684L163.878 79.9311L170.152 73.1096H167.239L160.517 80.5007H160.335V73.1096H157.898V88.8088H160.335Z" fill="black"/>
<path d="M184.507 86.6276H176.916V73.1096H174.48V88.8088H184.507V86.6276Z" fill="black"/>
<path d="M205.093 88.8088V73.1096H202.25L197.04 85.1688H196.858L191.663 73.1096H188.82V88.8088H191.089V77.3887H191.229L196.018 88.3921H197.895L202.67 77.3887H202.824V88.8088H205.093Z" fill="black"/>
<path d="M3.61311 122.682V111.4H3.80917L12.1557 122.682H14.3684V106.982H12.0017V118.264H11.8196L3.47307 106.982H1.24638V122.682H3.61311Z" fill="black"/>
<path d="M26.4401 106.593C21.8187 106.593 18.9058 109.761 18.9058 114.832C18.9058 119.875 21.7487 123.071 26.4401 123.071C31.0895 123.071 33.9324 119.875 33.9324 114.832C33.9324 109.775 31.0755 106.593 26.4401 106.593ZM26.4401 108.816C29.5211 108.816 31.4396 111.15 31.4396 114.832C31.4396 118.486 29.5351 120.848 26.4401 120.848C23.2891 120.848 21.3986 118.486 21.3986 114.832C21.3986 111.15 23.3452 108.816 26.4401 108.816Z" fill="black"/>
<path d="M38.4698 106.982V122.682H40.9066V117.361H44.6877C47.8387 117.361 50.0514 115.249 50.0514 112.192C50.0514 109.094 47.8947 106.982 44.7577 106.982H38.4698ZM40.9066 109.094H44.1135C46.3402 109.094 47.5726 110.192 47.5726 112.206C47.5726 114.151 46.2982 115.263 44.1135 115.263H40.9066V109.094Z" fill="black"/>
<path d="M68.0749 124.363L66.0443 121.529C67.8088 120.209 68.8031 117.847 68.8031 114.832C68.8031 109.761 65.9042 106.593 61.3108 106.593C56.6894 106.593 53.7765 109.747 53.7765 114.832C53.7765 119.945 56.6474 123.071 61.3108 123.071C62.3331 123.071 63.3134 122.904 64.1677 122.612L65.4981 124.363H68.0749ZM61.3108 120.848C58.2159 120.848 56.2833 118.542 56.2833 114.832C56.2833 111.136 58.2159 108.816 61.3108 108.816C64.3638 108.816 66.3103 111.15 66.3103 114.832C66.3103 116.888 65.6942 118.514 64.5878 119.417L63.3414 117.902H60.8207L62.8653 120.639C62.3611 120.778 61.843 120.848 61.3108 120.848Z" fill="black"/>
<path d="M75.7773 116.666H79.3764L82.6814 122.682H85.4962L81.8691 116.277C83.8437 115.624 85.0201 113.915 85.0201 111.803C85.0201 108.858 82.9335 106.982 79.6845 106.982H73.3405V122.682H75.7773V116.666ZM75.7773 109.066H79.3624C81.309 109.066 82.5133 110.122 82.5133 111.859C82.5133 113.623 81.393 114.624 79.4324 114.624H75.7773V109.066Z" fill="black"/>
<path d="M88.9693 118.486C89.1514 121.278 91.5461 123.071 95.1032 123.071C98.9124 123.071 101.293 121.181 101.293 118.194C101.293 115.846 99.9347 114.54 96.6156 113.776L94.8511 113.359C92.7365 112.873 91.8822 112.22 91.8822 111.095C91.8822 109.65 93.2126 108.719 95.2152 108.719C97.1058 108.719 98.4222 109.622 98.6603 111.095H101.041C100.901 108.455 98.5062 106.593 95.2572 106.593C91.7422 106.593 89.4034 108.455 89.4034 111.234C89.4034 113.526 90.7198 114.888 93.6467 115.568L95.7334 116.055C97.876 116.555 98.8143 117.291 98.8143 118.5C98.8143 119.917 97.3299 120.945 95.2852 120.945C93.1146 120.945 91.6021 119.986 91.378 118.486H88.9693Z" fill="black"/>
<path d="M112.244 122.682V109.136H117.342V106.982H104.724V109.136H109.808V122.682H112.244Z" fill="black"/>
<path d="M124.022 106.982H121.585V117.277C121.585 120.681 124.064 123.071 128.111 123.071C132.145 123.071 134.623 120.681 134.623 117.277V106.982H132.187V117.069C132.187 119.292 130.702 120.834 128.111 120.834C125.507 120.834 124.022 119.292 124.022 117.069V106.982Z" fill="black"/>
<path d="M147.045 122.682L152.829 106.982H150.238L145.855 119.709H145.659L141.247 106.982H138.615L144.412 122.682H147.045Z" fill="black"/>
<path d="M165.881 111.053H166.021L169.536 122.682H171.833L176.188 106.982H173.653L170.67 119.097H170.516L167.099 106.982H164.803L161.4 119.097H161.259L158.263 106.982H155.714L160.083 122.682H162.38L165.881 111.053Z" fill="black"/>
<path d="M179.297 122.682H182.014L186.061 116.819H186.257L190.248 122.682H193.105L187.714 114.846L193.217 106.982H190.458L186.425 112.943H186.243L182.266 106.982H179.353L184.717 114.776L179.297 122.682Z" fill="black"/>
<path d="M204.253 122.682V116.305L209.952 106.982H207.236L203.132 113.804H202.95L198.833 106.982H196.116L201.816 116.305V122.682H204.253Z" fill="black"/>
<path d="M213.44 122.682H225.539V120.528H216.548V120.334L225.329 108.691V106.982H213.706V109.136H222.262V109.33L213.44 120.973V122.682Z" fill="black"/>
<path d="M7.46141 17.395H13.812L19.6437 27.7841H24.6106L18.2105 16.7232C21.6947 15.5956 23.7704 12.6444 23.7704 8.99743C23.7704 3.91088 20.0885 0.671808 14.3557 0.671808H3.16177V27.7841H7.46141V17.395ZM7.46141 4.27078H13.7873C17.2221 4.27078 19.3472 6.09426 19.3472 9.09341C19.3472 12.1405 17.3704 13.868 13.9109 13.868H7.46141V4.27078Z" fill="black"/>
<path d="M44.2061 0C36.0516 0 30.9118 5.47044 30.9118 14.2279C30.9118 22.9375 35.928 28.4559 44.2061 28.4559C52.41 28.4559 57.4262 22.9375 57.4262 14.2279C57.4262 5.49443 52.3853 0 44.2061 0ZM44.2061 3.8389C49.6424 3.8389 53.0277 7.86976 53.0277 14.2279C53.0277 20.5381 49.6671 24.617 44.2061 24.617C38.6462 24.617 35.3102 20.5381 35.3102 14.2279C35.3102 7.86976 38.745 3.8389 44.2061 3.8389Z" fill="black"/>
<path d="M77.0464 27.7841C83.1252 27.7841 86.7824 24.8809 86.7824 20.1063C86.7824 16.5553 84.2125 13.964 80.3577 13.5801V13.2682C83.1747 12.8123 85.3492 10.2691 85.3492 7.43788C85.3492 3.26307 82.1368 0.671808 76.7993 0.671808H65.4325V27.7841H77.0464ZM69.7321 4.17481H75.8109C79.1221 4.17481 81.0495 5.66238 81.0495 8.18167C81.0495 10.7969 78.9986 12.1885 75.0449 12.1885H69.7321V4.17481ZM69.7321 24.2811V15.4516H75.9345C80.16 15.4516 82.3592 16.9392 82.3592 19.8183C82.3592 22.7455 80.2341 24.2811 76.2063 24.2811H69.7321Z" fill="black"/>
<path d="M106.576 0C98.4211 0 93.2813 5.47044 93.2813 14.2279C93.2813 22.9375 98.2975 28.4559 106.576 28.4559C114.78 28.4559 119.796 22.9375 119.796 14.2279C119.796 5.49443 114.755 0 106.576 0ZM106.576 3.8389C112.012 3.8389 115.397 7.86976 115.397 14.2279C115.397 20.5381 112.037 24.617 106.576 24.617C101.016 24.617 97.6798 20.5381 97.6798 14.2279C97.6798 7.86976 101.115 3.8389 106.576 3.8389Z" fill="black"/>
<path d="M137.834 27.7841V4.39075H146.829V0.671808H124.565V4.39075H133.535V27.7841H137.834Z" fill="black"/>
<path d="M164.893 0C156.738 0 151.598 5.47044 151.598 14.2279C151.598 22.9375 156.615 28.4559 164.893 28.4559C173.096 28.4559 178.113 22.9375 178.113 14.2279C178.113 5.49443 173.072 0 164.893 0ZM164.893 3.8389C170.329 3.8389 173.714 7.86976 173.714 14.2279C173.714 20.5381 170.354 24.617 164.893 24.617C159.333 24.617 155.997 20.5381 155.997 14.2279C155.997 7.86976 159.432 3.8389 164.893 3.8389Z" fill="black"/>
<path d="M5.10971 175.563C7.13113 175.563 8.78758 174.678 9.77021 173.064H9.99482V175.296H12.297V164.935C12.297 161.791 10.2335 159.895 6.54155 159.895C3.31289 159.895 0.926486 161.496 0.60362 163.925H3.04617C3.38308 162.731 4.64647 162.043 6.45733 162.043C8.71739 162.043 9.88252 163.068 9.88252 164.935V166.311L5.5168 166.578C1.99335 166.789 0 168.347 0 171.056C0 173.822 2.17584 175.563 5.10971 175.563ZM5.55892 173.443C3.80421 173.443 2.4987 172.545 2.4987 171C2.4987 169.484 3.50942 168.684 5.81159 168.529L9.88252 168.263V169.652C9.88252 171.814 8.04358 173.443 5.55892 173.443Z" fill="black"/>
<path d="M24.2852 175.563C28.1174 175.563 30.6302 172.46 30.6302 167.729C30.6302 162.97 28.1315 159.895 24.2852 159.895C22.2076 159.895 20.3687 160.92 19.5404 162.549H19.3158V154.153H16.9013V175.296H19.2035V172.881H19.4281C20.3827 174.566 22.1795 175.563 24.2852 175.563ZM23.7237 162.071C26.4891 162.071 28.1315 164.191 28.1315 167.729C28.1315 171.267 26.4891 173.387 23.7237 173.387C20.9723 173.387 19.2597 171.225 19.2597 167.729C19.2597 164.233 20.9723 162.071 23.7237 162.071Z" fill="black"/>
<path d="M46.9419 164.795C46.5208 162.099 44.2748 159.895 40.5969 159.895C36.3576 159.895 33.6623 162.956 33.6623 167.673C33.6623 172.488 36.3716 175.563 40.611 175.563C44.2467 175.563 46.5068 173.513 46.9419 170.733H44.4994C44.0502 172.446 42.6324 173.387 40.5969 173.387C37.9017 173.387 36.161 171.169 36.161 167.673C36.161 164.247 37.8736 162.071 40.5969 162.071C42.7728 162.071 44.1063 163.293 44.4994 164.795H46.9419Z" fill="black"/>
<path d="M56.1085 175.563C58.2002 175.563 59.997 174.566 60.9515 172.881H61.1761V175.296H63.4783V154.153H61.0638V162.549H60.8533C59.997 160.892 58.2142 159.895 56.1085 159.895C52.2622 159.895 49.7495 162.984 49.7495 167.729C49.7495 172.488 52.2341 175.563 56.1085 175.563ZM56.6701 162.071C59.4074 162.071 61.12 164.261 61.12 167.729C61.12 171.225 59.4214 173.387 56.6701 173.387C53.9046 173.387 52.2482 171.267 52.2482 167.729C52.2482 164.205 53.9187 162.071 56.6701 162.071Z" fill="black"/>
<path d="M78.1898 171.379C77.5581 172.713 76.2386 173.429 74.2873 173.429C71.7184 173.429 70.0479 171.534 69.9216 168.543V168.431H80.8008V167.504C80.8008 162.801 78.3161 159.895 74.2312 159.895C70.076 159.895 67.4089 162.984 67.4089 167.743C67.4089 172.53 70.0339 175.563 74.2312 175.563C77.5441 175.563 79.9024 173.962 80.6043 171.379H78.1898ZM74.2031 162.029C76.6035 162.029 78.2038 163.798 78.26 166.48H69.9216C70.1041 163.798 71.7886 162.029 74.2031 162.029Z" fill="black"/>
<path d="M85.6017 175.296H88.0162V162.184H91.4835V160.162H88.0162V158.548C88.0162 156.891 88.7461 156.049 90.4868 156.049C90.922 156.049 91.329 156.063 91.6238 156.119V154.153C91.1185 154.055 90.585 154.013 89.9955 154.013C87.1177 154.013 85.6017 155.459 85.6017 158.477V160.162H83.0889V162.184H85.6017V175.296Z" fill="black"/>
<path d="M100.594 181.108C104.721 181.108 107.332 178.946 107.332 175.563V160.162H105.03V162.563H104.805C103.935 160.934 102.068 159.895 99.9482 159.895C96.0597 159.895 93.6031 162.97 93.6031 167.504C93.6031 172.039 96.0317 175.072 99.9482 175.072C102.026 175.072 103.738 174.131 104.693 172.46H104.918V175.437C104.918 177.669 103.303 179.002 100.594 179.002C98.4181 179.002 97.0704 178.202 96.8037 176.967H94.2489C94.6139 179.466 96.9441 181.108 100.594 181.108ZM100.482 172.938C97.6741 172.938 96.1019 170.804 96.1019 167.504C96.1019 164.205 97.6741 162.071 100.482 162.071C103.275 162.071 104.974 164.205 104.974 167.504C104.974 170.804 103.289 172.938 100.482 172.938Z" fill="black"/>
<path d="M112.021 175.296H114.435V166.339C114.435 163.784 115.923 162.071 118.632 162.071C120.92 162.071 122.128 163.405 122.128 166.087V175.296H124.542V165.497C124.542 161.945 122.521 159.895 119.32 159.895C117.004 159.895 115.418 160.878 114.66 162.549H114.435V154.153H112.021V175.296Z" fill="black"/>
<path d="M130.213 157.242C131.14 157.242 131.898 156.484 131.898 155.557C131.898 154.631 131.14 153.873 130.213 153.873C129.287 153.873 128.529 154.631 128.529 155.557C128.529 156.484 129.287 157.242 130.213 157.242ZM129.006 175.296H131.421V160.162H129.006V175.296Z" fill="black"/>
<path d="M137.316 157.242C138.243 157.242 139.001 156.484 139.001 155.557C139.001 154.631 138.243 153.873 137.316 153.873C136.39 153.873 135.632 154.631 135.632 155.557C135.632 156.484 136.39 157.242 137.316 157.242ZM138.496 160.162H136.081V176.082C136.081 177.753 135.52 178.427 133.807 178.427H133.442V180.491H133.863C137.036 180.491 138.496 179.157 138.496 176.04V160.162Z" fill="black"/>
<path d="M145.879 166.774H145.655V154.153H143.24V175.296H145.655V169.554L147.101 168.206L152.772 175.296H155.846L148.898 166.648L155.411 160.162H152.449L145.879 166.774Z" fill="black"/>
<path d="M158.85 175.296H161.265V154.153H158.85V175.296Z" fill="black"/>
<path d="M165.953 175.296H168.368V165.918C168.368 163.784 169.898 162.071 171.877 162.071C173.786 162.071 175.036 163.223 175.036 165.02V175.296H177.45V165.567C177.45 163.644 178.854 162.071 180.96 162.071C183.093 162.071 184.146 163.166 184.146 165.399V175.296H186.561V164.837C186.561 161.664 184.834 159.895 181.746 159.895C179.654 159.895 177.927 160.948 177.113 162.549H176.889C176.187 160.976 174.755 159.895 172.705 159.895C170.684 159.895 169.168 160.864 168.48 162.549H168.255V160.162H165.953V175.296Z" fill="black"/>
<path d="M0.898411 209.525H3.31289V200.568C3.31289 197.914 4.87107 196.3 7.28555 196.3C9.70003 196.3 10.8511 197.592 10.8511 200.315V209.525H13.2656V199.726C13.2656 196.132 11.3705 194.124 7.97339 194.124C5.65718 194.124 4.18322 195.107 3.42519 196.777H3.20059V194.391H0.898411V209.525Z" fill="black"/>
<path d="M23.9061 209.792C28.2157 209.792 30.8829 206.815 30.8829 201.958C30.8829 197.086 28.2157 194.124 23.9061 194.124C19.5966 194.124 16.9294 197.086 16.9294 201.958C16.9294 206.815 19.5966 209.792 23.9061 209.792ZM23.9061 207.615C21.0425 207.615 19.4281 205.538 19.4281 201.958C19.4281 198.364 21.0425 196.3 23.9061 196.3C26.7698 196.3 28.3842 198.364 28.3842 201.958C28.3842 205.538 26.7698 207.615 23.9061 207.615Z" fill="black"/>
<path d="M42.0428 194.124C39.9793 194.124 38.1684 195.177 37.1998 196.918H36.9752V194.391H34.673V214.579H37.0875V207.25H37.3121C38.1403 208.851 39.881 209.792 42.0428 209.792C45.8891 209.792 48.4019 206.689 48.4019 201.958C48.4019 197.198 45.9032 194.124 42.0428 194.124ZM41.4673 207.615C38.744 207.615 37.0173 205.425 37.0173 201.958C37.0173 198.476 38.744 196.3 41.4813 196.3C44.2467 196.3 45.9032 198.42 45.9032 201.958C45.9032 205.496 44.2467 207.615 41.4673 207.615Z" fill="black"/>
<path d="M57.765 194.124C53.9327 194.124 51.434 197.213 51.434 201.958C51.434 206.731 53.9046 209.792 57.765 209.792C59.8987 209.792 61.5271 208.907 62.4957 207.25H62.7203V214.579H65.1628V194.391H62.8326V196.918H62.608C61.7096 195.219 59.8285 194.124 57.765 194.124ZM58.3125 207.615C55.5611 207.615 53.9327 205.51 53.9327 201.958C53.9327 198.42 55.5751 196.3 58.3265 196.3C61.0638 196.3 62.7905 198.49 62.7905 201.958C62.7905 205.439 61.0779 207.615 58.3125 207.615Z" fill="black"/>
<path d="M69.711 209.525H72.1255V200.147C72.1255 198.013 73.796 196.468 76.0982 196.468C76.5755 196.468 77.4458 196.553 77.6423 196.609V194.194C77.3335 194.152 76.8281 194.124 76.4351 194.124C74.4277 194.124 72.687 195.163 72.2378 196.637H72.0132V194.391H69.711V209.525Z" fill="black"/>
<path d="M80.0287 198.532C80.0287 200.722 81.3202 201.944 84.1558 202.632L86.7528 203.263C88.3671 203.656 89.1532 204.358 89.1532 205.397C89.1532 206.787 87.6933 207.756 85.6578 207.756C83.7206 207.756 82.5134 206.942 82.1063 205.664H79.6216C79.8883 208.177 82.2046 209.792 85.5736 209.792C89.0128 209.792 91.6379 207.924 91.6379 205.215C91.6379 203.039 90.2622 201.803 87.4125 201.115L85.0823 200.554C83.2995 200.119 82.4572 199.473 82.4572 198.434C82.4572 197.086 83.861 196.174 85.6578 196.174C87.4827 196.174 88.6619 196.974 88.9848 198.181H91.3712C91.0483 195.696 88.8444 194.124 85.6719 194.124C82.4572 194.124 80.0287 196.019 80.0287 198.532Z" fill="black"/>
<path d="M96.2984 190.474V194.391H93.8558V196.412H96.2984V205.594C96.2984 208.486 97.5477 209.637 100.664 209.637C101.141 209.637 101.605 209.581 102.082 209.497V207.461C101.633 207.503 101.394 207.517 100.959 207.517C99.3867 207.517 98.7129 206.759 98.7129 204.976V196.412H102.082V194.391H98.7129V190.474H96.2984Z" fill="black"/>
<path d="M117.973 194.391H115.558V203.348C115.558 206.001 114.098 207.587 111.431 207.587C109.017 207.587 108.006 206.324 108.006 203.6V194.391H105.591V204.19C105.591 207.77 107.36 209.792 110.757 209.792C113.073 209.792 114.688 208.837 115.446 207.152H115.67V209.525H117.973V194.391Z" fill="black"/>
<path d="M134.874 194.391H132.291L128.15 206.857H127.925L123.784 194.391H121.201L126.802 209.525H129.273L134.874 194.391Z" fill="black"/>
<path d="M157.138 194.391H154.709L151.733 206.492H151.509L148.125 194.391H145.809L142.426 206.492H142.202L139.226 194.391H136.783L141.022 209.525H143.465L146.834 197.816H147.059L150.442 209.525H152.898L157.138 194.391Z" fill="black"/>
<path d="M165.715 203.853L169.294 209.567H172.158L166.95 201.902L172.088 194.433H169.35L165.799 200.062H165.574L161.981 194.433H159.103L164.339 202L159.159 209.567H161.896L165.49 203.853H165.715Z" fill="black"/>
<path d="M176.734 215C179.415 215 180.623 213.961 181.914 210.451L187.824 194.391H185.255L181.114 206.843H180.889L176.734 194.391H174.123L179.724 209.539L179.443 210.437C178.812 212.262 178.054 212.922 176.664 212.922C176.327 212.922 175.948 212.908 175.653 212.852V214.916C175.99 214.972 176.411 215 176.734 215Z" fill="black"/>
<path d="M190.702 209.525H202.353V207.503H193.622V207.279L202.311 196.202V194.391H190.716V196.412H199.433V196.637L190.702 207.756V209.525Z" fill="black"/>
<path d="M293.173 88.4119H296.758L290.45 71.0555H286.65L280.343 88.4119H283.712L285.204 84.0614H291.696L293.173 88.4119ZM288.358 74.4443H288.573L290.943 81.4968H285.974L288.358 74.4443Z" fill="black"/>
<path d="M308.711 88.4119C312.541 88.4119 314.88 86.5191 314.88 83.466C314.88 81.2068 313.188 79.5124 310.803 79.3139V79.1002C312.618 78.8254 314.003 77.2073 314.003 75.3908C314.003 72.7041 311.957 71.0555 308.526 71.0555H300.973V88.4119H308.711ZM304.311 73.6048H307.711C309.603 73.6048 310.695 74.4901 310.695 75.9709C310.695 77.4821 309.526 78.3217 307.326 78.3217H304.311V73.6048ZM304.311 85.8626V80.6267H307.803C310.188 80.6267 311.465 81.5121 311.465 83.2065C311.465 84.9315 310.234 85.8626 307.926 85.8626H304.311Z" fill="black"/>
<path d="M326.925 88.8546C331.094 88.8546 334.171 86.4122 334.54 82.7944H331.279C330.848 84.7178 329.156 85.9542 326.925 85.9542C323.941 85.9542 322.079 83.5576 322.079 79.7261C322.079 75.8945 323.941 73.4979 326.91 73.4979C329.141 73.4979 330.848 74.8565 331.264 76.902H334.54C334.202 73.2384 331.033 70.6128 326.91 70.6128C321.818 70.6128 318.664 74.0932 318.664 79.7261C318.664 85.3742 321.833 88.8546 326.925 88.8546Z" fill="black"/>
<path d="M339.186 71.0555V88.4119H345.986C351.324 88.4119 354.386 85.2368 354.386 79.6497C354.386 74.2001 351.293 71.0555 345.986 71.0555H339.186ZM342.525 73.849H345.509C348.955 73.849 350.97 75.9861 350.97 79.6955C350.97 83.5118 349.001 85.6184 345.509 85.6184H342.525V73.849Z" fill="black"/>
<path d="M370.769 85.6184H362.462V80.932H370.308V78.2911H362.462V73.849H370.769V71.0555H359.124V88.4119H370.769V85.6184Z" fill="black"/>
<path d="M379.2 88.4119V81.451H386.645V78.7491H379.2V73.849H387.353V71.0555H375.861V88.4119H379.2Z" fill="black"/>
<path d="M407.506 81.4205V79.2376H400.076V81.7563H404.26L404.245 82.0922C404.183 84.4125 402.368 85.9542 399.722 85.9542C396.599 85.9542 394.63 83.5729 394.63 79.6803C394.63 75.8793 396.553 73.4979 399.599 73.4979C401.845 73.4979 403.429 74.5817 404.029 76.4899H407.368C406.814 72.9331 403.752 70.6128 399.599 70.6128C394.476 70.6128 391.214 74.1543 391.214 79.7108C391.214 85.3589 394.46 88.8546 399.66 88.8546C404.46 88.8546 407.506 85.9695 407.506 81.4205Z" fill="black"/>
<path d="M427.49 88.4119V71.0555H424.151V78.1843H415.629V71.0555H412.29V88.4119H415.629V80.9931H424.151V88.4119H427.49Z" fill="black"/>
<path d="M436.366 88.4119V71.0555H433.028V88.4119H436.366Z" fill="black"/>
<path d="M440.658 83.5729C440.658 86.7938 442.997 88.8546 446.489 88.8546C450.119 88.8546 452.319 86.7786 452.319 83.176V71.0555H448.981V83.1455C448.981 84.962 448.073 85.9237 446.442 85.9237C444.935 85.9237 443.95 84.9925 443.904 83.5729H440.658Z" fill="black"/>
<path d="M461.165 88.4119V82.9623L463.026 80.8557L468.564 88.4119H472.61L465.426 78.6422L472.103 71.0555H468.303L461.38 78.9628H461.165V71.0555H457.827V88.4119H461.165Z" fill="black"/>
<path d="M488.071 85.5573H479.933V71.0555H476.595V88.4119H488.071V85.5573Z" fill="black"/>
<path d="M511.208 88.4119V71.0555H507.301L502.024 83.405H501.809L496.548 71.0555H492.625V88.4119H495.732V76.383H495.902L500.747 87.6334H503.086L507.916 76.383H508.116V88.4119H511.208Z" fill="black"/>
<path d="M284.866 125.754V114.213H285.081L293.712 125.754H296.558V108.397H293.358V119.892H293.142L284.528 108.397H281.651V125.754H284.866Z" fill="black"/>
<path d="M309.834 107.955C304.619 107.955 301.311 111.45 301.311 117.068C301.311 122.686 304.557 126.196 309.834 126.196C315.049 126.196 318.295 122.686 318.295 117.068C318.295 111.466 315.049 107.955 309.834 107.955ZM309.834 110.84C312.926 110.84 314.895 113.267 314.895 117.068C314.895 120.869 312.941 123.311 309.834 123.311C306.665 123.311 304.727 120.869 304.727 117.068C304.727 113.267 306.711 110.84 309.834 110.84Z" fill="black"/>
<path d="M323.064 108.397V125.754H326.402V120.152H330.187C333.848 120.152 336.386 117.785 336.386 114.29C336.386 110.763 333.94 108.397 330.341 108.397H323.064ZM326.402 111.115H329.448C331.725 111.115 333.017 112.229 333.017 114.305C333.017 116.335 331.694 117.465 329.448 117.465H326.402V111.115Z" fill="black"/>
<path d="M356.57 127.525L354.339 124.304C356.201 122.808 357.247 120.289 357.247 117.068C357.247 111.45 353.955 107.955 348.786 107.955C343.571 107.955 340.263 111.435 340.263 117.068C340.263 122.731 343.54 126.196 348.786 126.196C349.909 126.196 350.97 126.029 351.909 125.723L353.247 127.525H356.57ZM348.786 123.311C345.663 123.311 343.694 120.915 343.694 117.068C343.694 113.252 345.663 110.84 348.786 110.84C351.847 110.84 353.847 113.267 353.847 117.068C353.847 118.991 353.309 120.533 352.324 121.434L351.278 120.182H348.109L350.232 123.113C349.77 123.235 349.278 123.311 348.786 123.311Z" fill="black"/>
<path d="M365.354 119.312H368.785L372.231 125.754H376.031L372.169 118.793C374.277 118.045 375.508 116.137 375.508 113.862C375.508 110.489 373.138 108.397 369.339 108.397H362.016V125.754H365.354V119.312ZM365.354 111.069H368.877C370.846 111.069 372.092 112.153 372.092 113.923C372.092 115.709 370.939 116.747 368.939 116.747H365.354V111.069Z" fill="black"/>
<path d="M379.661 121.006C379.83 124.181 382.538 126.196 386.676 126.196C391.061 126.196 393.768 124.075 393.768 120.655C393.768 117.999 392.245 116.518 388.615 115.74L386.538 115.297C384.353 114.824 383.461 114.152 383.461 113.007C383.461 111.573 384.799 110.657 386.799 110.657C388.722 110.657 390.091 111.603 390.291 113.084H393.476C393.353 110.061 390.599 107.955 386.799 107.955C382.769 107.955 380.107 110.061 380.107 113.252C380.107 115.862 381.646 117.45 384.892 118.152L387.215 118.656C389.476 119.159 390.43 119.861 390.43 121.067C390.43 122.487 388.953 123.495 386.876 123.495C384.661 123.495 383.107 122.518 382.907 121.006H379.661Z" fill="black"/>
<path d="M406.229 125.754V111.191H411.706V108.397H397.414V111.191H402.891V125.754H406.229Z" fill="black"/>
<path d="M419.552 108.397H416.213V119.77C416.213 123.586 419.059 126.196 423.597 126.196C428.136 126.196 430.982 123.586 430.982 119.77V108.397H427.643V119.465C427.643 121.754 426.182 123.281 423.597 123.281C421.013 123.281 419.552 121.754 419.552 119.465V108.397Z" fill="black"/>
<path d="M445.304 125.754L451.442 108.397H447.873L443.55 121.999H443.32L438.935 108.397H435.228L441.412 125.754H445.304Z" fill="black"/>
<path d="M466.011 113.694H466.195L469.78 125.754H472.918L477.687 108.397H474.226L471.257 121.113H471.072L467.565 108.397H464.642L461.196 121.113H461.011L458.011 108.397H454.534L459.319 125.754H462.457L466.011 113.694Z" fill="black"/>
<path d="M480.995 125.754H484.641L488.748 119.617H488.979L493.04 125.754H496.886L491.025 117.068L496.978 108.397H493.24L489.194 114.687H488.979L484.994 108.397H481.041L486.825 117.007L480.995 125.754Z" fill="black"/>
<path d="M509.685 125.754V119.098L515.947 108.397H512.285L508.132 115.77H507.916L503.732 108.397H500.086L506.347 119.098V125.754H509.685Z" fill="black"/>
<path d="M519.639 125.754H533.284V122.96H523.777V122.731L533.038 110.611V108.397H519.885V111.191H528.931V111.42L519.639 123.54V125.754Z" fill="black"/>
<path d="M314.891 29.8036V0H308.292L299.38 21.2059H299.016L290.13 0H283.505V29.8036H288.753V9.14815H289.039L297.223 28.4667H301.173L309.331 9.14815H309.669V29.8036H314.891Z" fill="black"/>
<path d="M343.862 25.0067H329.831V16.9595H343.082V12.4247H329.831V4.79688H343.862V0H324.193V29.8036H343.862V25.0067Z" fill="black"/>
<path d="M352.462 0V29.8036H363.946C372.962 29.8036 378.132 24.3514 378.132 14.7576C378.132 5.39977 372.91 0 363.946 0H352.462ZM358.1 4.79688H363.14C368.96 4.79688 372.364 8.46662 372.364 14.8363C372.364 21.3894 369.038 25.0067 363.14 25.0067H358.1V4.79688Z" fill="black"/>
<path d="M391.773 29.8036V0H386.135V29.8036H391.773Z" fill="black"/>
<path d="M406.816 0H401.178V19.5283C401.178 26.0814 405.985 30.5637 413.65 30.5637C421.314 30.5637 426.121 26.0814 426.121 19.5283V0H420.483V19.004C420.483 22.9359 418.015 25.5571 413.65 25.5571C409.285 25.5571 406.816 22.9359 406.816 19.004V0Z" fill="black"/>
<path d="M466.887 29.8036V0H460.288L451.376 21.2059H451.012L442.126 0H435.501V29.8036H440.749V9.14815H441.035L449.219 28.4667H453.169L461.327 9.14815H461.665V29.8036H466.887Z" fill="black"/>
<path d="M285.903 170.596C288.093 170.596 289.916 169.643 290.911 167.954H291.172V170.319H294.342V158.906C294.342 155.404 291.984 153.315 287.802 153.315C284.019 153.315 281.323 155.143 280.986 157.954H284.172C284.54 156.741 285.811 156.049 287.649 156.049C289.901 156.049 291.065 157.078 291.065 158.906V160.366L286.546 160.642C282.579 160.888 280.343 162.624 280.343 165.619C280.343 168.66 282.687 170.596 285.903 170.596ZM286.745 167.938C284.953 167.938 283.651 167.032 283.651 165.481C283.651 163.96 284.693 163.146 286.99 162.992L291.065 162.716V164.16C291.065 166.31 289.227 167.938 286.745 167.938Z" fill="black"/>
<path d="M307.867 170.596C312.079 170.596 314.759 167.232 314.759 161.978C314.759 156.679 312.094 153.346 307.867 153.346C305.584 153.346 303.624 154.467 302.736 156.28H302.475V147.094H299.182V170.319H302.353V167.677H302.598C303.593 169.52 305.539 170.596 307.867 170.596ZM306.917 156.172C309.705 156.172 311.374 158.369 311.374 161.978C311.374 165.588 309.705 167.769 306.917 167.769C304.145 167.769 302.429 165.557 302.414 161.978C302.429 158.399 304.16 156.172 306.917 156.172Z" fill="black"/>
<path d="M332.848 158.998C332.419 155.757 329.892 153.315 325.71 153.315C320.855 153.315 317.899 156.618 317.899 161.917C317.899 167.324 320.87 170.642 325.725 170.642C329.846 170.642 332.419 168.322 332.848 165.035H329.646C329.218 166.848 327.793 167.831 325.71 167.831C322.969 167.831 321.268 165.603 321.268 161.917C321.268 158.307 322.953 156.126 325.71 156.126C327.916 156.126 329.264 157.37 329.646 158.998H332.848Z" fill="black"/>
<path d="M342.711 170.596C345.009 170.596 346.954 169.505 347.95 167.677H348.21V170.319H351.365V147.094H348.072V156.28H347.827C346.923 154.452 344.993 153.346 342.711 153.346C338.499 153.346 335.788 156.71 335.788 161.963C335.788 167.247 338.469 170.596 342.711 170.596ZM343.646 156.172C346.403 156.172 348.133 158.415 348.133 161.978C348.133 165.573 346.418 167.769 343.646 167.769C340.858 167.769 339.189 165.603 339.189 161.978C339.189 158.369 340.873 156.172 343.646 156.172Z" fill="black"/>
<path d="M367.248 165.849C366.635 167.201 365.272 167.938 363.281 167.938C360.647 167.938 358.947 166.034 358.839 163.008V162.854H370.618V161.717C370.618 156.495 367.815 153.315 363.174 153.315C358.472 153.315 355.485 156.71 355.485 162.009C355.485 167.339 358.411 170.642 363.189 170.642C367.003 170.642 369.699 168.798 370.419 165.849H367.248ZM363.159 156.003C365.594 156.003 367.187 157.77 367.263 160.473H358.839C359.023 157.785 360.723 156.003 363.159 156.003Z" fill="black"/>
<path d="M375.749 170.319H379.042V156.326H382.718V153.684H378.996V152.04C378.996 150.351 379.746 149.506 381.584 149.506C382.105 149.506 382.549 149.536 382.856 149.583V147.094C382.289 147.002 381.646 146.941 380.895 146.941C377.434 146.941 375.749 148.569 375.749 151.887V153.684H373.007V156.326H375.749V170.319Z" fill="black"/>
<path d="M392.842 176.694C397.559 176.694 400.546 174.282 400.546 170.488V153.638H397.391V156.295H397.13C396.196 154.483 394.19 153.346 391.892 153.346C387.634 153.346 384.969 156.71 384.969 161.763C384.969 166.771 387.604 170.073 391.862 170.073C394.159 170.073 395.997 169.075 397.008 167.262H397.253V170.473C397.253 172.731 395.629 174.082 392.888 174.082C390.667 174.082 389.273 173.284 388.997 172.024H385.628C385.98 174.835 388.676 176.694 392.842 176.694ZM392.796 167.339C389.962 167.339 388.369 165.173 388.369 161.763C388.369 158.353 389.962 156.172 392.796 156.172C395.599 156.172 397.314 158.353 397.314 161.763C397.314 165.173 395.614 167.339 392.796 167.339Z" fill="black"/>
<path d="M405.478 170.319H408.771V160.55C408.771 157.939 410.272 156.203 412.967 156.203C415.296 156.203 416.536 157.57 416.536 160.319V170.319H419.829V159.536C419.829 155.588 417.639 153.33 414.086 153.33C411.574 153.33 409.812 154.436 409.001 156.295H408.74V147.094H405.478V170.319Z" fill="black"/>
<path d="M426.17 150.658C427.319 150.658 428.253 149.721 428.253 148.584C428.253 147.432 427.319 146.495 426.17 146.495C425.021 146.495 424.087 147.432 424.087 148.584C424.087 149.721 425.021 150.658 426.17 150.658ZM424.531 170.319H427.809V153.638H424.531V170.319Z" fill="black"/>
<path d="M434.38 150.658C435.513 150.658 436.463 149.721 436.463 148.584C436.463 147.432 435.513 146.495 434.38 146.495C433.231 146.495 432.297 147.432 432.297 148.584C432.297 149.721 433.231 150.658 434.38 150.658ZM435.988 153.638H432.71V171.026C432.71 172.7 432.098 173.376 430.336 173.376C430.29 173.376 429.923 173.376 429.877 173.376V176.018C429.953 176.018 430.489 176.033 430.612 176.033C434.227 176.033 435.988 174.466 435.988 171.041V153.638Z" fill="black"/>
<path d="M444.534 160.673H444.274V147.094H440.981V170.319H444.274V164.252L445.729 162.854L451.457 170.319H455.501L448.18 160.78L455.042 153.638H451.151L444.534 160.673Z" fill="black"/>
<path d="M458.687 170.319H461.98V147.094H458.687V170.319Z" fill="black"/>
<path d="M466.927 170.319H470.22V160.074C470.22 157.893 471.736 156.188 473.743 156.188C475.703 156.188 476.959 157.37 476.959 159.275V170.319H480.191V159.767C480.191 157.754 481.585 156.188 483.714 156.188C485.873 156.188 486.945 157.309 486.945 159.613V170.319H490.239V158.814C490.239 155.343 488.278 153.315 484.908 153.315C482.596 153.315 480.681 154.498 479.839 156.295H479.578C478.843 154.498 477.266 153.315 474.983 153.315C472.763 153.315 471.078 154.421 470.343 156.295H470.098V153.638H466.927V170.319Z" fill="black"/>
<path d="M281.293 207.894H284.586V198.11C284.586 195.421 286.133 193.763 288.568 193.763C291.003 193.763 292.167 195.114 292.167 197.879V207.894H295.46V197.096C295.46 193.117 293.408 190.89 289.686 190.89C287.174 190.89 285.52 192.011 284.708 193.855H284.463V191.213H281.293V207.894Z" fill="black"/>
<path d="M307.147 208.217C312.017 208.217 315.004 204.945 315.004 199.553C315.004 194.162 312.002 190.89 307.147 190.89C302.276 190.89 299.274 194.177 299.274 199.553C299.274 204.945 302.261 208.217 307.147 208.217ZM307.147 205.406C304.283 205.406 302.674 203.271 302.674 199.553C302.674 195.836 304.283 193.686 307.147 193.686C309.996 193.686 311.619 195.836 311.619 199.553C311.619 203.255 309.996 205.406 307.147 205.406Z" fill="black"/>
<path d="M327.625 190.921C325.358 190.921 323.397 192.073 322.387 193.978H322.141V191.213H318.971V213.455H322.264V205.375H322.524C323.397 207.141 325.281 208.171 327.655 208.171C331.867 208.171 334.548 204.822 334.548 199.553C334.548 194.254 331.867 190.921 327.625 190.921ZM326.69 205.344C323.933 205.344 322.203 203.117 322.203 199.553C322.203 195.974 323.933 193.747 326.706 193.747C329.493 193.747 331.163 195.928 331.163 199.553C331.163 203.178 329.493 205.344 326.69 205.344Z" fill="black"/>
<path d="M344.595 190.921C340.383 190.921 337.688 194.3 337.688 199.538C337.688 204.837 340.337 208.171 344.565 208.171C346.923 208.171 348.685 207.188 349.696 205.375H349.956V213.455H353.264V191.213H350.078V193.978H349.818C348.869 192.119 346.862 190.921 344.595 190.921ZM345.499 205.344C342.727 205.344 341.088 203.194 341.088 199.553C341.088 195.928 342.742 193.747 345.514 193.747C348.286 193.747 350.017 195.99 350.017 199.553C350.017 203.132 348.302 205.344 345.499 205.344Z" fill="black"/>
<path d="M358.058 207.894H361.351V197.925C361.351 195.575 363.113 193.962 365.609 193.962C366.191 193.962 367.172 194.07 367.447 194.147V191.044C367.095 190.967 366.467 190.921 365.977 190.921C363.802 190.921 361.949 192.104 361.474 193.747H361.229V191.213H358.058V207.894Z" fill="black"/>
<path d="M369.898 195.882C369.898 198.355 371.368 199.768 374.539 200.506L377.449 201.197C379.118 201.596 379.899 202.272 379.899 203.317C379.899 204.684 378.444 205.636 376.392 205.636C374.401 205.636 373.176 204.822 372.762 203.516H369.469C369.76 206.419 372.348 208.217 376.315 208.217C380.298 208.217 383.223 206.112 383.223 203.009C383.223 200.583 381.737 199.215 378.567 198.478L375.795 197.833C373.987 197.403 373.145 196.758 373.145 195.729C373.145 194.377 374.539 193.471 376.377 193.471C378.245 193.471 379.44 194.285 379.746 195.529H382.901C382.58 192.641 380.129 190.89 376.377 190.89C372.609 190.89 369.898 192.979 369.898 195.882Z" fill="black"/>
<path d="M388.232 187.004V191.259H385.582V193.901H388.232V203.501C388.232 206.711 389.687 208.002 393.347 208.002C393.991 208.002 394.603 207.925 395.139 207.833V205.206C394.68 205.252 394.389 205.283 393.883 205.283C392.244 205.283 391.525 204.499 391.525 202.702V193.901H395.139V191.259H391.525V187.004H388.232Z" fill="black"/>
<path d="M413.075 191.213H409.782V200.997C409.782 203.685 408.327 205.314 405.662 205.314C403.242 205.314 402.154 203.993 402.154 201.228V191.213H398.861V202.042C398.861 205.959 400.914 208.217 404.605 208.217C407.132 208.217 408.832 207.141 409.644 205.252H409.904V207.894H413.075V191.213Z" fill="black"/>
<path d="M431.975 191.213H428.483L424.348 204.515H424.087L419.936 191.213H416.414L422.433 207.894H425.971L431.975 191.213Z" fill="black"/>
<path d="M457.033 191.213H453.74L450.768 204.085H450.508L447.077 191.213H443.922L440.491 204.085H440.246L437.259 191.213H433.92L438.515 207.894H441.9L445.331 195.452H445.591L449.038 207.894H452.453L457.033 191.213Z" fill="black"/>
<path d="M466.651 201.919L470.297 207.925H474.08L468.52 199.492L474.018 191.243H470.343L466.789 197.203H466.529L462.945 191.243H459.1L464.676 199.615L459.146 207.925H462.761L466.406 201.919H466.651Z" fill="black"/>
<path d="M479.18 213.946C482.58 213.946 484.158 212.671 485.582 208.662L491.801 191.213H488.309L484.143 204.576H483.882L479.701 191.213H476.117L482.151 207.94L481.906 208.8C481.34 210.567 480.451 211.227 478.889 211.227C478.583 211.227 478.077 211.212 477.817 211.166V213.869C478.123 213.915 478.904 213.946 479.18 213.946Z" fill="black"/>
<path d="M494.787 207.894H507.99V205.237H498.923V204.976L507.898 193.501V191.213H494.849V193.87H503.962V194.116L494.787 205.728V207.894Z" fill="black"/>
<path d="M600.88 89.563H605.022L598.81 72.1243H594.285L588.088 89.563H591.923L593.288 85.4131H599.531L600.88 89.563ZM596.325 75.7555H596.54L598.733 82.5906H594.101L596.325 75.7555Z" fill="black"/>
<path d="M617.216 89.563C621.05 89.563 623.443 87.6254 623.443 84.5587C623.443 82.3312 621.694 80.5919 619.317 80.4241V80.2105C621.173 79.9359 622.569 78.3339 622.569 76.4726C622.569 73.7873 620.498 72.1243 617.016 72.1243H609.117V89.563H617.216ZM612.952 74.9316H616.019C617.783 74.9316 618.811 75.7555 618.811 77.1439C618.811 78.5475 617.722 79.3561 615.728 79.3561H612.952V74.9316ZM612.952 86.7557V81.8277H616.142C618.335 81.8277 619.516 82.6669 619.516 84.2536C619.516 85.8861 618.366 86.7557 616.219 86.7557H612.952Z" fill="black"/>
<path d="M635.499 90.0207C639.855 90.0207 643.03 87.4118 643.321 83.6281H639.609C639.241 85.5352 637.631 86.771 635.514 86.771C632.707 86.771 630.974 84.4977 630.974 80.836C630.974 77.1744 632.707 74.9164 635.499 74.9164C637.615 74.9164 639.226 76.2437 639.579 78.2271H643.306C643.045 74.4281 639.778 71.6666 635.499 71.6666C630.268 71.6666 627.063 75.1605 627.063 80.836C627.063 86.5269 630.284 90.0207 635.499 90.0207Z" fill="black"/>
<path d="M647.8 72.1243V89.563H654.902C660.285 89.563 663.307 86.3896 663.307 80.7292C663.307 75.252 660.239 72.1243 654.902 72.1243H647.8ZM651.635 75.252H654.288C657.509 75.252 659.411 77.2659 659.411 80.775C659.411 84.4519 657.571 86.4353 654.288 86.4353H651.635V75.252Z" fill="black"/>
<path d="M679.811 86.4353H671.728V82.2092H679.366V79.2951H671.728V75.2673H679.811V72.1243H667.893V89.563H679.811V86.4353Z" fill="black"/>
<path d="M688.631 89.563V82.7737H695.886V79.7833H688.631V75.2673H696.591V72.1243H684.796V89.563H688.631Z" fill="black"/>
<path d="M716.884 82.438V80.2258H709.337V82.972H713.172L713.156 83.2924C713.064 85.3826 711.393 86.771 708.984 86.771C706.055 86.771 704.199 84.513 704.199 80.7903C704.199 77.1439 705.963 74.9164 708.816 74.9164C710.886 74.9164 712.374 75.9386 712.911 77.6931H716.715C716.209 74.0772 713.064 71.6666 708.816 71.6666C703.585 71.6666 700.288 75.2062 700.288 80.836C700.288 86.5269 703.57 90.0207 708.908 90.0207C713.816 90.0207 716.884 87.1066 716.884 82.438Z" fill="black"/>
<path d="M737.13 89.563V72.1243H733.311V79.1578H725.32V72.1243H721.485V89.563H725.32V82.2855H733.311V89.563H737.13Z" fill="black"/>
<path d="M746.364 89.563V72.1243H742.529V89.563H746.364Z" fill="black"/>
<path d="M750.49 84.4214C750.49 87.8542 752.929 90.0207 756.64 90.0207C760.46 90.0207 762.776 87.9 762.776 84.1468V72.1243H758.941V84.1163C758.941 85.8251 758.113 86.7405 756.579 86.7405C755.153 86.7405 754.232 85.8251 754.202 84.4214H750.49Z" fill="black"/>
<path d="M771.979 89.563V84.3299L773.727 82.2855L778.866 89.563H783.452L776.503 79.7833L783.007 72.1243H778.758L772.193 79.8901H771.979V72.1243H768.144V89.563H771.979Z" fill="black"/>
<path d="M799.097 86.3591H791.151V72.1243H787.317V89.563H799.097V86.3591Z" fill="black"/>
<path d="M822.61 89.563V72.1243H818.101L813.177 83.7959H812.962L808.054 72.1243H803.545V89.563H807.103V77.9372H807.287L811.812 88.5408H814.343L818.852 77.9372H819.052V89.563H822.61Z" fill="black"/>
<path d="M593.012 126.885V116.022H593.257L601.448 126.885H604.608V109.446H600.942V120.263H600.727L592.552 109.446H589.361V126.885H593.012Z" fill="black"/>
<path d="M617.844 108.988C612.553 108.988 609.178 112.513 609.178 118.173C609.178 123.818 612.491 127.343 617.844 127.343C623.136 127.343 626.465 123.818 626.465 118.173C626.465 112.513 623.136 108.988 617.844 108.988ZM617.844 112.223C620.713 112.223 622.553 114.527 622.553 118.173C622.553 121.789 620.713 124.108 617.844 124.108C614.915 124.108 613.09 121.789 613.09 118.173C613.09 114.527 614.961 112.223 617.844 112.223Z" fill="black"/>
<path d="M631.051 109.446V126.885H634.885V121.484H638.367C642.171 121.484 644.794 119.089 644.794 115.488C644.794 111.857 642.278 109.446 638.566 109.446H631.051ZM634.885 112.467H637.554C639.686 112.467 640.913 113.52 640.913 115.503C640.913 117.441 639.671 118.509 637.539 118.509H634.885V112.467Z" fill="black"/>
<path d="M665.209 128.578L663 125.298C664.795 123.772 665.792 121.301 665.792 118.158C665.792 112.513 662.433 108.988 657.172 108.988C651.88 108.988 648.506 112.498 648.506 118.158C648.506 123.864 651.834 127.343 657.172 127.343C658.291 127.343 659.35 127.175 660.285 126.87L661.528 128.578H665.209ZM657.172 124.108C654.288 124.108 652.432 121.82 652.432 118.158C652.432 114.527 654.288 112.223 657.172 112.223C660.025 112.223 661.881 114.527 661.881 118.158C661.881 119.821 661.451 121.164 660.654 122.018L659.856 121.057H656.405L658.43 123.956C658.031 124.047 657.601 124.108 657.172 124.108Z" fill="black"/>
<path d="M674.213 120.568H677.219L680.517 126.885H684.857L681.099 119.989C683.155 119.211 684.336 117.273 684.336 115.061C684.336 111.582 681.897 109.446 677.94 109.446H670.378V126.885H674.213V120.568ZM674.213 112.406H677.403C679.244 112.406 680.425 113.459 680.425 115.107C680.425 116.785 679.32 117.761 677.449 117.761H674.213V112.406Z" fill="black"/>
<path d="M688.354 122.033C688.477 125.298 691.253 127.343 695.563 127.343C700.073 127.343 702.849 125.176 702.849 121.652C702.849 118.951 701.3 117.441 697.695 116.693L695.517 116.266C693.447 115.839 692.588 115.213 692.588 114.145C692.588 112.818 693.815 111.979 695.671 111.979C697.465 111.979 698.769 112.894 698.938 114.267H702.527C702.435 111.155 699.613 108.988 695.64 108.988C691.483 108.988 688.753 111.17 688.753 114.45C688.753 117.12 690.364 118.783 693.631 119.439L695.978 119.928C698.156 120.385 699.03 121.011 699.03 122.125C699.03 123.437 697.68 124.352 695.748 124.352C693.662 124.352 692.204 123.452 692.036 122.033H688.354Z" fill="black"/>
<path d="M715.595 126.885V112.589H720.964V109.446H706.408V112.589H711.761V126.885H715.595Z" fill="black"/>
<path d="M729.154 109.446H725.32V120.874C725.32 124.734 728.265 127.343 732.851 127.343C737.452 127.343 740.382 124.734 740.382 120.874V109.446H736.547V120.492C736.547 122.689 735.213 124.078 732.851 124.078C730.489 124.078 729.154 122.689 729.154 120.492V109.446Z" fill="black"/>
<path d="M755.199 126.885L761.15 109.446H757.024L753.082 122.765H752.852L748.833 109.446H744.508L750.551 126.885H755.199Z" fill="black"/>
<path d="M775.829 115.381H776.028L779.387 126.885H782.976L787.716 109.446H783.758L781.028 121.713H780.829L777.531 109.446H774.31L771.089 121.713H770.89L768.129 109.446H764.141L768.896 126.885H772.516L775.829 115.381Z" fill="black"/>
<path d="M790.937 126.885H795.063L798.913 120.996H799.143L802.962 126.885H807.318L801.505 118.158L807.395 109.446H803.115L799.373 115.534H799.158L795.477 109.446H790.952L796.643 118.097L790.937 126.885Z" fill="black"/>
<path d="M820.478 126.885V120.492L826.721 109.446H822.58L818.684 116.739H818.454L814.542 109.446H810.401L816.644 120.492V126.885H820.478Z" fill="black"/>
<path d="M830.325 126.885H844.191V123.757H835.004V123.528L843.93 111.918V109.446H830.509V112.589H839.283V112.803L830.325 124.413V126.885Z" fill="black"/>
<path d="M604.033 30.8292C610.585 30.8292 614.673 27.4913 614.673 22.2086C614.673 18.3714 611.686 15.3752 607.624 15.0861V14.7181C610.795 14.245 613.18 11.4854 613.18 8.27894C613.18 3.65324 609.642 0.78847 603.693 0.78847H590.196V30.8292H604.033ZM596.748 5.62442H601.989C605.003 5.62442 606.759 7.04367 606.759 9.43536C606.759 11.8533 604.898 13.2463 601.491 13.2463H596.748V5.62442ZM596.748 25.9932V17.504H602.199C605.946 17.504 607.964 18.9496 607.964 21.6829C607.964 24.4951 605.999 25.9932 602.33 25.9932H596.748Z" fill="black"/>
<path d="M635.665 0C626.624 0 620.858 6.07122 620.858 15.822C620.858 25.5464 626.519 31.6176 635.665 31.6176C644.706 31.6176 650.393 25.5464 650.393 15.822C650.393 6.07122 644.706 0 635.665 0ZM635.665 5.57185C640.566 5.57185 643.71 9.54049 643.71 15.822C643.71 22.0509 640.566 26.0458 635.665 26.0458C630.659 26.0458 627.541 22.0509 627.541 15.822C627.541 9.54049 630.738 5.57185 635.665 5.57185Z" fill="black"/>
<path d="M678.356 25.3099H664.781V0.78847H658.229V30.8292H678.356V25.3099Z" fill="black"/>
<path d="M685.956 0.78847V30.8292H698.09C707.288 30.8292 712.451 25.3625 712.451 15.6117C712.451 6.17635 707.21 0.78847 698.09 0.78847H685.956ZM692.508 6.17635H697.041C702.545 6.17635 705.794 9.64562 705.794 15.6906C705.794 22.0246 702.65 25.4413 697.041 25.4413H692.508V6.17635Z" fill="black"/>
<path d="M593.634 171.825C595.825 171.825 597.663 170.877 598.597 169.257H598.858V171.55H602.519V160.131C602.519 156.599 600.099 154.52 595.794 154.52C591.811 154.52 589.038 156.385 588.732 159.305H592.316C592.669 158.158 593.864 157.532 595.61 157.532C597.663 157.532 598.766 158.464 598.766 160.131V161.568L594.446 161.827C590.371 162.057 588.088 163.815 588.088 166.811C588.088 169.869 590.401 171.825 593.634 171.825ZM594.752 168.905C593.067 168.905 591.857 168.065 591.857 166.628C591.857 165.236 592.853 164.457 594.982 164.319L598.766 164.059V165.42C598.766 167.407 597.05 168.905 594.752 168.905Z" fill="black"/>
<path d="M616.414 171.825C620.642 171.825 623.292 168.508 623.292 163.203C623.292 157.868 620.657 154.566 616.414 154.566C614.116 154.566 612.186 155.682 611.313 157.501H611.052V148.375H607.253V171.55H610.914V168.905H611.175C612.124 170.74 614.07 171.825 616.414 171.825ZM615.219 157.73C617.808 157.73 619.386 159.794 619.386 163.203C619.386 166.612 617.823 168.676 615.219 168.676C612.615 168.676 610.991 166.582 610.991 163.203C610.991 159.825 612.63 157.73 615.219 157.73Z" fill="black"/>
<path d="M641.584 160.421C641.185 156.966 638.581 154.52 634.276 154.52C629.236 154.52 626.28 157.746 626.28 163.157C626.28 168.63 629.252 171.886 634.292 171.886C638.535 171.886 641.17 169.532 641.584 166.077H637.968C637.57 167.835 636.253 168.768 634.276 168.768C631.687 168.768 630.125 166.704 630.125 163.157C630.125 159.672 631.672 157.623 634.276 157.623C636.36 157.623 637.616 158.801 637.968 160.421H641.584Z" fill="black"/>
<path d="M651.281 171.825C653.609 171.825 655.54 170.74 656.49 168.905H656.75V171.55H660.427V148.375H656.627V157.501H656.367C655.478 155.667 653.579 154.566 651.281 154.566C647.053 154.566 644.387 157.899 644.387 163.188C644.387 168.493 647.037 171.825 651.281 171.825ZM652.461 157.73C655.065 157.73 656.673 159.825 656.673 163.203C656.673 166.597 655.08 168.676 652.461 168.676C649.856 168.676 648.278 166.628 648.278 163.203C648.278 159.794 649.872 157.73 652.461 157.73Z" fill="black"/>
<path d="M676.144 166.979C675.593 168.233 674.291 168.936 672.406 168.936C669.909 168.936 668.301 167.163 668.209 164.335V164.136H679.913V162.928C679.913 157.685 677.048 154.52 672.269 154.52C667.412 154.52 664.394 157.899 664.394 163.264C664.394 168.615 667.366 171.886 672.299 171.886C676.252 171.886 679.055 169.991 679.744 166.979H676.144ZM672.253 157.471C674.536 157.471 676.037 159.076 676.114 161.613H668.224C668.393 159.106 669.986 157.471 672.253 157.471Z" fill="black"/>
<path d="M684.953 171.55H688.737V157.899H692.337V154.948H688.691V153.404C688.691 151.814 689.396 151.019 691.188 151.019C691.724 151.019 692.184 151.065 692.49 151.111V148.375C691.877 148.268 691.188 148.222 690.376 148.222C686.653 148.222 684.953 149.857 684.953 153.19V154.948H682.211V157.899H684.953V171.55Z" fill="black"/>
<path d="M702.601 177.91C707.488 177.91 710.582 175.479 710.582 171.642V154.841H706.921V157.516H706.661C705.741 155.697 703.75 154.566 701.467 154.566C697.193 154.566 694.543 157.899 694.543 163.02C694.543 168.034 697.178 171.306 701.406 171.306C703.735 171.306 705.558 170.327 706.523 168.523H706.783V171.703C706.783 173.828 705.267 175.082 702.662 175.082C700.579 175.082 699.231 174.332 698.986 173.155H695.171C695.477 176.029 698.296 177.91 702.601 177.91ZM702.601 168.294C699.951 168.294 698.449 166.245 698.449 163.005C698.449 159.779 699.951 157.73 702.601 157.73C705.236 157.73 706.844 159.779 706.844 163.02C706.844 166.245 705.251 168.294 702.601 168.294Z" fill="black"/>
<path d="M715.408 171.55H719.207V161.843C719.207 159.397 720.601 157.761 723.098 157.761C725.304 157.761 726.469 159.076 726.469 161.659V171.55H730.268V160.773C730.268 156.798 728.093 154.535 724.508 154.535C722.011 154.535 720.218 155.667 719.422 157.547H719.146V148.375H715.408V171.55Z" fill="black"/>
<path d="M736.702 152.044C737.958 152.044 738.985 151.05 738.985 149.796C738.985 148.558 737.958 147.549 736.702 147.549C735.461 147.549 734.435 148.558 734.435 149.796C734.435 151.05 735.461 152.044 736.702 152.044ZM734.818 171.55H738.602V154.841H734.818V171.55Z" fill="black"/>
<path d="M745.281 152.044C746.522 152.044 747.548 151.05 747.548 149.796C747.548 148.558 746.522 147.549 745.281 147.549C744.025 147.549 742.998 148.558 742.998 149.796C742.998 151.05 744.025 152.044 745.281 152.044ZM747.15 154.841H743.366V172.146C743.366 173.69 742.769 174.317 741.083 174.317C741.007 174.317 740.639 174.317 740.593 174.302V177.222C740.7 177.237 741.313 177.252 741.512 177.252C745.266 177.252 747.15 175.617 747.15 172.192V154.841Z" fill="black"/>
<path d="M756.081 161.69H755.821V148.375H752.022V171.55H755.821V165.68L757.169 164.335L762.546 171.55H767.142L760.003 162.011L766.682 154.841H762.27L756.081 161.69Z" fill="black"/>
<path d="M770.221 171.55H774.02V148.375H770.221V171.55Z" fill="black"/>
<path d="M778.831 171.55H782.63V161.384C782.63 159.305 784.024 157.73 785.908 157.73C787.777 157.73 788.941 158.862 788.941 160.711V171.55H792.633V161.109C792.633 159.198 793.935 157.73 795.912 157.73C797.949 157.73 798.976 158.816 798.976 160.987V171.55H802.759V160.054C802.759 156.584 800.737 154.52 797.382 154.52C795.054 154.52 793.124 155.712 792.296 157.532H792.036C791.331 155.682 789.723 154.52 787.409 154.52C785.188 154.52 783.472 155.651 782.752 157.532H782.492V154.841H778.831V171.55Z" fill="black"/>
<path d="M589.023 208.946H592.822V199.208C592.822 196.701 594.247 195.127 596.514 195.127C598.827 195.127 599.9 196.426 599.9 199.025V208.946H603.699V198.138C603.699 194.163 601.661 191.916 597.923 191.916C595.426 191.916 593.741 193.047 592.945 194.913H592.684V192.237H589.023V208.946Z" fill="black"/>
<path d="M615.433 209.283C620.443 209.283 623.491 206.011 623.491 200.584C623.491 195.188 620.428 191.916 615.433 191.916C610.455 191.916 607.375 195.203 607.375 200.584C607.375 206.011 610.409 209.283 615.433 209.283ZM615.433 206.179C612.783 206.179 611.267 204.131 611.267 200.599C611.267 197.068 612.783 195.02 615.433 195.02C618.068 195.02 619.585 197.068 619.585 200.599C619.585 204.131 618.084 206.179 615.433 206.179Z" fill="black"/>
<path d="M636.452 191.962C634.154 191.962 632.208 193.109 631.243 195.004H630.983V192.237H627.321V214.496H631.121V206.409H631.381C632.239 208.182 634.093 209.221 636.498 209.221C640.726 209.221 643.361 205.904 643.361 200.599C643.361 195.249 640.695 191.962 636.452 191.962ZM635.257 206.072C632.668 206.072 631.059 203.978 631.044 200.599C631.059 197.221 632.683 195.127 635.272 195.127C637.876 195.127 639.454 197.175 639.454 200.599C639.454 204.024 637.892 206.072 635.257 206.072Z" fill="black"/>
<path d="M653.257 191.962C649.029 191.962 646.348 195.31 646.348 200.584C646.348 205.889 648.968 209.221 653.196 209.221C655.57 209.221 657.332 208.212 658.297 206.409H658.558V214.496H662.388V192.237H658.696V195.004H658.435C657.516 193.154 655.524 191.962 653.257 191.962ZM654.391 206.072C651.786 206.072 650.239 204.024 650.239 200.599C650.239 197.175 651.802 195.127 654.406 195.127C656.995 195.127 658.634 197.221 658.634 200.599C658.634 203.993 657.01 206.072 654.391 206.072Z" fill="black"/>
<path d="M667.029 208.946H670.829V199.239C670.829 196.885 672.544 195.356 675.011 195.356C675.654 195.356 676.665 195.463 676.956 195.57V192.115C676.604 192.023 675.93 191.962 675.378 191.962C673.218 191.962 671.411 193.185 670.951 194.836H670.691V192.237H667.029V208.946Z" fill="black"/>
<path d="M679.331 197.007C679.331 199.514 680.847 200.982 684.065 201.715L687.036 202.403C688.63 202.77 689.35 203.382 689.35 204.33C689.35 205.598 688.017 206.47 686.102 206.47C684.202 206.47 683.023 205.705 682.655 204.467H678.902C679.193 207.479 681.828 209.283 686.01 209.283C690.192 209.283 693.149 207.158 693.149 203.963C693.149 201.501 691.663 200.141 688.461 199.407L685.505 198.75C683.819 198.352 683.023 197.756 683.023 196.808C683.023 195.57 684.325 194.729 686.056 194.729C687.833 194.729 688.951 195.493 689.227 196.671H692.797C692.521 193.659 690.024 191.916 686.041 191.916C682.088 191.916 679.331 194.011 679.331 197.007Z" fill="black"/>
<path d="M698.082 188.14V192.344H695.432V195.295H698.082V204.513C698.082 207.739 699.614 209.023 703.459 209.023C704.194 209.023 704.899 208.962 705.45 208.855V205.95C704.991 205.996 704.7 206.026 704.164 206.026C702.57 206.026 701.866 205.277 701.866 203.611V195.295H705.45V192.344H701.866V188.14H698.082Z" fill="black"/>
<path d="M723.834 192.237H720.035V201.975C720.035 204.498 718.686 206.026 716.22 206.026C713.953 206.026 712.896 204.773 712.896 202.174V192.237H709.096V203.091C709.096 207.005 711.241 209.283 714.903 209.283C717.461 209.283 719.1 208.197 719.912 206.286H720.172V208.946H723.834V192.237Z" fill="black"/>
<path d="M743.106 192.237H739.092L735.247 205.231H734.986L731.11 192.237H727.036L732.995 208.946H737.177L743.106 192.237Z" fill="black"/>
<path d="M768.766 192.237H764.982L762.209 204.788H761.948L758.701 192.237H755.07L751.853 204.788H751.593L748.804 192.237H744.975L749.509 208.946H753.462L756.709 196.839H756.97L760.233 208.946H764.231L768.766 192.237Z" fill="black"/>
<path d="M778.601 203.168L782.032 208.977H786.322L780.853 200.523L786.26 192.268H782.078L778.769 198.062H778.509L775.184 192.268H770.772L776.242 200.691L770.818 208.977H774.924L778.34 203.168H778.601Z" fill="black"/>
<path d="M791.515 215C795.268 215 797.061 213.639 798.485 209.527L804.537 192.237H800.523L796.616 205.354H796.356L792.434 192.237H788.267L794.257 209.007L794.058 209.787C793.568 211.362 792.664 211.973 791.055 211.973C790.795 211.973 790.228 211.958 790.014 211.927V214.939C790.259 214.985 791.285 215 791.515 215Z" fill="black"/>
<path d="M807.432 208.946H821.005V205.965H812.288V205.705L820.867 194.775V192.237H807.508V195.218H816.332V195.493L807.432 206.623V208.946Z" fill="black"/>
</svg>
