<svg width="222" height="684" viewBox="0 0 222 684" fill="none" xmlns="http://www.w3.org/2000/svg">
<path d="M10.1365 76.9829H12.3823L7.3201 63.3742H5.06216L0 76.9829H2.17297L3.47189 73.3339H8.83753L10.1365 76.9829ZM6.08187 65.8069H6.23969L8.29126 71.5996H4.0303L6.08187 65.8069Z" fill="black"/>
<path d="M21.499 76.9829C24.4853 76.9829 26.282 75.5257 26.282 73.1291C26.282 71.3467 25.0194 70.0461 23.1257 69.8534V69.6968C24.5096 69.468 25.5779 68.1914 25.5779 66.7704C25.5779 64.6749 23.9997 63.3742 21.3776 63.3742H15.7935V76.9829H21.499ZM17.9057 65.1325H20.892C22.5187 65.1325 23.4656 65.8792 23.4656 67.1437C23.4656 68.4564 22.458 69.1549 20.5157 69.1549H17.9057V65.1325ZM17.9057 75.2246V70.7928H20.9527C23.0286 70.7928 24.109 71.5394 24.109 72.9846C24.109 74.4539 23.065 75.2246 21.0863 75.2246H17.9057Z" fill="black"/>
<path d="M35.775 77.3201C38.8706 77.3201 41.1649 75.5498 41.5534 72.8762H39.4533C39.0527 74.4177 37.6324 75.3932 35.775 75.3932C33.2257 75.3932 31.6355 73.382 31.6355 70.1786C31.6355 66.9751 33.2257 64.9639 35.7629 64.9639C37.6081 64.9639 39.0405 66.0478 39.4411 67.7218H41.5534C41.2014 64.9759 38.822 63.037 35.7629 63.037C31.8782 63.037 29.4746 65.7708 29.4746 70.1786C29.4746 74.5863 31.8904 77.3201 35.775 77.3201Z" fill="black"/>
<path d="M45.3895 63.3742V76.9829H50.4031C54.5791 76.9829 56.9948 74.478 56.9948 70.1424C56.9948 65.8671 54.5548 63.3742 50.4031 63.3742H45.3895ZM47.5017 65.2409H50.1846C53.1102 65.2409 54.834 67.0594 54.834 70.1665C54.834 73.3218 53.1345 75.1162 50.1846 75.1162H47.5017V65.2409Z" fill="black"/>
<path d="M69.7534 75.1162H63.016V70.9493H69.4014V69.1549H63.016V65.2409H69.7534V63.3742H60.9037V76.9829H69.7534V75.1162Z" fill="black"/>
<path d="M75.9809 76.9829V71.3106H82.0143V69.4921H75.9809V65.2409H82.5727V63.3742H73.8687V76.9829H75.9809Z" fill="black"/>
<path d="M98.2811 71.6117V69.9257H92.5513V71.6599H96.2053V71.9609C96.181 74.0083 94.6029 75.3932 92.2843 75.3932C89.6257 75.3932 87.9626 73.3941 87.9626 70.1545C87.9626 66.9751 89.6257 64.9639 92.2357 64.9639C94.178 64.9639 95.5134 65.8792 96.0596 67.5411H98.184C97.7106 64.7953 95.4041 63.037 92.2357 63.037C88.3268 63.037 85.8018 65.843 85.8018 70.1665C85.8018 74.5623 88.3025 77.3201 92.26 77.3201C95.914 77.3201 98.2811 75.0681 98.2811 71.6117Z" fill="black"/>
<path d="M113.723 76.9829V63.3742H111.61V69.1067H104.363V63.3742H102.251V76.9829H104.363V70.9854H111.61V76.9829H113.723Z" fill="black"/>
<path d="M120.339 76.9829V63.3742H118.226V76.9829H120.339Z" fill="black"/>
<path d="M123.871 73.4904C123.871 75.8027 125.595 77.3201 128.108 77.3201C130.766 77.3201 132.381 75.7425 132.381 73.0328V63.3742H130.269V73.0087C130.269 74.5502 129.492 75.3812 128.084 75.3812C126.821 75.3812 125.983 74.6104 125.947 73.4904H123.871Z" fill="black"/>
<path d="M138.985 76.9829V72.4788L140.563 70.7566L145.309 76.9829H147.956L142.056 69.2874L147.495 63.3742H144.97L139.143 69.7811H138.985V63.3742H136.873V76.9829H138.985Z" fill="black"/>
<path d="M159.938 75.0922H153.358V63.3742H151.246V76.9829H159.938V75.0922Z" fill="black"/>
<path d="M177.783 76.9829V63.3742H175.318L170.802 73.8276H170.645L166.141 63.3742H163.676V76.9829H165.643V67.0835H165.764L169.916 76.6216H171.543L175.682 67.0835H175.816V76.9829H177.783Z" fill="black"/>
<path d="M3.13198 106.345V96.5662H3.30194L10.5371 106.345H12.4551V92.7365H10.4035V102.515H10.2457L3.01059 92.7365H1.08041V106.345H3.13198Z" fill="black"/>
<path d="M22.9193 92.3993C18.9133 92.3993 16.3883 95.1451 16.3883 99.5408C16.3883 103.912 18.8526 106.682 22.9193 106.682C26.9496 106.682 29.4139 103.912 29.4139 99.5408C29.4139 95.1571 26.9375 92.3993 22.9193 92.3993ZM22.9193 94.3262C25.59 94.3262 27.2531 96.3494 27.2531 99.5408C27.2531 102.708 25.6021 104.756 22.9193 104.756C20.1879 104.756 18.5491 102.708 18.5491 99.5408C18.5491 96.3494 20.2365 94.3262 22.9193 94.3262Z" fill="black"/>
<path d="M33.3471 92.7365V106.345H35.4594V101.733H38.737C41.4684 101.733 43.3865 99.9021 43.3865 97.2526C43.3865 94.567 41.517 92.7365 38.7977 92.7365H33.3471ZM35.4594 94.567H38.2393C40.1695 94.567 41.2378 95.5184 41.2378 97.2647C41.2378 98.9507 40.1331 99.9142 38.2393 99.9142H35.4594V94.567Z" fill="black"/>
<path d="M59.01 107.802L57.2497 105.346C58.7793 104.202 59.6412 102.154 59.6412 99.5408C59.6412 95.1451 57.1283 92.3993 53.1466 92.3993C49.1406 92.3993 46.6156 95.1331 46.6156 99.5408C46.6156 103.973 49.1042 106.682 53.1466 106.682C54.0328 106.682 54.8825 106.538 55.6231 106.285L56.7763 107.802H59.01ZM53.1466 104.756C50.4638 104.756 48.7885 102.756 48.7885 99.5408C48.7885 96.3374 50.4638 94.3262 53.1466 94.3262C55.793 94.3262 57.4804 96.3494 57.4804 99.5408C57.4804 101.323 56.9463 102.732 55.9872 103.515L54.9068 102.202H52.7217L54.4941 104.575C54.0571 104.695 53.6079 104.756 53.1466 104.756Z" fill="black"/>
<path d="M65.6867 101.131H68.8065L71.6714 106.345H74.1115L70.9673 100.793C72.679 100.227 73.6987 98.746 73.6987 96.9154C73.6987 94.3623 71.8899 92.7365 69.0736 92.7365H63.5744V106.345H65.6867V101.131ZM65.6867 94.5429H68.7944C70.4818 94.5429 71.5258 95.4582 71.5258 96.9636C71.5258 98.4931 70.5546 99.3602 68.8551 99.3602H65.6867V94.5429Z" fill="black"/>
<path d="M77.1221 102.708C77.2799 105.129 79.3557 106.682 82.4391 106.682C85.7411 106.682 87.8048 105.045 87.8048 102.455C87.8048 100.42 86.6273 99.2879 83.7502 98.6256L82.2206 98.2643C80.3876 97.8428 79.6471 97.2767 79.6471 96.3012C79.6471 95.0488 80.8003 94.2419 82.5363 94.2419C84.1751 94.2419 85.3162 95.0247 85.5226 96.3012H87.5863C87.4649 94.013 85.389 92.3993 82.5727 92.3993C79.5257 92.3993 77.4984 94.013 77.4984 96.4217C77.4984 98.4088 78.6395 99.589 81.1766 100.179L82.9854 100.601C84.8428 101.034 85.6561 101.672 85.6561 102.72C85.6561 103.949 84.3693 104.84 82.597 104.84C80.7153 104.84 79.4043 104.009 79.21 102.708H77.1221Z" fill="black"/>
<path d="M97.2979 106.345V94.6032H101.717V92.7365H90.779V94.6032H95.1856V106.345H97.2979Z" fill="black"/>
<path d="M107.507 92.7365H105.395V101.66C105.395 104.611 107.544 106.682 111.052 106.682C114.548 106.682 116.697 104.611 116.697 101.66V92.7365H114.584V101.48C114.584 103.407 113.298 104.743 111.052 104.743C108.794 104.743 107.507 103.407 107.507 101.48V92.7365Z" fill="black"/>
<path d="M127.464 106.345L132.478 92.7365H130.232L126.433 103.768H126.263L122.439 92.7365H120.156L125.182 106.345H127.464Z" fill="black"/>
<path d="M143.792 96.2651H143.913L146.96 106.345H148.951L152.727 92.7365H150.529L147.944 103.238H147.81L144.848 92.7365H142.857L139.907 103.238H139.786L137.188 92.7365H134.979L138.766 106.345H140.757L143.792 96.2651Z" fill="black"/>
<path d="M155.422 106.345H157.777L161.285 101.263H161.455L164.915 106.345H167.391L162.717 99.5529L167.488 92.7365H165.097L161.601 97.903H161.443L157.995 92.7365H155.47L160.12 99.4927L155.422 106.345Z" fill="black"/>
<path d="M177.054 106.345V100.817L181.995 92.7365H179.64L176.083 98.6496H175.925L172.356 92.7365H170.001L174.942 100.817V106.345H177.054Z" fill="black"/>
<path d="M185.018 106.345H195.506V104.479H187.713V104.31L195.324 94.2178V92.7365H185.248V94.6032H192.666V94.7718L185.018 104.864V106.345Z" fill="black"/>
<path d="M6.46782 15.0786H11.9728L17.0279 24.0843H21.3334L15.7856 14.4963C18.8058 13.5188 20.6051 10.9606 20.6051 7.79927C20.6051 3.39005 17.4135 0.582289 12.444 0.582289H2.74072V24.0843H6.46782V15.0786ZM6.46782 3.70202H11.9514C14.9288 3.70202 16.7709 5.28268 16.7709 7.88246C16.7709 10.5238 15.0573 12.0213 12.0585 12.0213H6.46782V3.70202Z" fill="black"/>
<path d="M38.3195 -6.10352e-05C31.2509 -6.10352e-05 26.7955 4.74193 26.7955 12.3333C26.7955 19.883 31.1438 24.6666 38.3195 24.6666C45.431 24.6666 49.7793 19.883 49.7793 12.3333C49.7793 4.76273 45.4096 -6.10352e-05 38.3195 -6.10352e-05ZM38.3195 3.32765C43.0319 3.32765 45.9665 6.82175 45.9665 12.3333C45.9665 17.8032 43.0534 21.3389 38.3195 21.3389C33.5 21.3389 30.6083 17.8032 30.6083 12.3333C30.6083 6.82175 33.5857 3.32765 38.3195 3.32765Z" fill="black"/>
<path d="M66.7868 24.0843C72.0562 24.0843 75.2264 21.5677 75.2264 17.4288C75.2264 14.3507 72.9987 12.1045 69.6571 11.7717V11.5013C72.099 11.1062 73.984 8.90157 73.984 6.44738C73.984 2.82849 71.1994 0.582289 66.5726 0.582289H56.7194V24.0843H66.7868ZM60.4465 3.61883H65.7158C68.5861 3.61883 70.2569 4.90831 70.2569 7.09213C70.2569 9.35913 68.479 10.5654 65.0518 10.5654H60.4465V3.61883ZM60.4465 21.0477V13.394H65.8229C69.4858 13.394 71.3922 14.6835 71.3922 17.1793C71.3922 19.7166 69.55 21.0477 66.0585 21.0477H60.4465Z" fill="black"/>
<path d="M92.3839 -6.10352e-05C85.3152 -6.10352e-05 80.8598 4.74193 80.8598 12.3333C80.8598 19.883 85.2081 24.6666 92.3839 24.6666C99.4953 24.6666 103.844 19.883 103.844 12.3333C103.844 4.76273 99.4739 -6.10352e-05 92.3839 -6.10352e-05ZM92.3839 3.32765C97.0963 3.32765 100.031 6.82175 100.031 12.3333C100.031 17.8032 97.1177 21.3389 92.3839 21.3389C87.5643 21.3389 84.6726 17.8032 84.6726 12.3333C84.6726 6.82175 87.65 3.32765 92.3839 3.32765Z" fill="black"/>
<path d="M119.48 24.0843V3.80601H127.277V0.582289H107.978V3.80601H115.753V24.0843H119.48Z" fill="black"/>
<path d="M142.935 -6.10352e-05C135.867 -6.10352e-05 131.411 4.74193 131.411 12.3333C131.411 19.883 135.76 24.6666 142.935 24.6666C150.047 24.6666 154.395 19.883 154.395 12.3333C154.395 4.76273 150.025 -6.10352e-05 142.935 -6.10352e-05ZM142.935 3.32765C147.648 3.32765 150.582 6.82175 150.582 12.3333C150.582 17.8032 147.669 21.3389 142.935 21.3389C138.116 21.3389 135.224 17.8032 135.224 12.3333C135.224 6.82175 138.201 3.32765 142.935 3.32765Z" fill="black"/>
<path d="M4.4293 152.185C6.18154 152.185 7.61742 151.418 8.4692 150.018H8.6639V151.953H10.6595V142.972C10.6595 140.246 8.87076 138.603 5.67047 138.603C2.87174 138.603 0.803114 139.991 0.523241 142.096H2.64054C2.93258 141.062 4.02774 140.465 5.59746 140.465C7.55657 140.465 8.56655 141.354 8.56655 142.972V144.165L4.78218 144.396C1.72791 144.579 0 145.929 0 148.278C0 150.676 1.8861 152.185 4.4293 152.185ZM4.81868 150.347C3.29763 150.347 2.16597 149.568 2.16597 148.229C2.16597 146.915 3.0421 146.222 5.03772 146.088L8.56655 145.856V147.061C8.56655 148.935 6.97249 150.347 4.81868 150.347Z" fill="black"/>
<path d="M21.0513 152.185C24.3733 152.185 26.5514 149.495 26.5514 145.394C26.5514 141.268 24.3855 138.603 21.0513 138.603C19.2504 138.603 17.6563 139.492 16.9384 140.903H16.7437V133.626H14.6507V151.953H16.6464V149.86H16.8411C17.6685 151.321 19.2261 152.185 21.0513 152.185ZM20.5646 140.49C22.9618 140.49 24.3855 142.327 24.3855 145.394C24.3855 148.461 22.9618 150.298 20.5646 150.298C18.1796 150.298 16.695 148.424 16.695 145.394C16.695 142.364 18.1796 140.49 20.5646 140.49Z" fill="black"/>
<path d="M40.6911 142.851C40.3261 140.514 38.3791 138.603 35.191 138.603C31.5161 138.603 29.1798 141.256 29.1798 145.345C29.1798 149.519 31.5283 152.185 35.2032 152.185C38.3548 152.185 40.3139 150.408 40.6911 147.998H38.5738C38.1844 149.483 36.9554 150.298 35.191 150.298C32.8547 150.298 31.3458 148.376 31.3458 145.345C31.3458 142.376 32.8303 140.49 35.191 140.49C37.0771 140.49 38.2331 141.548 38.5738 142.851H40.6911Z" fill="black"/>
<path d="M48.6371 152.185C50.4502 152.185 52.0077 151.321 52.8352 149.86H53.0299V151.953H55.0255V133.626H52.9325V140.903H52.75C52.0077 139.467 50.4623 138.603 48.6371 138.603C45.3029 138.603 43.1248 141.281 43.1248 145.394C43.1248 149.519 45.2786 152.185 48.6371 152.185ZM49.1238 140.49C51.4966 140.49 52.9812 142.388 52.9812 145.394C52.9812 148.424 51.5088 150.298 49.1238 150.298C46.7266 150.298 45.2908 148.461 45.2908 145.394C45.2908 142.339 46.7388 140.49 49.1238 140.49Z" fill="black"/>
<path d="M67.778 148.558C67.2304 149.714 66.0866 150.335 64.3951 150.335C62.1683 150.335 60.7203 148.692 60.6108 146.1V146.002H70.0413V145.199C70.0413 141.122 67.8875 138.603 64.3465 138.603C60.7446 138.603 58.4326 141.281 58.4326 145.406C58.4326 149.556 60.7081 152.185 64.3465 152.185C67.2182 152.185 69.2625 150.797 69.8709 148.558H67.778ZM64.3221 140.453C66.4029 140.453 67.7901 141.986 67.8388 144.311H60.6108C60.769 141.986 62.2292 140.453 64.3221 140.453Z" fill="black"/>
<path d="M74.2029 151.953H76.2958V140.587H79.3014V138.835H76.2958V137.435C76.2958 135.999 76.9286 135.269 78.4375 135.269C78.8147 135.269 79.1676 135.281 79.4231 135.33V133.626C78.9851 133.541 78.5227 133.504 78.0116 133.504C75.5171 133.504 74.2029 134.758 74.2029 137.374V138.835H72.0247V140.587H74.2029V151.953Z" fill="black"/>
<path d="M87.1987 156.992C90.7762 156.992 93.0395 155.118 93.0395 152.185V138.835H91.0439V140.916H90.8492C90.0948 139.504 88.4764 138.603 86.639 138.603C83.2683 138.603 81.1389 141.268 81.1389 145.199C81.1389 149.13 83.244 151.759 86.639 151.759C88.4399 151.759 89.9244 150.943 90.7519 149.495H90.9466V152.075C90.9466 154.01 89.5472 155.166 87.1987 155.166C85.3126 155.166 84.1444 154.473 83.9133 153.402H81.6986C82.015 155.568 84.0349 156.992 87.1987 156.992ZM87.1014 149.909C84.6677 149.909 83.3048 148.059 83.3048 145.199C83.3048 142.339 84.6677 140.49 87.1014 140.49C89.5229 140.49 90.9953 142.339 90.9953 145.199C90.9953 148.059 89.535 149.909 87.1014 149.909Z" fill="black"/>
<path d="M97.1038 151.953H99.1968V144.189C99.1968 141.974 100.487 140.49 102.835 140.49C104.819 140.49 105.865 141.646 105.865 143.97V151.953H107.958V143.459C107.958 140.38 106.206 138.603 103.431 138.603C101.424 138.603 100.049 139.455 99.3914 140.903H99.1968V133.626H97.1038V151.953Z" fill="black"/>
<path d="M112.874 136.303C113.677 136.303 114.334 135.646 114.334 134.843C114.334 134.04 113.677 133.383 112.874 133.383C112.071 133.383 111.414 134.04 111.414 134.843C111.414 135.646 112.071 136.303 112.874 136.303ZM111.828 151.953H113.921V138.835H111.828V151.953Z" fill="black"/>
<path d="M119.031 136.303C119.834 136.303 120.491 135.646 120.491 134.843C120.491 134.04 119.834 133.383 119.031 133.383C118.228 133.383 117.571 134.04 117.571 134.843C117.571 135.646 118.228 136.303 119.031 136.303ZM120.053 138.835H117.96V152.635C117.96 154.083 117.474 154.667 115.989 154.667H115.673V156.456H116.038C118.788 156.456 120.053 155.3 120.053 152.598V138.835Z" fill="black"/>
<path d="M126.454 144.566H126.259V133.626H124.166V151.953H126.259V146.976L127.513 145.808L132.429 151.953H135.094L129.07 144.457L134.716 138.835H132.149L126.454 144.566Z" fill="black"/>
<path d="M137.698 151.953H139.791V133.626H137.698V151.953Z" fill="black"/>
<path d="M143.855 151.953H145.948V143.824C145.948 141.974 147.274 140.49 148.99 140.49C150.645 140.49 151.728 141.488 151.728 143.045V151.953H153.821V143.52C153.821 141.853 155.038 140.49 156.863 140.49C158.712 140.49 159.625 141.439 159.625 143.374V151.953H161.718V142.887C161.718 140.137 160.221 138.603 157.544 138.603C155.731 138.603 154.234 139.516 153.529 140.903H153.334C152.726 139.54 151.484 138.603 149.708 138.603C147.956 138.603 146.641 139.443 146.045 140.903H145.85V138.835H143.855V151.953Z" fill="black"/>
<path d="M0.778777 181.624H2.87174V173.86C2.87174 171.56 4.22243 170.16 6.3154 170.16C8.40836 170.16 9.40617 171.28 9.40617 173.641V181.624H11.4991V173.13C11.4991 170.014 9.8564 168.274 6.91165 168.274C4.90386 168.274 3.62618 169.126 2.96909 170.574H2.77439V168.505H0.778777V181.624Z" fill="black"/>
<path d="M20.7228 181.855C24.4585 181.855 26.7705 179.275 26.7705 175.065C26.7705 170.842 24.4585 168.274 20.7228 168.274C16.9871 168.274 14.6751 170.842 14.6751 175.065C14.6751 179.275 16.9871 181.855 20.7228 181.855ZM20.7228 179.969C18.2404 179.969 16.8411 178.168 16.8411 175.065C16.8411 171.949 18.2404 170.16 20.7228 170.16C23.2051 170.16 24.6045 171.949 24.6045 175.065C24.6045 178.168 23.2051 179.969 20.7228 179.969Z" fill="black"/>
<path d="M36.4443 168.274C34.6556 168.274 33.0859 169.187 32.2462 170.696H32.0516V168.505H30.0559V186.005H32.1489V179.653H32.3436C33.0615 181.04 34.5704 181.855 36.4443 181.855C39.7785 181.855 41.9566 179.166 41.9566 175.065C41.9566 170.939 39.7907 168.274 36.4443 168.274ZM35.9454 179.969C33.5848 179.969 32.0881 178.071 32.0881 175.065C32.0881 172.047 33.5848 170.16 35.9576 170.16C38.3548 170.16 39.7907 171.998 39.7907 175.065C39.7907 178.131 38.3548 179.969 35.9454 179.969Z" fill="black"/>
<path d="M50.0729 168.274C46.751 168.274 44.585 170.951 44.585 175.065C44.585 179.202 46.7266 181.855 50.0729 181.855C51.9225 181.855 53.3341 181.089 54.1737 179.653H54.3684V186.005H56.4857V168.505H54.4657V170.696H54.271C53.4923 169.223 51.8617 168.274 50.0729 168.274ZM50.5475 179.969C48.1625 179.969 46.751 178.144 46.751 175.065C46.751 171.998 48.1747 170.16 50.5597 170.16C52.9325 170.16 54.4292 172.059 54.4292 175.065C54.4292 178.083 52.9447 179.969 50.5475 179.969Z" fill="black"/>
<path d="M60.4282 181.624H62.5212V173.495C62.5212 171.645 63.9693 170.306 65.9649 170.306C66.3786 170.306 67.133 170.379 67.3034 170.428V168.335C67.0357 168.298 66.5976 168.274 66.2569 168.274C64.5168 168.274 63.0079 169.175 62.6186 170.452H62.4239V168.505H60.4282V181.624Z" fill="black"/>
<path d="M69.372 172.095C69.372 173.994 70.4915 175.052 72.9495 175.649L75.2007 176.196C76.6 176.537 77.2815 177.146 77.2815 178.046C77.2815 179.251 76.016 180.091 74.2515 180.091C72.5723 180.091 71.5258 179.385 71.1729 178.277H69.0191C69.2503 180.456 71.2581 181.855 74.1785 181.855C77.1598 181.855 79.4353 180.237 79.4353 177.888C79.4353 176.002 78.2428 174.931 75.7726 174.334L73.7526 173.848C72.2073 173.47 71.4772 172.911 71.4772 172.01C71.4772 170.842 72.694 170.051 74.2515 170.051C75.8334 170.051 76.8556 170.744 77.1355 171.791H79.2041C78.9242 169.637 77.0138 168.274 74.2637 168.274C71.4772 168.274 69.372 169.917 69.372 172.095Z" fill="black"/>
<path d="M83.4752 165.11V168.505H81.3579V170.258H83.4752V178.217C83.4752 180.724 84.5582 181.721 87.2596 181.721C87.6733 181.721 88.0748 181.673 88.4886 181.6V179.835C88.0992 179.872 87.8923 179.884 87.5151 179.884C86.1522 179.884 85.5682 179.227 85.5682 177.681V170.258H88.4886V168.505H85.5682V165.11H83.4752Z" fill="black"/>
<path d="M102.263 168.505H100.17V176.269C100.17 178.57 98.9047 179.945 96.5927 179.945C94.4998 179.945 93.6236 178.849 93.6236 176.489V168.505H91.5307V177C91.5307 180.103 93.0639 181.855 96.0086 181.855C98.0164 181.855 99.4158 181.028 100.073 179.567H100.268V181.624H102.263V168.505Z" fill="black"/>
<path d="M116.914 168.505H114.675L111.085 179.312H110.891L107.301 168.505H105.062L109.917 181.624H112.059L116.914 168.505Z" fill="black"/>
<path d="M136.213 168.505H134.108L131.528 178.995H131.333L128.401 168.505H126.393L123.461 178.995H123.266L120.686 168.505H118.569L122.244 181.624H124.361L127.281 171.475H127.476L130.409 181.624H132.538L136.213 168.505Z" fill="black"/>
<path d="M143.648 176.708L146.751 181.661H149.233L144.719 175.016L149.172 168.542H146.8L143.721 173.422H143.526L140.411 168.542H137.917L142.455 175.101L137.965 181.661H140.338L143.453 176.708H143.648Z" fill="black"/>
<path d="M153.2 186.37C155.524 186.37 156.571 185.47 157.69 182.427L162.813 168.505H160.586L156.997 179.3H156.802L153.2 168.505H150.937L155.792 181.636L155.549 182.415C155.001 183.997 154.344 184.569 153.139 184.569C152.847 184.569 152.519 184.557 152.263 184.508V186.297C152.555 186.346 152.92 186.37 153.2 186.37Z" fill="black"/>
<path d="M165.308 181.624H175.407V179.872H167.839V179.677L175.371 170.075V168.505H165.32V170.258H172.876V170.452L165.308 180.091V181.624Z" fill="black"/>
<path d="M11.0887 574.335H14.6786L9.29377 559.219H5.3715L0 574.335H3.32395L4.50728 570.738H9.91867L11.0887 574.335ZM7.13985 562.366H7.32599L9.22729 568.291H5.21195L7.13985 562.366Z" fill="black"/>
<path d="M25.2487 574.335C28.5727 574.335 30.6468 572.656 30.6468 569.997C30.6468 568.067 29.1311 566.559 27.0703 566.413V566.228C28.679 565.99 29.889 564.601 29.889 562.988C29.889 560.66 28.094 559.219 25.0759 559.219H18.2285V574.335H25.2487ZM21.5525 561.652H24.2117C25.7407 561.652 26.6315 562.366 26.6315 563.57C26.6315 564.787 25.6875 565.488 23.959 565.488H21.5525V561.652ZM21.5525 571.902V567.63H24.318C26.2193 567.63 27.2431 568.357 27.2431 569.733C27.2431 571.148 26.2459 571.902 24.3845 571.902H21.5525Z" fill="black"/>
<path d="M41.0973 574.732C44.8733 574.732 47.6256 572.471 47.8782 569.191H44.6606C44.3415 570.844 42.9454 571.915 41.1106 571.915C38.6775 571.915 37.1751 569.945 37.1751 566.77C37.1751 563.596 38.6775 561.639 41.0973 561.639C42.9321 561.639 44.3282 562.79 44.634 564.509H47.8649C47.6389 561.216 44.8069 558.822 41.0973 558.822C36.5635 558.822 33.7846 561.851 33.7846 566.77C33.7846 571.703 36.5767 574.732 41.0973 574.732Z" fill="black"/>
<path d="M51.7606 559.219V574.335H57.9165C62.5833 574.335 65.2026 571.584 65.2026 566.678C65.2026 561.93 62.5434 559.219 57.9165 559.219H51.7606ZM55.0845 561.93H57.3847C60.1768 561.93 61.8255 563.676 61.8255 566.718C61.8255 569.905 60.23 571.624 57.3847 571.624H55.0845V561.93Z" fill="black"/>
<path d="M79.5089 571.624H72.502V567.961H79.1233V565.435H72.502V561.943H79.5089V559.219H69.1781V574.335H79.5089V571.624Z" fill="black"/>
<path d="M87.154 574.335V568.45H93.4429V565.858H87.154V561.943H94.0545V559.219H83.83V574.335H87.154Z" fill="black"/>
<path d="M111.645 568.159V566.241H105.103V568.622H108.427L108.414 568.9C108.334 570.712 106.885 571.915 104.798 571.915C102.258 571.915 100.649 569.958 100.649 566.731C100.649 563.57 102.178 561.639 104.651 561.639C106.446 561.639 107.736 562.525 108.201 564.046H111.499C111.06 560.912 108.334 558.822 104.651 558.822C100.117 558.822 97.2588 561.89 97.2588 566.77C97.2588 571.703 100.104 574.732 104.731 574.732C108.986 574.732 111.645 572.206 111.645 568.159Z" fill="black"/>
<path d="M129.195 574.335V559.219H125.885V565.316H118.958V559.219H115.634V574.335H118.958V568.027H125.885V574.335H129.195Z" fill="black"/>
<path d="M137.199 574.335V559.219H133.875V574.335H137.199Z" fill="black"/>
<path d="M140.776 569.878C140.776 572.854 142.89 574.732 146.108 574.732C149.418 574.732 151.426 572.894 151.426 569.64V559.219H148.102V569.614C148.102 571.095 147.384 571.889 146.054 571.889C144.818 571.889 144.02 571.095 143.994 569.878H140.776Z" fill="black"/>
<path d="M159.403 574.335V569.799L160.919 568.027L165.373 574.335H169.349L163.326 565.858L168.963 559.219H165.28L159.59 565.95H159.403V559.219H156.079V574.335H159.403Z" fill="black"/>
<path d="M182.91 571.558H176.023V559.219H172.699V574.335H182.91V571.558Z" fill="black"/>
<path d="M203.293 574.335V559.219H199.384L195.116 569.336H194.93L190.675 559.219H186.766V574.335H189.851V564.258H190.01L193.933 573.449H196.126L200.035 564.258H200.208V574.335H203.293Z" fill="black"/>
<path d="M4.26795 606.687V597.271H4.48069L11.5806 606.687H14.3196V591.571H11.1419V600.948H10.9557L3.86908 591.571H1.10355V606.687H4.26795Z" fill="black"/>
<path d="M25.7939 591.174C21.2068 591.174 18.2817 594.229 18.2817 599.136C18.2817 604.029 21.1536 607.084 25.7939 607.084C30.3809 607.084 33.2661 604.029 33.2661 599.136C33.2661 594.229 30.3809 591.174 25.7939 591.174ZM25.7939 593.978C28.2802 593.978 29.8757 595.975 29.8757 599.136C29.8757 602.27 28.2802 604.28 25.7939 604.28C23.2544 604.28 21.6722 602.27 21.6722 599.136C21.6722 595.975 23.2942 593.978 25.7939 593.978Z" fill="black"/>
<path d="M37.2415 591.571V606.687H40.5655V602.006H43.5836C46.881 602.006 49.1546 599.929 49.1546 596.808C49.1546 593.66 46.9741 591.571 43.7565 591.571H37.2415ZM40.5655 594.189H42.879C44.7271 594.189 45.7907 595.102 45.7907 596.821C45.7907 598.501 44.7138 599.427 42.8657 599.427H40.5655V594.189Z" fill="black"/>
<path d="M66.8513 608.155L64.9367 605.312C66.4923 603.989 67.3565 601.847 67.3565 599.122C67.3565 594.229 64.4447 591.174 59.8843 591.174C55.2972 591.174 52.3722 594.216 52.3722 599.122C52.3722 604.069 55.2573 607.084 59.8843 607.084C60.8549 607.084 61.7723 606.939 62.5833 606.674L63.6603 608.155H66.8513ZM59.8843 604.28C57.3847 604.28 55.7759 602.297 55.7759 599.122C55.7759 595.975 57.3847 593.978 59.8843 593.978C62.3573 593.978 63.9661 595.975 63.9661 599.122C63.9661 600.564 63.5938 601.728 62.9024 602.468L62.2111 601.635H59.2195L60.9745 604.148C60.6289 604.227 60.2566 604.28 59.8843 604.28Z" fill="black"/>
<path d="M74.6559 601.212H77.2619L80.1205 606.687H83.8832L80.6257 600.71C82.4074 600.035 83.4312 598.355 83.4312 596.438C83.4312 593.422 81.3171 591.571 77.8868 591.571H71.332V606.687H74.6559V601.212ZM74.6559 594.137H77.4215C79.0169 594.137 80.0407 595.049 80.0407 596.477C80.0407 597.932 79.0834 598.779 77.4613 598.779H74.6559V594.137Z" fill="black"/>
<path d="M86.9147 602.482C87.021 605.312 89.4276 607.084 93.1637 607.084C97.0726 607.084 99.4792 605.206 99.4792 602.151C99.4792 599.81 98.1363 598.501 95.0118 597.853L93.1238 597.483C91.3289 597.112 90.5843 596.57 90.5843 595.644C90.5843 594.494 91.648 593.766 93.2567 593.766C94.8124 593.766 95.9425 594.56 96.0888 595.75H99.2C99.1202 593.052 96.6738 591.174 93.2302 591.174C89.627 591.174 87.2603 593.065 87.2603 595.909C87.2603 598.223 88.6564 599.665 91.4884 600.233L93.5227 600.657C95.4107 601.053 96.1685 601.596 96.1685 602.561C96.1685 603.698 94.9985 604.492 93.3232 604.492C91.515 604.492 90.2519 603.712 90.1056 602.482H86.9147Z" fill="black"/>
<path d="M110.528 606.687V594.295H115.182V591.571H102.564V594.295H107.204V606.687H110.528Z" fill="black"/>
<path d="M122.281 591.571H118.958V601.477C118.958 604.823 121.51 607.084 125.486 607.084C129.475 607.084 132.014 604.823 132.014 601.477V591.571H128.69V601.146C128.69 603.05 127.533 604.254 125.486 604.254C123.438 604.254 122.281 603.05 122.281 601.146V591.571Z" fill="black"/>
<path d="M144.858 606.687L150.017 591.571H146.44L143.023 603.117H142.823L139.34 591.571H135.591L140.829 606.687H144.858Z" fill="black"/>
<path d="M162.741 596.715H162.913L165.825 606.687H168.936L173.045 591.571H169.615L167.248 602.204H167.075L164.216 591.571H161.424L158.632 602.204H158.459L156.066 591.571H152.609L156.731 606.687H159.869L162.741 596.715Z" fill="black"/>
<path d="M175.837 606.687H179.414L182.751 601.582H182.95L186.261 606.687H190.037L184.998 599.122L190.103 591.571H186.394L183.15 596.848H182.964L179.773 591.571H175.85L180.783 599.07L175.837 606.687Z" fill="black"/>
<path d="M201.445 606.687V601.146L206.856 591.571H203.266L199.889 597.893H199.69L196.299 591.571H192.709L198.121 601.146V606.687H201.445Z" fill="black"/>
<path d="M209.981 606.687H222V603.976H214.036V603.778L221.774 593.713V591.571H210.14V594.295H217.745V594.48L209.981 604.545V606.687Z" fill="black"/>
<path d="M13.8218 523.423C19.5011 523.423 23.045 520.529 23.045 515.95C23.045 512.624 20.4552 510.026 16.9341 509.776V509.457C19.6829 509.047 21.7501 506.655 21.7501 503.875C21.7501 499.865 18.6833 497.382 13.5265 497.382H1.82721V523.423H13.8218ZM7.50649 501.574H12.0499C14.6624 501.574 16.1844 502.804 16.1844 504.878C16.1844 506.974 14.5715 508.181 11.6183 508.181H7.50649V501.574ZM7.50649 519.231V511.872H12.2316C15.4802 511.872 17.2294 513.125 17.2294 515.494C17.2294 517.932 15.5256 519.231 12.3452 519.231H7.50649Z" fill="black"/>
<path d="M41.2414 496.699C33.404 496.699 28.4062 501.961 28.4062 510.414C28.4062 518.843 33.3131 524.106 41.2414 524.106C49.0788 524.106 54.0084 518.843 54.0084 510.414C54.0084 501.961 49.0788 496.699 41.2414 496.699ZM41.2414 501.529C45.4895 501.529 48.2155 504.969 48.2155 510.414C48.2155 515.813 45.4895 519.276 41.2414 519.276C36.9024 519.276 34.1991 515.813 34.1991 510.414C34.1991 504.969 36.9706 501.529 41.2414 501.529Z" fill="black"/>
<path d="M78.2476 518.638H66.4801V497.382H60.8008V523.423H78.2476V518.638Z" fill="black"/>
<path d="M84.8355 497.382V523.423H95.3536C103.327 523.423 107.803 518.684 107.803 510.231C107.803 502.053 103.259 497.382 95.3536 497.382H84.8355ZM90.5148 502.053H94.4449C99.2155 502.053 102.032 505.06 102.032 510.3C102.032 515.79 99.3063 518.752 94.4449 518.752H90.5148V502.053Z" fill="black"/>
<path d="M4.80717 645.643C6.70614 645.643 8.29968 644.822 9.10972 643.417H9.33547V645.405H12.5093V635.506C12.5093 632.445 10.4111 630.642 6.67958 630.642C3.22691 630.642 0.823328 632.259 0.557738 634.79H3.66514C3.97056 633.796 5.00636 633.253 6.52022 633.253C8.29968 633.253 9.2558 634.061 9.2558 635.506V636.751L5.51098 636.977C1.97864 637.176 0 638.699 0 641.297C0 643.947 2.0052 645.643 4.80717 645.643ZM5.77657 643.112C4.31583 643.112 3.26675 642.383 3.26675 641.138C3.26675 639.932 4.12992 639.256 5.97577 639.137L9.2558 638.911V640.091C9.2558 641.814 7.7685 643.112 5.77657 643.112Z" fill="black"/>
<path d="M24.5538 645.643C28.2189 645.643 30.5162 642.768 30.5162 638.169C30.5162 633.545 28.2322 630.682 24.5538 630.682C22.5618 630.682 20.8886 631.65 20.1317 633.227H19.9059V625.315H16.6126V645.405H19.7864V643.112H20.0122C20.8355 644.702 22.522 645.643 24.5538 645.643ZM23.518 633.425C25.7622 633.425 27.13 635.214 27.13 638.169C27.13 641.125 25.7755 642.913 23.518 642.913C21.2604 642.913 19.8528 641.098 19.8528 638.169C19.8528 635.241 21.2737 633.425 23.518 633.425Z" fill="black"/>
<path d="M46.3719 635.758C46.0267 632.763 43.7692 630.642 40.0376 630.642C35.6687 630.642 33.1057 633.439 33.1057 638.13C33.1057 642.874 35.682 645.696 40.0509 645.696C43.7293 645.696 46.0134 643.656 46.3719 640.661H43.238C42.8927 642.185 41.7507 642.993 40.0376 642.993C37.7934 642.993 36.4389 641.204 36.4389 638.13C36.4389 635.108 37.7801 633.333 40.0376 633.333C41.8436 633.333 42.9326 634.353 43.238 635.758H46.3719Z" fill="black"/>
<path d="M54.7779 645.643C56.7963 645.643 58.4696 644.702 59.2929 643.112H59.5186V645.405H62.7057V625.315H59.4124V633.227H59.1866C58.4164 631.636 56.7698 630.682 54.7779 630.682C51.1127 630.682 48.8021 633.571 48.8021 638.156C48.8021 642.754 51.0994 645.643 54.7779 645.643ZM55.8004 633.425C58.0579 633.425 59.4522 635.241 59.4522 638.169C59.4522 641.111 58.0712 642.913 55.8004 642.913C53.5429 642.913 52.1751 641.138 52.1751 638.169C52.1751 635.214 53.5561 633.425 55.8004 633.425Z" fill="black"/>
<path d="M76.3305 641.443C75.8524 642.529 74.7236 643.139 73.0903 643.139C70.9257 643.139 69.5314 641.602 69.4517 639.15V638.978H79.5972V637.931C79.5972 633.386 77.1139 630.642 72.9707 630.642C68.7612 630.642 66.1451 633.571 66.1451 638.222C66.1451 642.86 68.7213 645.696 72.9973 645.696C76.4234 645.696 78.8536 644.053 79.4511 641.443H76.3305ZM72.9575 633.2C74.9361 633.2 76.2375 634.591 76.3039 636.791H69.465C69.611 634.618 70.9921 633.2 72.9575 633.2Z" fill="black"/>
<path d="M83.9662 645.405H87.2462V633.571H90.3669V631.014H87.2063V629.675C87.2063 628.297 87.8172 627.608 89.3709 627.608C89.8357 627.608 90.2341 627.648 90.4997 627.687V625.315C89.9685 625.223 89.3709 625.183 88.6671 625.183C85.4402 625.183 83.9662 626.601 83.9662 629.49V631.014H81.5891V633.571H83.9662V645.405Z" fill="black"/>
<path d="M99.2641 650.917C103.5 650.917 106.183 648.81 106.183 645.484V630.921H103.009V633.24H102.783C101.986 631.663 100.26 630.682 98.2814 630.682C94.5765 630.682 92.2791 633.571 92.2791 638.01C92.2791 642.357 94.5632 645.193 98.2283 645.193C100.247 645.193 101.827 644.345 102.664 642.781H102.889V645.537C102.889 647.379 101.575 648.466 99.3172 648.466C97.5112 648.466 96.3426 647.817 96.1302 646.796H92.8236C93.0892 649.288 95.5326 650.917 99.2641 650.917ZM99.2641 642.582C96.9668 642.582 95.6654 640.806 95.6654 637.997C95.6654 635.201 96.9668 633.425 99.2641 633.425C101.548 633.425 102.943 635.201 102.943 638.01C102.943 640.806 101.561 642.582 99.2641 642.582Z" fill="black"/>
<path d="M110.366 645.405H113.659V636.99C113.659 634.87 114.868 633.452 117.032 633.452C118.944 633.452 119.954 634.591 119.954 636.831V645.405H123.247V636.062C123.247 632.617 121.361 630.656 118.254 630.656C116.089 630.656 114.536 631.636 113.845 633.266H113.606V625.315H110.366V645.405Z" fill="black"/>
<path d="M128.824 628.496C129.913 628.496 130.803 627.634 130.803 626.548C130.803 625.474 129.913 624.6 128.824 624.6C127.749 624.6 126.859 625.474 126.859 626.548C126.859 627.634 127.749 628.496 128.824 628.496ZM127.191 645.405H130.471V630.921H127.191V645.405Z" fill="black"/>
<path d="M136.261 628.496C137.336 628.496 138.226 627.634 138.226 626.548C138.226 625.474 137.336 624.6 136.261 624.6C135.172 624.6 134.282 625.474 134.282 626.548C134.282 627.634 135.172 628.496 136.261 628.496ZM137.881 630.921H134.601V645.922C134.601 647.26 134.083 647.803 132.622 647.803C132.556 647.803 132.237 647.803 132.197 647.79V650.321C132.29 650.334 132.821 650.348 132.994 650.348C136.247 650.348 137.881 648.93 137.881 645.961V630.921Z" fill="black"/>
<path d="M145.623 636.857H145.397V625.315H142.104V645.405H145.397V640.316L146.566 639.15L151.227 645.405H155.211L149.022 637.136L154.812 630.921H150.988L145.623 636.857Z" fill="black"/>
<path d="M157.88 645.405H161.173V625.315H157.88V645.405Z" fill="black"/>
<path d="M165.343 645.405H168.636V636.592C168.636 634.79 169.845 633.425 171.478 633.425C173.098 633.425 174.107 634.406 174.107 636.009V645.405H177.308V636.354C177.308 634.697 178.436 633.425 180.149 633.425C181.916 633.425 182.805 634.366 182.805 636.248V645.405H186.085V635.44C186.085 632.431 184.332 630.642 181.424 630.642C179.406 630.642 177.733 631.676 177.015 633.253H176.79C176.179 631.65 174.785 630.642 172.779 630.642C170.854 630.642 169.366 631.623 168.742 633.253H168.517V630.921H165.343V645.405Z" fill="black"/>
<path d="M0.810048 677.821H4.10336V669.38C4.10336 667.207 5.33835 665.842 7.30371 665.842C9.30892 665.842 10.2385 666.968 10.2385 669.221V677.821H13.5318V668.452C13.5318 665.007 11.7656 663.059 8.52543 663.059C6.36087 663.059 4.90013 664.04 4.2096 665.656H3.98384V663.337H0.810048V677.821Z" fill="black"/>
<path d="M23.7039 678.113C28.0463 678.113 30.6889 675.277 30.6889 670.573C30.6889 665.895 28.033 663.059 23.7039 663.059C19.388 663.059 16.7189 665.908 16.7189 670.573C16.7189 675.277 19.3482 678.113 23.7039 678.113ZM23.7039 675.423C21.4065 675.423 20.0919 673.647 20.0919 670.586C20.0919 667.525 21.4065 665.749 23.7039 665.749C25.9879 665.749 27.3026 667.525 27.3026 670.586C27.3026 673.647 26.0012 675.423 23.7039 675.423Z" fill="black"/>
<path d="M41.9233 663.099C39.9314 663.099 38.2449 664.093 37.4083 665.736H37.1825V663.337H34.0087V682.632H37.3021V675.621H37.5278C38.2715 677.159 39.8783 678.06 41.9632 678.06C45.6283 678.06 47.9124 675.184 47.9124 670.586C47.9124 665.948 45.6017 663.099 41.9233 663.099ZM40.8875 675.33C38.6433 675.33 37.2489 673.514 37.2357 670.586C37.2489 667.657 38.6566 665.842 40.9008 665.842C43.1583 665.842 44.5261 667.617 44.5261 670.586C44.5261 673.554 43.1716 675.33 40.8875 675.33Z" fill="black"/>
<path d="M56.4909 663.099C52.8258 663.099 50.5019 666.001 50.5019 670.573C50.5019 675.171 52.7727 678.06 56.4378 678.06C58.4961 678.06 60.0233 677.185 60.8599 675.621H61.0856V682.632H64.4055V663.337H61.2051V665.736H60.9794C60.1826 664.132 58.4563 663.099 56.4909 663.099ZM57.4736 675.33C55.2161 675.33 53.8749 673.554 53.8749 670.586C53.8749 667.617 55.2294 665.842 57.4869 665.842C59.7311 665.842 61.152 667.657 61.152 670.586C61.152 673.528 59.7444 675.33 57.4736 675.33Z" fill="black"/>
<path d="M68.4292 677.821H71.7225V669.406C71.7225 667.366 73.2098 666.041 75.3478 666.041C75.9055 666.041 76.782 666.133 77.0343 666.226V663.231C76.7288 663.152 76.1445 663.099 75.6665 663.099C73.7941 663.099 72.2271 664.159 71.8287 665.59H71.603V663.337H68.4292V677.821Z" fill="black"/>
<path d="M79.0926 667.472C79.0926 669.645 80.4073 670.917 83.1959 671.553L85.7722 672.15C87.1532 672.468 87.7774 672.998 87.7774 673.819C87.7774 674.919 86.6221 675.674 84.9621 675.674C83.3155 675.674 82.2929 675.012 81.9742 673.938H78.7208C78.9731 676.549 81.2571 678.113 84.8824 678.113C88.5077 678.113 91.0707 676.271 91.0707 673.501C91.0707 671.368 89.7826 670.188 87.0072 669.552L84.4442 668.982C82.9835 668.638 82.2929 668.121 82.2929 667.299C82.2929 666.226 83.4217 665.497 84.9223 665.497C86.4627 665.497 87.4321 666.16 87.6711 667.18H90.7653C90.5262 664.57 88.3617 663.059 84.909 663.059C81.4829 663.059 79.0926 664.874 79.0926 667.472Z" fill="black"/>
<path d="M95.3467 659.786V663.43H93.0493V665.988H95.3467V673.978C95.3467 676.774 96.6746 677.887 100.008 677.887C100.645 677.887 101.256 677.834 101.734 677.742V675.224C101.336 675.264 101.083 675.29 100.619 675.29C99.2376 675.29 98.6267 674.641 98.6267 673.196V665.988H101.734V663.43H98.6267V659.786H95.3467Z" fill="black"/>
<path d="M117.669 663.337H114.376V671.778C114.376 673.965 113.208 675.29 111.07 675.29C109.104 675.29 108.188 674.204 108.188 671.951V663.337H104.895V672.746C104.895 676.138 106.754 678.113 109.928 678.113C112.145 678.113 113.566 677.172 114.27 675.515H114.496V677.821H117.669V663.337Z" fill="black"/>
<path d="M134.375 663.337H130.896L127.563 674.601H127.337L123.977 663.337H120.445L125.611 677.821H129.236L134.375 663.337Z" fill="black"/>
<path d="M156.618 663.337H153.338L150.935 674.217H150.709L147.894 663.337H144.746L141.958 674.217H141.732L139.315 663.337H135.995L139.926 677.821H143.352L146.167 667.326H146.393L149.222 677.821H152.687L156.618 663.337Z" fill="black"/>
<path d="M165.144 672.812L168.118 677.848H171.836L167.096 670.52L171.783 663.364H168.158L165.29 668.386H165.064L162.182 663.364H158.358L163.099 670.665L158.398 677.848H161.957L164.918 672.812H165.144Z" fill="black"/>
<path d="M176.338 683.069C179.592 683.069 181.145 681.889 182.38 678.325L187.626 663.337H184.147L180.76 674.707H180.535L177.135 663.337H173.523L178.715 677.874L178.543 678.55C178.118 679.915 177.334 680.445 175.94 680.445C175.714 680.445 175.223 680.432 175.037 680.405V683.016C175.249 683.056 176.139 683.069 176.338 683.069Z" fill="black"/>
<path d="M190.136 677.821H201.901V675.237H194.345V675.012L201.782 665.537V663.337H190.202V665.921H197.851V666.16L190.136 675.807V677.821Z" fill="black"/>
<path d="M11.1217 325.422H14.2288L8.7613 310.376H5.46748L0 325.422H2.92043L4.21396 321.65H9.84146L11.1217 325.422ZM6.9477 313.314H7.13439L9.18803 319.427H4.88073L6.9477 313.314Z" fill="black"/>
<path d="M24.5903 325.422C27.9108 325.422 29.9378 323.781 29.9378 321.134C29.9378 319.176 28.4709 317.707 26.4039 317.535V317.35C27.9775 317.112 29.1777 315.709 29.1777 314.134C29.1777 311.806 27.4041 310.376 24.4303 310.376H17.8827V325.422H24.5903ZM20.7764 312.586H23.7235C25.3638 312.586 26.3106 313.354 26.3106 314.637C26.3106 315.947 25.2971 316.675 23.3901 316.675H20.7764V312.586ZM20.7764 323.212V318.673H23.8035C25.8705 318.673 26.9773 319.441 26.9773 320.909C26.9773 322.405 25.9105 323.212 23.9102 323.212H20.7764Z" fill="black"/>
<path d="M40.3793 325.805C43.9932 325.805 46.6603 323.688 46.9803 320.552H44.1532C43.7798 322.219 42.313 323.291 40.3793 323.291C37.7923 323.291 36.1787 321.214 36.1787 317.892C36.1787 314.571 37.7923 312.494 40.366 312.494C42.2996 312.494 43.7798 313.671 44.1399 315.444H46.9803C46.6869 312.269 43.9399 309.993 40.366 309.993C35.952 309.993 33.2183 313.01 33.2183 317.892C33.2183 322.788 35.9653 325.805 40.3793 325.805Z" fill="black"/>
<path d="M51.0076 310.376V325.422H56.9018C61.5292 325.422 64.1829 322.669 64.1829 317.826C64.1829 313.102 61.5025 310.376 56.9018 310.376H51.0076ZM53.9013 312.798H56.4884C59.4755 312.798 61.2224 314.65 61.2224 317.866C61.2224 321.174 59.5155 323 56.4884 323H53.9013V312.798Z" fill="black"/>
<path d="M78.385 323H71.1839V318.938H77.9849V316.649H71.1839V312.798H78.385V310.376H68.2902V325.422H78.385V323Z" fill="black"/>
<path d="M85.6927 325.422V319.388H92.147V317.046H85.6927V312.798H92.7605V310.376H82.799V325.422H85.6927Z" fill="black"/>
<path d="M110.23 319.361V317.469H103.789V319.652H107.416L107.403 319.943C107.349 321.955 105.776 323.291 103.482 323.291C100.775 323.291 99.0681 321.227 99.0681 317.853C99.0681 314.558 100.735 312.494 103.375 312.494C105.322 312.494 106.696 313.433 107.216 315.087H110.11C109.63 312.004 106.976 309.993 103.375 309.993C98.9347 309.993 96.1076 313.063 96.1076 317.879C96.1076 322.775 98.9214 325.805 103.429 325.805C107.589 325.805 110.23 323.304 110.23 319.361Z" fill="black"/>
<path d="M127.552 325.422V310.376H124.659V316.556H117.271V310.376H114.377V325.422H117.271V318.991H124.659V325.422H127.552Z" fill="black"/>
<path d="M135.247 325.422V310.376H132.353V325.422H135.247Z" fill="black"/>
<path d="M138.967 321.227C138.967 324.019 140.994 325.805 144.021 325.805C147.169 325.805 149.076 324.006 149.076 320.883V310.376H146.182V320.856C146.182 322.431 145.395 323.265 143.981 323.265C142.675 323.265 141.821 322.458 141.781 321.227H138.967Z" fill="black"/>
<path d="M156.743 325.422V320.698L158.357 318.872L163.158 325.422H166.665L160.437 316.953L166.225 310.376H162.931L156.93 317.231H156.743V310.376H153.85V325.422H156.743Z" fill="black"/>
<path d="M180.067 322.947H173.012V310.376H170.119V325.422H180.067V322.947Z" fill="black"/>
<path d="M200.123 325.422V310.376H196.736L192.162 321.081H191.975L187.415 310.376H184.014V325.422H186.708V314.995H186.854L191.055 324.747H193.082L197.269 314.995H197.443V325.422H200.123Z" fill="black"/>
<path d="M3.92058 357.791V347.787H4.10728L11.5884 357.791H14.0554V342.746H11.2817V352.71H11.095L3.62721 342.746H1.1335V357.791H3.92058Z" fill="black"/>
<path d="M25.5638 342.362C21.0431 342.362 18.176 345.392 18.176 350.262C18.176 355.131 20.9898 358.175 25.5638 358.175C30.0845 358.175 32.8982 355.131 32.8982 350.262C32.8982 345.406 30.0845 342.362 25.5638 342.362ZM25.5638 344.863C28.2442 344.863 29.9511 346.967 29.9511 350.262C29.9511 353.557 28.2575 355.674 25.5638 355.674C22.8167 355.674 21.1365 353.557 21.1365 350.262C21.1365 346.967 22.8567 344.863 25.5638 344.863Z" fill="black"/>
<path d="M37.0322 342.746V357.791H39.9259V352.935H43.2064C46.3802 352.935 48.5806 350.884 48.5806 347.854C48.5806 344.797 46.4602 342.746 43.3398 342.746H37.0322ZM39.9259 345.101H42.5663C44.54 345.101 45.6601 346.067 45.6601 347.867C45.6601 349.627 44.5133 350.606 42.5663 350.606H39.9259V345.101Z" fill="black"/>
<path d="M66.0765 359.326L64.1429 356.534C65.7564 355.237 66.6632 353.054 66.6632 350.262C66.6632 345.392 63.8095 342.362 59.3288 342.362C54.8082 342.362 51.9411 345.379 51.9411 350.262C51.9411 355.171 54.7815 358.175 59.3288 358.175C60.3023 358.175 61.2224 358.029 62.0359 357.765L63.1961 359.326H66.0765ZM59.3288 355.674C56.6218 355.674 54.9148 353.596 54.9148 350.262C54.9148 346.954 56.6218 344.863 59.3288 344.863C61.9826 344.863 63.7161 346.967 63.7161 350.262C63.7161 351.929 63.2494 353.266 62.3959 354.046L61.4891 352.961H58.7421L60.5823 355.502C60.1823 355.608 59.7556 355.674 59.3288 355.674Z" fill="black"/>
<path d="M73.691 352.207H76.6647L79.6518 357.791H82.9457L79.5985 351.757C81.4254 351.109 82.4923 349.455 82.4923 347.483C82.4923 344.559 80.4386 342.746 77.1448 342.746H70.7972V357.791H73.691V352.207ZM73.691 345.061H76.7447C78.4517 345.061 79.5318 346.001 79.5318 347.536C79.5318 349.084 78.5317 349.984 76.7981 349.984H73.691V345.061Z" fill="black"/>
<path d="M86.0928 353.676C86.2395 356.428 88.5865 358.175 92.1737 358.175C95.9743 358.175 98.3213 356.335 98.3213 353.371C98.3213 351.069 97.0011 349.785 93.854 349.111L92.0537 348.727C90.1601 348.317 89.3866 347.734 89.3866 346.742C89.3866 345.498 90.5468 344.704 92.2804 344.704C93.9473 344.704 95.1341 345.525 95.3075 346.808H98.0679C97.9612 344.188 95.5742 342.362 92.2804 342.362C88.7865 342.362 86.4795 344.188 86.4795 346.954C86.4795 349.216 87.8131 350.593 90.6268 351.201L92.6404 351.638C94.6007 352.075 95.4275 352.683 95.4275 353.729C95.4275 354.959 94.1473 355.833 92.3471 355.833C90.4268 355.833 89.0799 354.986 88.9066 353.676H86.0928Z" fill="black"/>
<path d="M109.123 357.791V345.167H113.87V342.746H101.482V345.167H106.229V357.791H109.123Z" fill="black"/>
<path d="M120.671 342.746H117.778V352.604C117.778 355.912 120.245 358.175 124.178 358.175C128.112 358.175 130.579 355.912 130.579 352.604V342.746H127.686V352.339C127.686 354.324 126.419 355.647 124.178 355.647C121.938 355.647 120.671 354.324 120.671 352.339V342.746Z" fill="black"/>
<path d="M142.995 357.791L148.315 342.746H145.222L141.474 354.536H141.274L137.474 342.746H134.26L139.621 357.791H142.995Z" fill="black"/>
<path d="M160.944 347.337H161.104L164.211 357.791H166.931L171.065 342.746H168.065L165.491 353.768H165.331L162.291 342.746H159.757L156.77 353.768H156.61L154.01 342.746H150.996L155.143 357.791H157.863L160.944 347.337Z" fill="black"/>
<path d="M173.933 357.791H177.093L180.654 352.472H180.854L184.374 357.791H187.708L182.627 350.262L187.788 342.746H184.547L181.04 348.198H180.854L177.4 342.746H173.973L178.987 350.209L173.933 357.791Z" fill="black"/>
<path d="M198.803 357.791V352.022L204.23 342.746H201.057L197.456 349.137H197.269L193.642 342.746H190.482L195.909 352.022V357.791H198.803Z" fill="black"/>
<path d="M207.431 357.791H219.259V355.37H211.018V355.171L219.046 344.665V342.746H207.644V345.167H215.485V345.366L207.431 355.872V357.791Z" fill="black"/>
<path d="M29.9478 274.618V248.783H24.2271L16.5019 267.165H16.1866L8.48393 248.783H2.74072V274.618H7.29024V256.713H7.53799L14.6325 273.459H18.0559L25.128 256.713H25.4208V274.618H29.9478Z" fill="black"/>
<path d="M55.0602 270.459H42.8981V263.484H54.3845V259.553H42.8981V252.941H55.0602V248.783H38.0108V274.618H55.0602V270.459Z" fill="black"/>
<path d="M62.5151 248.783V274.618H72.47C80.2853 274.618 84.7672 269.891 84.7672 261.575C84.7672 253.463 80.2402 248.783 72.47 248.783H62.5151ZM67.4025 252.941H71.7718C76.8168 252.941 79.7673 256.122 79.7673 261.643C79.7673 267.324 76.8844 270.459 71.7718 270.459H67.4025V252.941Z" fill="black"/>
<path d="M96.5915 274.618V248.783H91.7041V274.618H96.5915Z" fill="black"/>
<path d="M109.632 248.783H104.745V265.711C104.745 271.391 108.911 275.277 115.555 275.277C122.199 275.277 126.366 271.391 126.366 265.711V248.783H121.479V265.256C121.479 268.664 119.339 270.937 115.555 270.937C111.772 270.937 109.632 268.664 109.632 265.256V248.783Z" fill="black"/>
<path d="M161.704 274.618V248.783H155.983L148.258 267.165H147.943L140.24 248.783H134.497V274.618H139.046V256.713H139.294L146.388 273.459H149.812L156.884 256.713H157.177V274.618H161.704Z" fill="black"/>
<path d="M4.81949 396.662C6.71807 396.662 8.29801 395.836 9.161 394.371H9.38671V396.422H12.135V386.529C12.135 383.493 10.0904 381.682 6.46581 381.682C3.18644 381.682 0.849716 383.267 0.557626 385.703H3.3192C3.63785 384.651 4.73982 384.052 6.33304 384.052C8.28473 384.052 9.29377 384.944 9.29377 386.529V387.794L5.37711 388.033C1.93842 388.246 0 389.751 0 392.347C0 394.984 2.03135 396.662 4.81949 396.662ZM5.54971 394.358C3.99632 394.358 2.86779 393.572 2.86779 392.228C2.86779 390.909 3.77062 390.204 5.76214 390.071L9.29377 389.831V391.083C9.29377 392.947 7.70055 394.358 5.54971 394.358Z" fill="black"/>
<path d="M23.8584 396.662C27.5096 396.662 29.833 393.746 29.833 389.192C29.833 384.598 27.5228 381.709 23.8584 381.709C21.8802 381.709 20.1808 382.681 19.4107 384.252H19.185V376.29H16.3305V396.422H19.0788V394.132H19.2912C20.1542 395.729 21.8404 396.662 23.8584 396.662ZM23.0353 384.159C25.4517 384.159 26.8988 386.063 26.8988 389.192C26.8988 392.321 25.4517 394.212 23.0353 394.212C20.6322 394.212 19.1452 392.294 19.1319 389.192C19.1452 386.089 20.6455 384.159 23.0353 384.159Z" fill="black"/>
<path d="M45.5129 386.609C45.1412 383.799 42.9505 381.682 39.3259 381.682C35.1172 381.682 32.5548 384.545 32.5548 389.139C32.5548 393.825 35.1305 396.701 39.3392 396.701C42.9107 396.701 45.1412 394.691 45.5129 391.841H42.7381C42.3663 393.413 41.1316 394.265 39.3259 394.265C36.9494 394.265 35.4757 392.334 35.4757 389.139C35.4757 386.01 36.9361 384.119 39.3259 384.119C41.2378 384.119 42.4062 385.197 42.7381 386.609H45.5129Z" fill="black"/>
<path d="M54.0632 396.662C56.0547 396.662 57.7409 395.716 58.6039 394.132H58.8296V396.422H61.5646V376.29H58.7101V384.252H58.4977C57.7143 382.667 56.0415 381.709 54.0632 381.709C50.4121 381.709 48.0621 384.625 48.0621 389.178C48.0621 393.759 50.3855 396.662 54.0632 396.662ZM54.8731 384.159C57.2629 384.159 58.7632 386.103 58.7632 389.192C58.7632 392.307 57.2762 394.212 54.8731 394.212C52.4567 394.212 51.0095 392.334 51.0095 389.192C51.0095 386.063 52.47 384.159 54.8731 384.159Z" fill="black"/>
<path d="M75.3327 392.547C74.8016 393.719 73.62 394.358 71.894 394.358C69.6104 394.358 68.1366 392.707 68.0437 390.084V389.951H78.2536V388.965C78.2536 384.438 75.8239 381.682 71.801 381.682C67.7251 381.682 65.1361 384.625 65.1361 389.218C65.1361 393.839 67.6719 396.701 71.8143 396.701C75.1202 396.701 77.457 395.104 78.081 392.547H75.3327ZM71.7878 384.012C73.8988 384.012 75.2796 385.543 75.3459 387.887H68.0437C68.203 385.557 69.6767 384.012 71.7878 384.012Z" fill="black"/>
<path d="M82.7013 396.422H85.5558V384.292H88.7423V382.002H85.516V380.577C85.516 379.112 86.1666 378.38 87.7598 378.38C88.2112 378.38 88.5962 378.407 88.8617 378.447V376.29C88.3705 376.21 87.8129 376.156 87.1623 376.156C84.1618 376.156 82.7013 377.568 82.7013 380.444V382.002H80.3248V384.292H82.7013V396.422Z" fill="black"/>
<path d="M97.5182 401.948C101.607 401.948 104.196 399.857 104.196 396.568V381.962H101.461V384.265H101.236C100.426 382.694 98.6866 381.709 96.6951 381.709C93.0041 381.709 90.6939 384.625 90.6939 389.005C90.6939 393.346 92.9776 396.209 96.6685 396.209C98.66 396.209 100.253 395.343 101.13 393.772H101.342V396.555C101.342 398.512 99.9346 399.684 97.5581 399.684C95.6329 399.684 94.4247 398.992 94.1857 397.9H91.2648C91.5702 400.336 93.9069 401.948 97.5182 401.948ZM97.4784 393.839C95.0222 393.839 93.6414 391.961 93.6414 389.005C93.6414 386.049 95.0222 384.159 97.4784 384.159C99.9081 384.159 101.395 386.049 101.395 389.005C101.395 391.961 99.9213 393.839 97.4784 393.839Z" fill="black"/>
<path d="M108.472 396.422H111.326V387.953C111.326 385.69 112.627 384.185 114.964 384.185C116.982 384.185 118.057 385.37 118.057 387.754V396.422H120.912V387.075C120.912 383.653 119.013 381.695 115.933 381.695C113.756 381.695 112.229 382.654 111.525 384.265H111.3V376.29H108.472V396.422Z" fill="black"/>
<path d="M126.409 379.379C127.404 379.379 128.214 378.566 128.214 377.581C128.214 376.582 127.404 375.77 126.409 375.77C125.413 375.77 124.603 376.582 124.603 377.581C124.603 378.566 125.413 379.379 126.409 379.379ZM124.988 396.422H127.829V381.962H124.988V396.422Z" fill="black"/>
<path d="M133.525 379.379C134.507 379.379 135.331 378.566 135.331 377.581C135.331 376.582 134.507 375.77 133.525 375.77C132.529 375.77 131.719 376.582 131.719 377.581C131.719 378.566 132.529 379.379 133.525 379.379ZM134.919 381.962H132.078V397.034C132.078 398.486 131.547 399.072 130.02 399.072C129.98 399.072 129.661 399.072 129.622 399.072V401.362C129.688 401.362 130.153 401.375 130.259 401.375C133.392 401.375 134.919 400.017 134.919 397.048V381.962Z" fill="black"/>
<path d="M142.327 388.06H142.102V376.29H139.247V396.422H142.102V391.162L143.363 389.951L148.329 396.422H151.834L145.487 388.153L151.435 381.962H148.063L142.327 388.06Z" fill="black"/>
<path d="M154.595 396.422H157.45V376.29H154.595V396.422Z" fill="black"/>
<path d="M161.738 396.422H164.593V387.541C164.593 385.65 165.907 384.172 167.646 384.172C169.346 384.172 170.435 385.197 170.435 386.848V396.422H173.236V387.274C173.236 385.53 174.444 384.172 176.29 384.172C178.162 384.172 179.091 385.144 179.091 387.141V396.422H181.946V386.449C181.946 383.44 180.246 381.682 177.325 381.682C175.32 381.682 173.661 382.707 172.931 384.265H172.705C172.068 382.707 170.7 381.682 168.722 381.682C166.797 381.682 165.336 382.641 164.699 384.265H164.487V381.962H161.738V396.422Z" fill="black"/>
<path d="M0.823163 428.993H3.67768V420.512C3.67768 418.182 5.01864 416.743 7.12965 416.743C9.24067 416.743 10.2497 417.915 10.2497 420.312V428.993H13.1042V419.633C13.1042 416.184 11.3251 414.254 8.09886 414.254C5.92146 414.254 4.48756 415.226 3.78389 416.823H3.57146V414.533H0.823163V428.993Z" fill="black"/>
<path d="M23.2344 429.273C27.4565 429.273 30.0454 426.437 30.0454 421.763C30.0454 417.09 27.4432 414.254 23.2344 414.254C19.0124 414.254 16.4101 417.103 16.4101 421.763C16.4101 426.437 18.9991 429.273 23.2344 429.273ZM23.2344 426.836C20.7517 426.836 19.3576 424.985 19.3576 421.763C19.3576 418.541 20.7517 416.677 23.2344 416.677C25.7039 416.677 27.1113 418.541 27.1113 421.763C27.1113 424.972 25.7039 426.836 23.2344 426.836Z" fill="black"/>
<path d="M40.9855 414.28C39.0206 414.28 37.3211 415.279 36.4449 416.93H36.2324V414.533H33.4841V433.813H36.3387V426.81H36.5644C37.3211 428.341 38.9542 429.233 41.0121 429.233C44.6632 429.233 46.9867 426.33 46.9867 421.763C46.9867 417.17 44.6632 414.28 40.9855 414.28ZM40.1757 426.783C37.7858 426.783 36.2855 424.852 36.2855 421.763C36.2855 418.661 37.7858 416.73 40.1889 416.73C42.6053 416.73 44.0525 418.621 44.0525 421.763C44.0525 424.906 42.6053 426.783 40.1757 426.783Z" fill="black"/>
<path d="M55.6963 414.28C52.0451 414.28 49.7084 417.21 49.7084 421.75C49.7084 426.344 52.0053 429.233 55.6697 429.233C57.7143 429.233 59.2412 428.381 60.1174 426.81H60.3431V433.813H63.2109V414.533H60.4494V416.93H60.2236C59.4005 415.319 57.6612 414.28 55.6963 414.28ZM56.4796 426.783C54.0765 426.783 52.6559 424.919 52.6559 421.763C52.6559 418.621 54.0898 416.73 56.4929 416.73C58.896 416.73 60.3962 418.674 60.3962 421.763C60.3962 424.866 58.9092 426.783 56.4796 426.783Z" fill="black"/>
<path d="M67.3666 428.993H70.2211V420.352C70.2211 418.315 71.7479 416.917 73.912 416.917C74.4166 416.917 75.2663 417.01 75.5053 417.076V414.387C75.1999 414.32 74.6555 414.28 74.2307 414.28C72.3454 414.28 70.7389 415.305 70.3273 416.73H70.1149V414.533H67.3666V428.993Z" fill="black"/>
<path d="M77.6296 418.581C77.6296 420.725 78.9041 421.95 81.6524 422.589L84.175 423.188C85.6222 423.534 86.2993 424.12 86.2993 425.025C86.2993 426.21 85.038 427.036 83.2589 427.036C81.5329 427.036 80.4708 426.33 80.1123 425.199H77.2578C77.5101 427.715 79.7538 429.273 83.1925 429.273C86.6445 429.273 89.1804 427.449 89.1804 424.759C89.1804 422.655 87.8925 421.47 85.1442 420.831L82.7411 420.272C81.1745 419.899 80.4442 419.34 80.4442 418.448C80.4442 417.276 81.6524 416.49 83.2457 416.49C84.8654 416.49 85.901 417.196 86.1666 418.275H88.9016C88.6228 415.771 86.4985 414.254 83.2457 414.254C79.9796 414.254 77.6296 416.064 77.6296 418.581Z" fill="black"/>
<path d="M93.5219 410.885V414.573H91.225V416.863H93.5219V425.185C93.5219 427.968 94.7832 429.086 97.9564 429.086C98.514 429.086 99.0451 429.02 99.5098 428.94V426.663C99.1114 426.703 98.8592 426.73 98.4211 426.73C97.0004 426.73 96.3764 426.051 96.3764 424.493V416.863H99.5098V414.573H96.3764V410.885H93.5219Z" fill="black"/>
<path d="M115.057 414.533H112.202V423.015C112.202 425.345 110.941 426.756 108.631 426.756C106.533 426.756 105.591 425.611 105.591 423.215V414.533H102.736V423.92C102.736 427.316 104.515 429.273 107.715 429.273C109.906 429.273 111.379 428.341 112.083 426.703H112.309V428.993H115.057V414.533Z" fill="black"/>
<path d="M131.441 414.533H128.413L124.829 426.064H124.603L121.005 414.533H117.951L123.169 428.993H126.236L131.441 414.533Z" fill="black"/>
<path d="M153.161 414.533H150.307L147.731 425.691H147.505L144.531 414.533H141.796L138.822 425.691H138.61L136.021 414.533H133.127L137.11 428.993H140.044L143.018 418.208H143.244L146.231 428.993H149.192L153.161 414.533Z" fill="black"/>
<path d="M161.499 423.814L164.659 429.02H167.938L163.119 421.71L167.885 414.56H164.699L161.619 419.726H161.393L158.286 414.56H154.954L159.787 421.816L154.994 429.02H158.127L161.287 423.814H161.499Z" fill="black"/>
<path d="M172.36 434.239C175.307 434.239 176.675 433.134 177.909 429.659L183.3 414.533H180.273L176.661 426.117H176.436L172.811 414.533H169.704L174.935 429.033L174.723 429.779C174.232 431.31 173.462 431.883 172.107 431.883C171.842 431.883 171.404 431.869 171.178 431.829V434.173C171.444 434.213 172.121 434.239 172.36 434.239Z" fill="black"/>
<path d="M185.889 428.993H197.333V426.69H189.473V426.463L197.254 416.517V414.533H185.942V416.837H193.842V417.05L185.889 427.116V428.993Z" fill="black"/>
</svg>
