<svg width="36" height="40" viewBox="0 0 36 40" fill="none" xmlns="http://www.w3.org/2000/svg">
<path d="M16.1425 6.21224C16.1425 21.8062 16.1425 14.1018 16.1425 30.4403C14.5666 28.9359 12.7937 27.4969 10.9223 26.1887C8.95241 24.2918 6.78554 22.7874 3.63373 21.8062C3.63373 21.8062 3.63374 21.8062 3.53524 21.7408C3.33825 21.6754 3.14126 21.61 2.94428 21.5446C0.0879525 20.7597 -0.995478 23.5069 1.07289 24.5534C3.33825 25.7308 5.60361 27.039 7.67198 28.5434C8.65692 29.59 9.64186 30.7019 10.5283 31.6177C12.9907 34.1033 15.3545 36.6542 17.7184 39.2052C19.0973 40.6442 22.1506 39.9901 22.3476 38.3549C22.9385 33.1221 28.3557 28.0201 34.8563 25.2075C37.5156 24.0302 35.0533 21.2175 32.394 22.3949C27.7647 24.2918 23.825 27.1044 21.0672 30.3095C21.0672 19.1225 22.0521 22.0414 21.0672 6.21224C19.4272 -0.960107 15.1415 -3.11181 16.1425 6.21224Z" fill="#E7A153"/>
</svg>
