<svg width="24" height="24" viewBox="0 0 24 24" fill="none" xmlns="http://www.w3.org/2000/svg">
<path fill-rule="evenodd" clip-rule="evenodd" d="M21.0678 0C22.6861 0 24 1.31391 24 2.93222V21.0678C24 22.6861 22.6861 24 21.0678 24H2.93222C1.31391 24 0 22.6861 0 21.0678V2.93222C0 1.31391 1.31386 0 2.93222 0H21.0678V0ZM12 3.5625C7.34198 3.5625 3.5625 7.34198 3.5625 12C3.5625 16.658 7.34198 20.4375 12 20.4375C16.6489 20.4375 20.4375 16.658 20.4375 12C20.4375 7.34198 16.6489 3.5625 12 3.5625ZM12 19.2112C10.3344 19.2112 8.79713 18.6439 7.57992 17.6921C7.70803 17.4267 9.17227 14.6082 13.2354 13.1897C13.2536 13.1806 13.2629 13.1806 13.2811 13.1713C14.297 15.7977 14.7088 18.0033 14.8186 18.6347C13.9493 19.0099 12.9975 19.2112 12 19.2112ZM16.0174 17.9758C15.9442 17.5365 15.56 15.4317 14.6173 12.8419C16.8777 12.485 18.8543 13.0707 19.1013 13.1531C18.7903 15.1571 17.6373 16.8868 16.0174 17.9758V17.9758ZM4.7888 12.0091V11.7896C5.1 11.7987 8.5958 11.8444 12.1922 10.7646C12.4027 11.1672 12.5948 11.579 12.7778 11.9909C12.6863 12.0184 12.5857 12.0458 12.4941 12.0732C8.77875 13.272 6.80198 16.5481 6.63731 16.8227C5.49352 15.5507 4.7888 13.8577 4.7888 12.0091V12.0091ZM17.5732 7.45186C18.5798 8.67816 19.1839 10.243 19.2021 11.9359C18.9641 11.8901 16.5848 11.4052 14.1872 11.7072C14.1323 11.5882 14.0864 11.46 14.0316 11.3319C13.8851 10.9843 13.7204 10.6274 13.5557 10.2887C16.2097 9.20888 17.4175 7.65319 17.5732 7.45186V7.45186ZM8.93433 5.48423C9.12652 5.74055 10.4077 7.52508 11.6065 9.64814C8.23889 10.5449 5.26467 10.5266 4.94438 10.5266C5.41097 8.29373 6.92095 6.43598 8.93433 5.48423V5.48423ZM12 4.80703C13.8303 4.80703 15.5049 5.49352 16.777 6.61908C16.6489 6.80198 15.5598 8.25712 12.9975 9.21797C11.8169 7.0492 10.5084 5.27381 10.3071 4.99922C10.8469 4.87116 11.4142 4.80703 12 4.80703V4.80703Z" fill="white"/>
</svg>
