<svg width="112" height="161" viewBox="0 0 112 161" fill="none" xmlns="http://www.w3.org/2000/svg">
<path fill-rule="evenodd" clip-rule="evenodd" d="M54.1303 7.36045C59.1194 2.88438 65.6486 0.71228 73.7031 0.71228C86.1025 0.71228 95.5564 5.0356 102.074 13.7241C108.723 22.2927 112.001 35.6459 112.001 53.7989C112.001 71.9488 108.723 85.4219 102.074 94.2452C95.4246 103.063 84.1428 104.905 79.9717 105.349C79.2667 105.424 73.5446 105.672 70.9455 105.556C65.1442 107.62 61.1669 111.458 58.8464 117.201C56.641 111.047 52.6617 106.634 46.7437 103.815C52.7246 101.78 56.8089 97.9066 59.1701 92.0523C61.3457 98.1176 65.2398 102.482 71.0131 105.314C77.1662 104.724 79.9378 97.2103 82.128 91.2724C82.199 91.0802 82.2692 90.8896 82.339 90.701C84.7722 82.7465 86.5311 69.531 86.5311 52.0192C86.5311 35.7838 84.9489 23.8296 81.7547 16.1598C78.6863 8.48999 73.7361 4.736 66.9611 4.736C51.8739 4.736 44.2988 20.5041 44.2988 52.205C44.2988 53.5592 44.2479 60.1864 44.1992 66.5312C44.1497 72.9747 44.1024 79.127 44.113 79.1693C44.2329 82.7975 44.2988 86.5994 44.2988 90.5931V102.484L43.8674 158.971C43.8674 164.469 -0.000976562 150.969 -0.000976562 150.969V149.096L4.97016 149.672C8.80564 149.672 12.1766 148.743 14.9903 146.954C17.9299 145.292 19.3921 141.684 19.3921 136.19V17.5649C19.3921 12.3249 17.9299 8.83453 14.9903 7.17173C12.1766 5.50894 8.80564 4.73899 4.97016 4.736H3.66066V2.77059H44.113V27.6765H44.4876C46.0218 18.4727 49.27 11.7077 54.1303 7.36045Z" fill="#C56D44"/>
</svg>
