<svg width="24" height="24" viewBox="0 0 24 24" fill="none" xmlns="http://www.w3.org/2000/svg">
<path fill-rule="evenodd" clip-rule="evenodd" d="M21.0678 0C22.6861 0 24 1.31391 24 2.93222V21.0678C24 22.6861 22.6861 24 21.0678 24H2.93222C1.31391 24 0 22.6861 0 21.0678V2.93222C0 1.31391 1.31386 0 2.93222 0H21.0678ZM3.3043 5.91305H20.6956V18.2609H3.3043V5.91305ZM4.5177 7.72466V16.3117L8.99087 12.0515L4.5177 7.72466ZM18.4683 17.1189H5.38015L9.83923 12.8721L10.5962 13.6043L10.5968 13.6049C11.3479 14.3274 12.6689 14.3209 13.4085 13.6097L13.4088 13.6094L14.1557 12.8917L18.4683 17.1189ZM19.4822 16.446V7.77397L15.0144 12.0667L19.4822 16.446ZM5.52152 7.055L11.4538 12.7932L11.4541 12.7935C11.7325 13.0608 12.2838 13.0555 12.5518 12.7977L18.5287 7.055H5.52152Z" fill="white"/>
</svg>
