<svg width="24" height="24" viewBox="0 0 24 24" fill="none" xmlns="http://www.w3.org/2000/svg">
<path d="M8.97449 6.0249C9.41742 6.0249 9.77759 5.66473 9.77759 5.2218C9.77759 4.77905 9.41742 4.4187 8.97449 4.4187C8.53174 4.4187 8.17139 4.77905 8.17139 5.2218C8.17139 5.66473 8.53174 6.0249 8.97449 6.0249Z" fill="white"/>
<path d="M15.05 3.81555V0H5.20935C3.99994 0 3 0.977234 3 2.20935V21.7906C3 23.0002 3.9776 24 5.20935 24H18.7656C19.975 24 20.9751 23.0228 20.9751 21.7906V5.92493H17.1594C15.9963 5.92493 15.05 4.97882 15.05 3.81555ZM8.97491 19.4813H6.71558C6.32721 19.4813 6.01245 19.1664 6.01245 18.7782C6.01245 18.3898 6.32721 18.0751 6.71558 18.0751H8.97491C9.36328 18.0751 9.67804 18.3898 9.67804 18.7782C9.67804 19.1664 9.36328 19.4813 8.97491 19.4813ZM8.97491 16.4687H6.71558C6.32721 16.4687 6.01245 16.1539 6.01245 15.7656C6.01245 15.3774 6.32721 15.0624 6.71558 15.0624H8.97491C9.36328 15.0624 9.67804 15.3774 9.67804 15.7656C9.67804 16.1539 9.36328 16.4687 8.97491 16.4687ZM8.97491 13.4562H6.71558C6.32721 13.4562 6.01245 13.1415 6.01245 12.7531C6.01245 12.3647 6.32721 12.05 6.71558 12.05H8.97491C9.36328 12.05 9.67804 12.3647 9.67804 12.7531C9.67804 13.1415 9.36328 13.4562 8.97491 13.4562ZM6.71558 10.4438C6.32721 10.4438 6.01245 10.129 6.01245 9.74066V8.98682C6.01245 8.00079 6.49713 7.12646 7.24036 6.58777C6.94354 6.21149 6.76556 5.73724 6.76556 5.2218C6.76556 4.0036 7.75671 3.01245 8.97491 3.01245C10.1931 3.01245 11.1843 4.0036 11.1843 5.2218C11.1843 5.73724 11.0065 6.21167 10.7095 6.58795C11.4527 7.12646 11.9374 8.00079 11.9374 8.98663V9.74066C11.9374 10.129 11.6226 10.4438 11.2343 10.4438H6.71558ZM17.2593 19.4813H11.9875C11.5992 19.4813 11.2844 19.1664 11.2844 18.7782C11.2844 18.3898 11.5992 18.0751 11.9875 18.0751H17.2593C17.6477 18.0751 17.9625 18.3898 17.9625 18.7782C17.9625 19.1664 17.6477 19.4813 17.2593 19.4813ZM17.2593 16.4687H11.9875C11.5992 16.4687 11.2844 16.1539 11.2844 15.7656C11.2844 15.3774 11.5992 15.0624 11.9875 15.0624H17.2593C17.6477 15.0624 17.9625 15.3774 17.9625 15.7656C17.9625 16.1539 17.6477 16.4687 17.2593 16.4687ZM17.9625 12.7531C17.9625 13.1415 17.6477 13.4562 17.2593 13.4562H11.9875C11.5992 13.4562 11.2844 13.1415 11.2844 12.7531C11.2844 12.3647 11.5992 12.05 11.9875 12.05H17.2593C17.6477 12.05 17.9625 12.3647 17.9625 12.7531Z" fill="white"/>
<path d="M8.97559 7.43115C8.11627 7.43115 7.41846 8.12897 7.41846 8.98682V9.03754H10.5311V8.98682C10.5309 8.12897 9.83325 7.43115 8.97559 7.43115Z" fill="white"/>
<path d="M20.7689 3.97156L17.0032 0.205994C16.8713 0.0739746 16.6926 0 16.506 0H16.4561V3.81555C16.4561 4.20392 16.7708 4.51868 17.1592 4.51868H20.9747V4.46869C20.9747 4.28229 20.9008 4.10339 20.7689 3.97156V3.97156Z" fill="white"/>
</svg>
