<svg width="46" height="46" viewBox="0 0 46 46" fill="none" xmlns="http://www.w3.org/2000/svg">
<path opacity="0.4" fill-rule="evenodd" clip-rule="evenodd" d="M23 46C35.7025 46 46 35.7025 46 23C46 10.2975 35.7025 0 23 0C10.2975 0 0 10.2975 0 23C0 35.7025 10.2975 46 23 46ZM21.8539 10.9858C22.3473 10.4919 23.1469 10.4919 23.6408 10.9858L35.0144 22.3599C35.5083 22.8533 35.5083 23.6529 35.0144 24.1468C34.7673 24.3935 34.4442 24.5168 34.1207 24.5168C33.7972 24.5168 33.4742 24.3935 33.227 24.1463L24.0108 14.9301V33.363C24.0108 34.0611 23.4452 34.6267 22.7471 34.6267C22.049 34.6267 21.4834 34.0611 21.4834 33.363V14.9301L12.2672 24.1463C11.7738 24.6402 10.9741 24.6397 10.4803 24.1463C9.9864 23.6529 9.9864 22.8533 10.4803 22.3594L21.8539 10.9858Z" fill="black" fill-opacity="0.5"/>
</svg>
