<svg width="301" height="42" viewBox="0 0 301 42" fill="none" xmlns="http://www.w3.org/2000/svg">
<path d="M0 2.70382C0 1.21054 1.28754 0 2.8758 0H298.124C299.712 0 301 1.21054 301 2.70382V38.7548C301 40.2481 299.712 41.4586 298.124 41.4586H2.8758C1.28754 41.4586 0 40.2481 0 38.7548V2.70382Z" fill="#F0E6E2"/>
<path d="M0 2.70382C0 1.21054 1.28754 0 2.8758 0H232.807C234.395 0 235.683 1.21054 235.683 2.70382V38.7548C235.683 40.2481 234.395 41.4586 232.807 41.4586H2.8758C1.28754 41.4586 0 40.2481 0 38.7548V2.70382Z" fill="#C66D44"/>
<path d="M40.6602 30L47.0938 15.9375H38.6445V12.8906H50.9375V15.1641L44.457 30H40.6602ZM58.8181 12.6445C60.4587 12.6445 61.7791 13.0195 62.7791 13.7695C63.7869 14.5117 64.2908 15.5156 64.2908 16.7812C64.2908 17.6562 64.0486 18.4375 63.5642 19.125C63.0798 19.8047 62.2986 20.4141 61.2205 20.9531C62.5017 21.6406 63.4197 22.3594 63.9744 23.1094C64.5369 23.8516 64.8181 24.668 64.8181 25.5586C64.8181 26.9648 64.2673 28.0977 63.1658 28.957C62.0642 29.8086 60.615 30.2344 58.8181 30.2344C56.9431 30.2344 55.4705 29.8359 54.4002 29.0391C53.3298 28.2422 52.7947 27.1133 52.7947 25.6523C52.7947 24.6758 53.0525 23.8086 53.5681 23.0508C54.0916 22.293 54.9275 21.625 56.0759 21.0469C55.0994 20.4297 54.3962 19.7695 53.9666 19.0664C53.5369 18.3633 53.322 17.5938 53.322 16.7578C53.322 15.5312 53.8298 14.5391 54.8455 13.7812C55.8611 13.0234 57.1853 12.6445 58.8181 12.6445ZM56.1462 25.4414C56.1462 26.1133 56.3806 26.6367 56.8494 27.0117C57.3181 27.3867 57.9587 27.5742 58.7712 27.5742C59.6697 27.5742 60.3416 27.3828 60.7869 27C61.2322 26.6094 61.4548 26.0977 61.4548 25.4648C61.4548 24.9414 61.2322 24.4531 60.7869 24C60.3494 23.5391 59.6345 23.0508 58.6423 22.5352C56.9783 23.3008 56.1462 24.2695 56.1462 25.4414ZM58.7947 15.293C58.1775 15.293 57.6775 15.4531 57.2947 15.7734C56.9197 16.0859 56.7322 16.5078 56.7322 17.0391C56.7322 17.5078 56.8806 17.9297 57.1775 18.3047C57.4822 18.6719 58.0291 19.0508 58.8181 19.4414C59.5837 19.082 60.1189 18.7148 60.4236 18.3398C60.7283 17.9648 60.8806 17.5312 60.8806 17.0391C60.8806 16.5 60.6853 16.0742 60.2947 15.7617C59.9041 15.4492 59.4041 15.293 58.7947 15.293ZM67.273 28.3242C67.273 27.668 67.4487 27.1719 67.8003 26.8359C68.1519 26.5 68.6636 26.332 69.3355 26.332C69.9839 26.332 70.4839 26.5039 70.8355 26.8477C71.1948 27.1914 71.3745 27.6836 71.3745 28.3242C71.3745 28.9414 71.1948 29.4297 70.8355 29.7891C70.4761 30.1406 69.9761 30.3164 69.3355 30.3164C68.6792 30.3164 68.1714 30.1445 67.812 29.8008C67.4527 29.4492 67.273 28.957 67.273 28.3242ZM85.2552 16.6992C85.2552 17.7695 84.9309 18.6797 84.2825 19.4297C83.6341 20.1797 82.7239 20.6953 81.552 20.9766V21.0469C82.9348 21.2188 83.9817 21.6406 84.6927 22.3125C85.4036 22.9766 85.7591 23.875 85.7591 25.0078C85.7591 26.6562 85.1614 27.9414 83.9661 28.8633C82.7708 29.7773 81.0638 30.2344 78.845 30.2344C76.9856 30.2344 75.3372 29.9258 73.8997 29.3086V26.2266C74.5638 26.5625 75.2942 26.8359 76.0911 27.0469C76.888 27.2578 77.677 27.3633 78.4583 27.3633C79.6536 27.3633 80.5364 27.1602 81.1067 26.7539C81.677 26.3477 81.9622 25.6953 81.9622 24.7969C81.9622 23.9922 81.6341 23.4219 80.9778 23.0859C80.3216 22.75 79.2747 22.582 77.8372 22.582H76.5364V19.8047H77.8606C79.1888 19.8047 80.1575 19.6328 80.7669 19.2891C81.3841 18.9375 81.6927 18.3398 81.6927 17.4961C81.6927 16.1992 80.8802 15.5508 79.2552 15.5508C78.6927 15.5508 78.1184 15.6445 77.5325 15.832C76.9544 16.0195 76.3098 16.3438 75.5989 16.8047L73.9231 14.3086C75.4856 13.1836 77.3489 12.6211 79.513 12.6211C81.2864 12.6211 82.6848 12.9805 83.7083 13.6992C84.7395 14.418 85.2552 15.418 85.2552 16.6992ZM90.628 18C90.628 18.9922 90.7139 19.7344 90.8858 20.2266C91.0655 20.7109 91.3506 20.9531 91.7412 20.9531C92.4912 20.9531 92.8662 19.9688 92.8662 18C92.8662 16.0469 92.4912 15.0703 91.7412 15.0703C91.3506 15.0703 91.0655 15.3125 90.8858 15.7969C90.7139 16.2734 90.628 17.0078 90.628 18ZM95.8194 17.9766C95.8194 19.7734 95.4717 21.125 94.7764 22.0312C94.0811 22.9297 93.0616 23.3789 91.7178 23.3789C90.4287 23.3789 89.4327 22.918 88.7295 21.9961C88.0264 21.0664 87.6748 19.7266 87.6748 17.9766C87.6748 14.4062 89.0225 12.6211 91.7178 12.6211C93.0381 12.6211 94.0498 13.0859 94.753 14.0156C95.4639 14.9375 95.8194 16.2578 95.8194 17.9766ZM103.882 12.8672L94.378 30H91.5655L101.069 12.8672H103.882ZM102.628 24.8438C102.628 25.8359 102.714 26.5781 102.886 27.0703C103.065 27.5547 103.351 27.7969 103.741 27.7969C104.491 27.7969 104.866 26.8125 104.866 24.8438C104.866 22.8906 104.491 21.9141 103.741 21.9141C103.351 21.9141 103.065 22.1562 102.886 22.6406C102.714 23.1172 102.628 23.8516 102.628 24.8438ZM107.819 24.8203C107.819 26.6094 107.472 27.957 106.776 28.8633C106.081 29.7617 105.062 30.2109 103.718 30.2109C102.429 30.2109 101.433 29.75 100.73 28.8281C100.026 27.8984 99.6748 26.5625 99.6748 24.8203C99.6748 21.25 101.022 19.4648 103.718 19.4648C105.038 19.4648 106.05 19.9297 106.753 20.8594C107.464 21.7812 107.819 23.1016 107.819 24.8203Z" fill="white"/>
</svg>
