<svg width="301" height="42" viewBox="0 0 301 42" fill="none" xmlns="http://www.w3.org/2000/svg">
<path d="M0 2.70382C0 1.21054 1.28754 0 2.8758 0H298.124C299.712 0 301 1.21054 301 2.70382V38.7548C301 40.2481 299.712 41.4586 298.124 41.4586H2.8758C1.28754 41.4586 0 40.2481 0 38.7548V2.70382Z" fill="#F0E6E2"/>
<path d="M0 2.70382C0 1.21054 1.28754 0 2.8758 0H207.824C209.412 0 210.7 1.21054 210.7 2.70382V38.7548C210.7 40.2481 209.412 41.4586 207.824 41.4586H2.8758C1.28755 41.4586 0 40.2481 0 38.7548V2.70382Z" fill="#E8A153"/>
<path d="M40.6602 30L47.0938 15.9375H38.6445V12.8906H50.9375V15.1641L44.457 30H40.6602ZM64.7947 21.4336C64.7947 24.4258 64.3025 26.6406 63.3181 28.0781C62.3416 29.5156 60.8337 30.2344 58.7947 30.2344C56.8181 30.2344 55.3259 29.4922 54.3181 28.0078C53.3181 26.5234 52.8181 24.332 52.8181 21.4336C52.8181 18.4102 53.3064 16.1836 54.283 14.7539C55.2595 13.3164 56.7634 12.5977 58.7947 12.5977C60.7712 12.5977 62.2634 13.3477 63.2712 14.8477C64.2869 16.3477 64.7947 18.543 64.7947 21.4336ZM56.4158 21.4336C56.4158 23.5352 56.5955 25.043 56.9548 25.957C57.322 26.8633 57.9353 27.3164 58.7947 27.3164C59.6384 27.3164 60.2478 26.8555 60.6228 25.9336C60.9978 25.0117 61.1853 23.5117 61.1853 21.4336C61.1853 19.332 60.9939 17.8242 60.6111 16.9102C60.2361 15.9883 59.6306 15.5273 58.7947 15.5273C57.9431 15.5273 57.3337 15.9883 56.9666 16.9102C56.5994 17.8242 56.4158 19.332 56.4158 21.4336ZM69.5933 18C69.5933 18.9922 69.6792 19.7344 69.8511 20.2266C70.0308 20.7109 70.3159 20.9531 70.7066 20.9531C71.4566 20.9531 71.8316 19.9688 71.8316 18C71.8316 16.0469 71.4566 15.0703 70.7066 15.0703C70.3159 15.0703 70.0308 15.3125 69.8511 15.7969C69.6792 16.2734 69.5933 17.0078 69.5933 18ZM74.7847 17.9766C74.7847 19.7734 74.437 21.125 73.7417 22.0312C73.0464 22.9297 72.0269 23.3789 70.6831 23.3789C69.3941 23.3789 68.398 22.918 67.6948 21.9961C66.9917 21.0664 66.6402 19.7266 66.6402 17.9766C66.6402 14.4062 67.9878 12.6211 70.6831 12.6211C72.0034 12.6211 73.0152 13.0859 73.7183 14.0156C74.4292 14.9375 74.7847 16.2578 74.7847 17.9766ZM82.8472 12.8672L73.3433 30H70.5308L80.0347 12.8672H82.8472ZM81.5933 24.8438C81.5933 25.8359 81.6792 26.5781 81.8511 27.0703C82.0308 27.5547 82.3159 27.7969 82.7066 27.7969C83.4566 27.7969 83.8316 26.8125 83.8316 24.8438C83.8316 22.8906 83.4566 21.9141 82.7066 21.9141C82.3159 21.9141 82.0308 22.1562 81.8511 22.6406C81.6792 23.1172 81.5933 23.8516 81.5933 24.8438ZM86.7847 24.8203C86.7847 26.6094 86.437 27.957 85.7417 28.8633C85.0464 29.7617 84.0269 30.2109 82.6831 30.2109C81.3941 30.2109 80.398 29.75 79.6948 28.8281C78.9917 27.8984 78.6402 26.5625 78.6402 24.8203C78.6402 21.25 79.9878 19.4648 82.6831 19.4648C84.0034 19.4648 85.0152 19.9297 85.7183 20.8594C86.4292 21.7812 86.7847 23.1016 86.7847 24.8203Z" fill="white"/>
</svg>
