<svg width="301" height="42" viewBox="0 0 301 42" fill="none" xmlns="http://www.w3.org/2000/svg">
<path d="M0 2.70382C0 1.21054 1.28754 0 2.8758 0H298.124C299.712 0 301 1.21054 301 2.70382V38.7548C301 40.2481 299.712 41.4586 298.124 41.4586H2.8758C1.28754 41.4586 0 40.2481 0 38.7548V2.70382Z" fill="#F0E6E2"/>
<path d="M0 2.70382C0 1.21054 1.28754 0 2.8758 0H285.181C286.769 0 288.057 1.21054 288.057 2.70382V38.7548C288.057 40.2481 286.769 41.4586 285.181 41.4586H2.87579C1.28754 41.4586 0 40.2481 0 38.7548V2.70382Z" fill="#425458"/>
<path d="M50.8672 18.1797C50.8672 21.5547 50.1562 24.0742 48.7344 25.7383C47.3125 27.4023 45.1602 28.2344 42.2773 28.2344C41.2617 28.2344 40.4922 28.1797 39.9688 28.0703V25.1641C40.625 25.3281 41.3125 25.4102 42.0312 25.4102C43.2422 25.4102 44.2383 25.2344 45.0195 24.8828C45.8008 24.5234 46.3984 23.9648 46.8125 23.207C47.2266 22.4414 47.4648 21.3906 47.5273 20.0547H47.3867C46.9336 20.7891 46.4102 21.3047 45.8164 21.6016C45.2227 21.8984 44.4805 22.0469 43.5898 22.0469C42.0977 22.0469 40.9219 21.5703 40.0625 20.6172C39.2031 19.6562 38.7734 18.3242 38.7734 16.6211C38.7734 14.7852 39.293 13.3359 40.332 12.2734C41.3789 11.2031 42.8008 10.668 44.5977 10.668C45.8633 10.668 46.9688 10.9648 47.9141 11.5586C48.8672 12.1523 49.5977 13.0156 50.1055 14.1484C50.6133 15.2734 50.8672 16.6172 50.8672 18.1797ZM44.668 13.5742C43.918 13.5742 43.332 13.832 42.9102 14.3477C42.4883 14.8633 42.2773 15.6055 42.2773 16.5742C42.2773 17.4023 42.4688 18.0586 42.8516 18.543C43.2344 19.0273 43.8164 19.2695 44.5977 19.2695C45.332 19.2695 45.9609 19.0312 46.4844 18.5547C47.0078 18.0703 47.2695 17.5156 47.2695 16.8906C47.2695 15.9609 47.0234 15.1758 46.5312 14.5352C46.0469 13.8945 45.4258 13.5742 44.668 13.5742ZM59.1462 17.0547C60.8025 17.0547 62.1189 17.5195 63.0955 18.4492C64.0798 19.3789 64.572 20.6523 64.572 22.2695C64.572 24.1836 63.9822 25.6562 62.8025 26.6875C61.6228 27.7188 59.9353 28.2344 57.74 28.2344C55.8337 28.2344 54.2947 27.9258 53.1228 27.3086V24.1797C53.74 24.5078 54.4587 24.7773 55.2791 24.9883C56.0994 25.1914 56.8767 25.293 57.6111 25.293C59.822 25.293 60.9275 24.3867 60.9275 22.5742C60.9275 20.8477 59.783 19.9844 57.4939 19.9844C57.0798 19.9844 56.6228 20.0273 56.1228 20.1133C55.6228 20.1914 55.2166 20.2773 54.9041 20.3711L53.4627 19.5977L54.1072 10.8672H63.4002V13.9375H57.283L56.9666 17.3008L57.3767 17.2188C57.8533 17.1094 58.4431 17.0547 59.1462 17.0547ZM67.273 26.3242C67.273 25.668 67.4487 25.1719 67.8003 24.8359C68.1519 24.5 68.6636 24.332 69.3355 24.332C69.9839 24.332 70.4839 24.5039 70.8355 24.8477C71.1948 25.1914 71.3745 25.6836 71.3745 26.3242C71.3745 26.9414 71.1948 27.4297 70.8355 27.7891C70.4761 28.1406 69.9761 28.3164 69.3355 28.3164C68.6792 28.3164 68.1714 28.1445 67.812 27.8008C67.4527 27.4492 67.273 26.957 67.273 26.3242ZM75.6458 28L82.0794 13.9375H73.6302V10.8906H85.9231V13.1641L79.4427 28H75.6458ZM90.628 16C90.628 16.9922 90.7139 17.7344 90.8858 18.2266C91.0655 18.7109 91.3506 18.9531 91.7412 18.9531C92.4912 18.9531 92.8662 17.9688 92.8662 16C92.8662 14.0469 92.4912 13.0703 91.7412 13.0703C91.3506 13.0703 91.0655 13.3125 90.8858 13.7969C90.7139 14.2734 90.628 15.0078 90.628 16ZM95.8194 15.9766C95.8194 17.7734 95.4717 19.125 94.7764 20.0312C94.0811 20.9297 93.0616 21.3789 91.7178 21.3789C90.4287 21.3789 89.4327 20.918 88.7295 19.9961C88.0264 19.0664 87.6748 17.7266 87.6748 15.9766C87.6748 12.4062 89.0225 10.6211 91.7178 10.6211C93.0381 10.6211 94.0498 11.0859 94.753 12.0156C95.4639 12.9375 95.8194 14.2578 95.8194 15.9766ZM103.882 10.8672L94.378 28H91.5655L101.069 10.8672H103.882ZM102.628 22.8438C102.628 23.8359 102.714 24.5781 102.886 25.0703C103.065 25.5547 103.351 25.7969 103.741 25.7969C104.491 25.7969 104.866 24.8125 104.866 22.8438C104.866 20.8906 104.491 19.9141 103.741 19.9141C103.351 19.9141 103.065 20.1562 102.886 20.6406C102.714 21.1172 102.628 21.8516 102.628 22.8438ZM107.819 22.8203C107.819 24.6094 107.472 25.957 106.776 26.8633C106.081 27.7617 105.062 28.2109 103.718 28.2109C102.429 28.2109 101.433 27.75 100.73 26.8281C100.026 25.8984 99.6748 24.5625 99.6748 22.8203C99.6748 19.25 101.022 17.4648 103.718 17.4648C105.038 17.4648 106.05 17.9297 106.753 18.8594C107.464 19.7812 107.819 21.1016 107.819 22.8203Z" fill="white"/>
</svg>
