<svg width="261" height="283" viewBox="0 0 261 283" fill="none" xmlns="http://www.w3.org/2000/svg">
<path d="M220.315 262.484C246.168 254.163 249.089 226.247 228.245 213.379C189.374 190.716 204.826 222.123 185.03 229.529C169.193 235.454 161.076 248.344 167.32 257.299C177.429 270.319 194.461 270.805 220.315 262.484Z" fill="#EFF3F5"/>
<path d="M110.232 39.8486C85.0739 13.4973 60.06 31.3275 50.6977 43.5365C34.4721 79.1838 27.4585 86.7721 42.164 120.356C56.8694 153.941 39.4168 157.227 36.7988 169.001C34.1807 180.776 17.083 205.306 49.4677 236.815C81.8524 268.324 114.27 248.431 125.098 222.575C133.76 201.89 152.839 192.699 161.297 190.688C249.434 185.376 244.619 127.365 239.125 110.85C233.631 94.3349 225.648 64.4992 188.027 56.5399C150.406 48.5807 141.679 72.7877 110.232 39.8486Z" fill="#EFF3F5"/>
<path d="M183.281 180.952C182.148 187.238 180.889 193.461 181.342 199.923C181.489 202.107 182.044 204.257 183.979 205.473C186.197 206.909 189.582 207.02 192.152 207.197C194.678 207.369 197.888 207.771 200.285 206.933C202.775 206.064 202.984 203.569 203.432 201.288C204.553 195.091 205.009 188.845 204.751 182.591C204.724 182.136 204.346 181.633 203.919 181.483C203.831 181.471 203.749 181.415 203.662 181.403C203.197 181.203 202.596 181.344 202.272 181.75C202.216 181.832 202.439 181.549 202.383 181.631C202.058 182.036 201.139 181.196 201.927 181.725C201.965 181.775 201.937 181.065 201.664 181.196C201.537 180.818 202.977 180.403 202.664 181.439C202.189 181.989 202.452 183.31 202.452 188.332C202.367 190.573 202.231 194.314 201.927 196.524C201.635 198.647 200.934 201.522 199.826 203.396C198.706 205.358 192.798 205.42 190.898 205.246C188.911 205.059 185.98 204.404 184.24 203.396C182.38 202.28 182.608 199.167 182.758 195.996C183.021 190.446 183.916 186.087 184.24 181.13C184.337 180.423 183.416 180.294 183.281 180.952Z" fill="black"/>
<path d="M184.309 181.275C187.251 183.307 191.331 183.56 194.822 183.551C197.416 183.552 201.974 183.916 203.303 181.082C203.806 180.026 202.662 179.236 201.736 179.467C201.548 179.531 201.366 179.551 201.178 179.615C200.621 179.762 200.412 180.634 200.802 181.049C200.916 181.2 201.035 181.307 201.149 181.458C201.381 181.716 201.777 181.771 201.995 181.486C202.101 181.365 202.163 181.239 202.275 181.074C201.818 181.146 201.411 181.179 200.953 181.251C201.117 181.364 201.28 181.476 201.45 181.545C201.641 180.806 201.826 180.11 202.061 179.377C200.871 179.572 199.783 180.006 198.555 180.15C196.92 180.328 195.26 180.367 193.611 180.318C190.666 180.268 187.63 179.575 184.717 179.935C184.072 180.071 183.775 180.93 184.309 181.275Z" fill="black"/>
<path d="M184.961 179.789C185.138 180.129 189.898 179.35 190.305 179.317C192.054 179.29 193.978 179.288 195.727 179.576C196.298 179.656 196.601 178.752 195.999 178.578C192.73 177.627 189.651 177.243 186.276 178.035C185.35 178.266 182.514 179.043 184.112 180.437C184.508 180.807 185.208 180.274 184.961 179.789Z" fill="black"/>
<path d="M204.309 187.756C204.771 187.325 206.918 185.389 207.494 185.424C208.867 185.526 209.279 187.186 209.279 188.596C209.041 190.005 208.492 191.028 206.653 192.56C205.542 193.487 202.437 194.21 203.277 195.904C203.631 196.585 204.265 196.853 204.966 196.635C205.811 196.347 205.779 196.45 206.391 195.904C207.059 195.276 206.969 195.467 208.229 193.881C210.33 191.239 210.953 189.538 210.624 187.374C210.329 185.621 209.388 184.003 207.494 183.784C205.243 183.561 204.305 185.503 203.448 187.186C203.299 187.616 203.903 188.105 204.309 187.756Z" fill="black"/>
<path d="M190.96 168.052C189.736 169.143 188.412 170.311 188.971 172.101C189.251 172.996 190.074 173.516 190.353 174.412C190.651 175.174 190.636 175.938 191.121 176.636C191.266 176.882 191.667 176.893 191.867 176.74C192.861 176.023 192.899 174.766 192.469 173.67C192.234 173.096 191.906 172.555 191.522 172.096C190.558 170.97 190.786 169.965 191.621 168.775C191.995 168.331 191.416 167.665 190.96 168.052Z" fill="black"/>
<path d="M197.39 165.208C195.644 165.866 194.328 167.305 194.286 169.236C194.278 170.272 194.589 171.261 195.138 172.149C195.548 172.747 195.875 172.973 196.041 173.717C196.276 174.606 195.842 175.492 195.676 176.37C195.4 177.728 197.314 178.446 198.125 177.432C199.159 176.089 199.615 174.079 198.943 172.454C198.614 171.597 197.86 171.221 197.337 170.473C196.316 169.114 196.753 167.237 197.895 166.089C198.307 165.696 197.953 165.016 197.39 165.208Z" fill="black"/>
<path d="M185.803 186.35C185.355 189.938 184.694 193.766 185.267 197.406C185.466 198.56 185.729 199.904 186.541 200.828C186.812 201.136 188.558 202.1 188.23 201.559C188.526 202.006 189.29 201.662 189.181 201.151C189.187 201.107 189.149 201.056 189.155 201.012C189.104 200.734 188.947 200.577 188.683 200.541C186.902 200.157 186.964 195.479 186.97 194.128C186.966 191.559 186.917 188.984 186.781 186.396C186.735 185.759 185.838 185.769 185.803 186.35Z" fill="black"/>
<path d="M130.889 173.932C132.319 177.12 135.815 185.727 140.583 184.293C142.729 183.655 144.636 181.185 146.225 179.67C148.212 177.758 150.993 175.526 152.185 172.976C152.423 172.498 152.582 171.78 152.185 171.302C150.596 169.15 148.005 169.039 144.946 169.039C142.32 169.039 140.814 169.039 138.907 169.039C136.544 169.039 134.968 169.303 134.443 169.303C134.761 169.622 134.703 170.107 135.021 170.425C135.021 170.346 135.021 170.266 135.021 170.186C134.703 170.505 135.172 169.708 134.854 170.027C134.933 170.027 134.876 169.66 134.782 170.186C135.339 170.186 135.259 170.425 135.021 170.027C135.021 169.947 134.941 169.868 134.941 169.788C134.782 169.469 136.281 169.303 134.443 169.303C134.443 169.383 133.829 169.469 133.749 169.469C133.114 169.708 131.762 169.723 132.08 170.36C133.674 170.36 137.922 170.625 139.432 170.625C141.26 170.625 146.795 170.73 148.622 170.889C149.735 170.969 148.36 174.589 149.404 172.976C149.404 172.418 149.404 171.86 149.404 171.302C148.53 173.056 147.873 174.82 146.522 176.175C145.171 177.529 142.597 180.504 141.007 181.46C139.974 182.098 139.63 181.105 138.279 180.308C137.563 179.909 136.928 178.873 136.372 178.236C134.862 176.562 133.511 174.729 132.08 172.976C131.445 172.259 130.491 173.215 130.889 173.932Z" fill="black"/>
<path d="M141.696 173.852C140.663 175.287 139.391 176.642 138.994 178.395C138.914 178.953 139.471 179.511 140.027 179.192C141.616 178.236 142.57 176.483 143.603 174.968C144.477 173.773 142.491 172.737 141.696 173.852Z" fill="black"/>
<path d="M142.014 206.369C144.08 212.346 142.014 219.838 141.219 225.895C141.14 226.692 142.411 226.692 142.491 225.895C143.285 219.599 145.511 212.187 143.126 206.05C142.888 205.333 141.775 205.652 142.014 206.369Z" fill="black"/>
<path d="M92.9905 209.28C90.4086 213.402 86.8687 219.16 83.2287 224.78C82.6811 225.648 81.0482 226.934 80.8293 226.777C79.766 225.95 79.5337 224.907 79.3001 223.745C78.498 219.656 77.3702 215.387 76.6742 211.241C75.1683 202.271 73.2566 193.369 71.7196 184.443C71.593 183.689 71.7524 182.344 72.0831 182.249C73.0752 181.964 74.4233 181.735 75.3046 182.167C81.93 185.382 88.5058 188.76 95.1 192.019C96.6564 192.801 98.2751 193.495 99.8626 194.233C101.581 195.065 102.028 196.579 100.908 198.165C98.5611 201.394 96.3204 204.566 92.9905 209.28ZM86.9206 214.421C86.2514 213.876 85.7076 213.62 85.3632 213.174C84.9624 212.622 84.0714 211.48 83.764 210.796C84.3885 210.844 85.8707 211.15 86.3084 211.463C88.5789 213.287 88.993 211.394 89.4657 210.538C89.4657 208.681 87.5481 208.681 87.5481 207.376C89.1236 205.518 89.8534 208.03 91.1404 208.354C91.7005 207.561 92.2607 206.768 92.6341 206.239C91.6827 205.161 90.0562 203.732 90.2303 203.392C91.5801 201.108 92.7545 204.203 94.2144 203.722C94.6812 203.061 95.2103 202.312 95.8638 201.387C95.0263 200.987 94.2267 200.813 93.7636 200.349C93.3006 199.885 93.0554 199.112 92.7168 198.472C93.3471 198.326 93.6522 198.335 94.2144 198.472C95.1015 198.709 95.793 199.372 96.8932 199.96C97.177 198.439 99.8746 196.828 97.5867 195.589C91.3231 192.235 84.9973 188.969 78.6404 185.747C77.2464 185.015 74.3481 183.899 73.5232 183.575C74.4939 196.153 78.7749 210.267 81.2841 223.521C82.2858 221.916 83.3312 220.343 84.0654 219.21C81.6633 217.931 82.815 216.796 82.1885 215.817C83.4063 215.959 84.4142 216.011 85.8694 216.19C86.0435 215.85 86.4354 215.202 86.9206 214.421Z" fill="black"/>
<path d="M87.9598 204.088C87.176 205.385 86.5546 206.731 85.6832 207.965C85.2475 208.581 84.449 208.872 83.8382 209.364C83.4996 208.724 83.0112 208.109 82.7786 207.412C81.9406 204.026 81.1026 200.641 80.3833 197.274C80.2821 196.671 80.2985 195.622 80.6476 195.407C81.24 195.035 82.2574 194.901 82.845 195.189C85.1768 196.459 87.4463 197.818 89.5603 199.397C89.9981 199.71 89.9574 201.074 89.7279 201.772C89.4177 202.677 88.6513 203.389 88.06 204.226C88.0036 204.12 88.0036 204.12 87.9598 204.088ZM84.0272 207.36C85.4588 205.334 88.1586 202.339 89.279 200.753C87.5221 199.695 82.9767 196.789 81.6637 197.053C82.3071 199.967 83.4149 204.402 84.0272 207.36Z" fill="black"/>
<path d="M80.9351 162.547C87.6073 164.632 91.8465 168.375 94.7937 173.907C96.495 177.149 98.9223 179.991 100.962 183.046C101.249 183.458 101.863 184.007 101.775 184.308C101.109 186.322 102.588 188.23 102.251 189.809C101.888 191.339 99.8332 192.535 98.5227 193.827C94.7861 190.314 92.0313 186.639 89.6812 182.551C87.6445 178.924 84.7365 175.777 82.9684 172.065C81.7524 169.253 81.6543 165.95 80.9351 162.547ZM95.209 187.737C100.231 185.286 100.231 185.286 97.4621 181.239C95.634 178.573 93.7576 175.935 91.9515 173.194C90.8784 171.569 89.9287 169.939 88.904 168.287C84.7952 171.375 84.7952 171.375 87.1845 175.188C87.2376 175.285 87.2641 175.334 87.3171 175.431C89.8874 179.461 92.5107 183.588 95.209 187.737ZM96.6474 189.224C97.6617 189.932 98.3763 190.551 99.2269 190.842C99.4781 190.957 100.459 190.1 100.423 189.803C100.294 188.988 99.795 188.186 99.3397 187.234C98.3808 188.016 97.6812 188.465 96.6474 189.224ZM83.8408 169.621C84.0921 169.736 84.3434 169.851 84.5462 169.992C85.3069 169.193 86.041 168.345 86.7533 167.573C86.6208 167.329 86.4617 167.037 86.3291 166.793C85.5189 166.923 84.3513 166.743 83.9733 167.205C83.5953 167.667 83.8569 168.726 83.8408 169.621Z" fill="black"/>
<path d="M185.578 177.445C181.18 170.141 174.133 163.896 166.808 159.621C166.151 159.199 165.478 160.227 166.135 160.65C172.938 165.962 179.106 171.694 185.578 177.445Z" fill="black"/>
<path d="M92.8269 172.923C98.5971 166.661 106.751 161.975 114.781 159.275C115.509 158.994 115.962 160.138 115.234 160.419C107.507 164.241 100.317 168.604 92.8269 172.923Z" fill="black"/>
<path d="M112.216 174.447C110.86 169.372 112.203 163.795 115.026 159.037C115.254 158.591 116.429 158.82 116.201 159.265C114.443 164.313 113.439 169.319 112.216 174.447Z" fill="black"/>
<path d="M98.3502 218.072C95.9352 210.08 96.5659 200.891 99.0478 192.809C99.2379 192.058 100.637 192.257 100.447 193.008C99.2487 201.404 98.9158 209.623 98.3502 218.072Z" fill="black"/>
<path d="M181.628 201.536C183.737 207.086 182.761 213.49 179.978 219.135C179.76 219.659 178.371 219.529 178.589 219.005C180.102 213.15 180.745 207.423 181.628 201.536Z" fill="black"/>
<path d="M133.833 166.239C128.526 171.198 121.145 174.278 113.93 175.504C113.275 175.649 112.905 174.495 113.56 174.35C120.537 172.015 127.052 169.082 133.833 166.239Z" fill="black"/>
<path d="M163.238 176.484C156.528 175.766 150.29 171.775 145.64 166.475C145.19 166.02 145.938 164.794 146.388 165.248C151.817 169.473 157.497 172.828 163.238 176.484Z" fill="black"/>
<path d="M166.488 158.178C168.402 163.999 167.131 170.563 164.05 176.264C163.805 176.795 162.393 176.599 162.638 176.068C164.433 170.094 165.334 164.214 166.488 158.178Z" fill="black"/>
<path d="M155.131 112.116C159.325 114.868 162.282 111.713 163.236 109.792C164.491 104.524 165.249 103.293 162.296 99.2513C159.344 95.2101 161.659 94.2338 161.696 92.5779C161.732 90.9219 163.414 87.1143 158.081 83.8942C152.749 80.6742 148.828 84.3325 148.048 88.1249C147.424 91.1588 145.047 92.9752 143.936 93.5042C131.932 96.9251 134.194 104.539 135.407 106.579C136.619 108.62 138.541 112.366 143.947 112.275C149.352 112.183 149.888 108.676 155.131 112.116Z" fill="black" stroke="black"/>
<path d="M111.123 130.11C112.483 131.002 113.442 129.979 113.751 129.356C114.158 127.648 114.404 127.249 113.446 125.938C112.489 124.628 113.24 124.312 113.252 123.775C113.264 123.238 113.809 122.003 112.08 120.959C110.351 119.915 109.079 121.101 108.826 122.331C108.624 123.314 107.853 123.903 107.493 124.075C103.601 125.184 104.334 127.653 104.727 128.315C105.12 128.976 105.744 130.191 107.497 130.161C109.249 130.131 109.423 128.994 111.123 130.11Z" fill="black" stroke="black"/>
<path d="M173.168 122.114C172.619 123.652 173.829 124.355 174.502 124.514C176.248 124.519 176.69 124.667 177.736 123.427C178.782 122.188 179.262 122.85 179.783 122.738C180.305 122.625 181.625 122.874 182.235 120.94C182.845 119.006 181.405 118.035 180.158 118.071C179.16 118.099 178.413 117.48 178.164 117.167C176.194 113.612 173.977 114.899 173.428 115.437C172.879 115.975 171.848 116.865 172.281 118.575C172.714 120.284 173.854 120.192 173.168 122.114Z" fill="black" stroke="black"/>
<path d="M140.362 90.0971C134.247 85.4172 126.457 85.4698 119.79 89.0557C111.578 93.3241 107.239 101.894 105.091 110.581C100.445 129.218 100.698 151.576 120.166 161.101C135.927 168.846 161.245 167.003 173.215 153.136C184.976 139.582 185.844 118.527 177.808 102.91C169.108 86.1163 145.245 72.3925 126.61 80.4361C125.764 80.8189 126.249 82.1926 127.115 82.1868C137.503 82.1166 146.859 81.7584 156.373 86.6449C164.722 90.8343 171.59 97.7058 175.501 106.351C184.286 125.521 178.516 154.656 156.373 161.101C135.42 167.258 105.095 158.792 104.303 132.568C103.923 122.309 107.344 110.467 112.445 101.367C117.725 92.0696 129.461 85.3184 139.67 91.2657C140.409 91.7197 141.101 90.5511 140.362 90.0971Z" fill="black"/>
<path d="M125.084 117.769C123.877 119.908 124.101 122.206 125.084 124.461C125.435 125.426 126.842 125.695 127.605 125.166C129.654 124.004 130.415 121.245 129.254 119.187C128.756 118.306 127.496 117.953 126.618 118.451C124.016 119.829 123.918 123.764 126.301 125.42C127.976 126.507 129.889 125.128 130.562 123.583C131.057 122.235 130.736 120.203 129.698 119.046C128.659 117.889 126.523 118.796 126.111 120.291C125.635 122.015 126.057 123.619 127.796 124.476C128.566 124.815 129.788 124.413 129.698 123.398C129.678 123.021 129.754 122.299 129.963 121.986C128.837 122.043 127.793 122.246 126.667 122.303C126.469 122.124 126.647 121.926 126.584 122.156C126.647 121.926 126.94 121.76 126.615 122.041C127.335 122.118 127.971 122.049 128.691 122.126C128.659 122.241 128.691 122.126 128.722 122.011L128.754 121.896C127.837 121.64 127.035 121.416 126.118 121.159C126.284 121.453 126.335 121.715 126.011 121.996C126.813 122.22 127.73 122.476 128.532 122.7C127.983 121.557 127.874 120.164 128.305 119.046C128.552 117.258 125.903 116.14 125.084 117.769Z" fill="black"/>
<path d="M157.899 122.731C157.372 124.194 156.699 125.739 156.172 127.202C155.697 128.926 158.404 130.302 159.255 128.558C159.591 127.785 160.469 127.288 160.837 126.4C161.237 125.397 161.096 124.12 160.306 123.404C158.445 121.646 154.922 124.128 156.509 126.429C157.038 127.196 157.809 127.535 158.706 127.414C161.284 127.02 161.791 123.51 160.306 121.733C159.382 120.608 157.438 120.374 156.287 121.414C155.429 122.289 154.807 123.295 154.719 124.508C154.663 125.607 154.747 126.532 155.244 127.414C156.137 128.654 158.123 129.976 159.484 128.622C159.986 128.143 160.208 127.339 160.023 126.668C159.889 126.259 159.755 125.85 159.474 125.524C159.111 125.051 159.608 125.933 159.277 125.345C159.111 125.051 159.245 125.46 159.226 125.083C159.245 125.46 159.174 124.821 159.206 124.706C159.269 124.476 159.226 125.083 159.206 124.706C159.174 124.821 159.174 124.821 159.238 124.591C159.06 124.789 159.091 124.674 159.384 124.508C159.091 124.674 158.799 124.84 158.36 125.089C158.099 125.14 157.38 125.063 157.099 124.737C156.985 124.705 156.85 124.296 156.933 124.443C156.985 124.705 156.965 124.328 156.997 124.213C157.092 123.868 157.333 123.44 157.74 123.306C158.428 123.498 159.001 123.658 159.689 123.85C159.689 123.85 159.574 123.818 159.606 123.703C159.772 123.997 159.938 124.291 160.103 124.585L160.135 124.47C160.155 124.847 160.174 125.224 160.111 125.454C159.901 125.767 159.577 126.048 159.367 126.361C158.991 126.38 158.762 126.316 158.387 126.335L158.272 126.303C158.075 126.124 157.794 125.798 157.597 125.619C157.514 125.472 157.723 125.159 157.609 125.127L157.221 125.638C156.833 126.148 156.592 126.576 156.433 127.151C157.465 127.439 158.611 127.759 159.642 128.047C159.857 126.374 159.989 124.553 160.203 122.88C160.03 121.717 158.299 121.729 157.899 122.731Z" fill="black"/>
<path d="M149.673 151.068C146.724 149.043 144.11 148.29 140.077 148.597C136.872 148.821 133.307 150.242 132.379 152.945C131.821 154.548 134.968 151.861 136.543 151.068C138.907 150.011 140.483 150.081 143.371 150.276C146.022 150.494 145.744 150.769 148.097 151.597C149.465 152.137 150.823 151.824 149.673 151.068Z" fill="black"/>
<path d="M175.749 142.978C165.802 139.917 152.779 137.052 137.913 136.297C126.109 135.675 112.499 136.288 107.999 139.048C105.3 140.683 112.579 139.157 117.432 138.382C124.938 137.066 133.48 138.046 143.953 139.048C153.552 140.013 161.725 143.025 169.983 144.588C174.762 145.562 179.643 144.132 175.749 142.978Z" fill="black"/>
<path d="M142.368 74.3135C142.261 75.1503 141.842 75.776 141.027 76.0438C141.339 76.2548 141.734 76.6128 142.046 76.8238C142.146 75.1182 141.381 73.4185 141.366 71.6809C141.32 70.0583 141.452 68.2378 141.144 66.6661C141.022 65.7653 140.203 66.2857 139.752 67.0265C138.901 68.7699 138.774 69.8473 139.133 71.6809C139.376 73.4825 139.296 76.0555 140.647 77.4234C141.042 77.7814 141.678 77.7115 141.92 77.2837C142.549 76.345 142.656 75.5083 142.368 74.3135Z" fill="black"/>
<path d="M143.021 78.2099C143.611 76.5175 144.347 74.742 145.364 73.2926C146.267 71.8111 147.761 70.8666 148.434 69.3212C148.803 68.4334 147.392 68.5574 146.317 68.8761C142.308 69.9851 141.47 74.4335 141.697 78.0877C141.767 78.7266 142.716 78.8677 143.021 78.2099Z" fill="black"/>
<path d="M146.478 79.5475C148.08 77.7663 150.344 74.6739 151.831 72.8607C153.109 71.3603 153.726 71.171 154.265 69.2166C154.487 68.4118 153.582 67.6638 152.85 68.0786C150.948 69.157 149.805 71.0663 148.693 72.8606C147.403 74.8529 146.373 76.7942 145.542 78.9145C145.237 79.5723 146.122 79.9434 146.478 79.5475Z" fill="black"/>
<path d="M169.92 95.3924C169.899 93.3644 172.811 91.5654 174.706 90.9994C175.553 90.7304 176.512 90.4083 177.359 90.1393C179.677 89.4388 182.004 87.9733 184.391 87.3761C188.45 86.3192 192.006 85.2619 196.153 84.3505L196.174 84.2723C189.176 84.424 182.743 87.4302 176.207 89.0593C172.683 89.9286 169.053 91.527 169.74 95.3423C169.697 95.4988 169.966 95.5739 169.92 95.3924Z" fill="black"/>
<path d="M196.185 85.1372C195.563 87.3923 195.015 89.6683 194.265 91.8067C193.142 95.2981 190.126 97.2084 186.543 97.0981C182.003 96.9634 177.969 94.7031 173.421 94.89C173.636 95.274 173.851 95.658 174.067 96.042C175.844 93.381 182.941 93.3091 185.704 93.1902C186.926 93.1268 188.002 92.9718 187.811 94.5377C187.79 94.6129 187.865 94.6337 187.885 94.5585C188.192 94.3203 188.403 94.1364 188.71 93.8982C188.805 93.8439 188.847 93.6935 188.793 93.5975C186.503 91.4195 181.461 92.5211 178.603 92.6943C176.234 92.8421 174.291 93.19 172.924 95.2369C172.629 95.7214 173.006 96.3934 173.57 96.3889C179.286 96.0425 185.565 100.063 191.128 97.6503C195.876 95.576 195.769 89.5551 196.578 85.1661C196.45 85.0493 196.226 84.9868 196.185 85.1372Z" fill="black"/>
<path d="M112.169 100.463C112.233 98.4357 109.361 96.5741 107.478 95.9671C106.637 95.6799 105.686 95.3371 104.845 95.0498C102.542 94.2992 100.098 93.7522 97.7241 93.1034C93.6882 91.9588 89.6018 90.9946 86.1789 88.8552L86.159 88.7765C93.1523 89.0798 99.5193 92.2247 106.019 93.995C109.524 94.9404 113.118 96.6171 112.35 100.417C112.39 100.574 112.119 100.643 112.169 100.463Z" fill="black"/>
<path d="M86.1311 89.6407C86.7046 91.9088 87.2032 94.1962 87.9075 96.3503C88.956 99.8652 91.9304 101.84 95.5149 101.808C100.057 101.771 104.138 99.5991 108.681 99.8845C108.458 100.264 108.234 100.643 108.011 101.022C106.29 98.3233 99.461 98.7845 96.7013 98.6059C95.481 98.516 94.1444 97.6508 94.3018 99.2205C94.3209 99.2961 94.246 99.3153 94.2268 99.2397C93.9254 98.9949 93.7181 98.8065 93.4167 98.5617C93.3226 98.5053 93.2844 98.3541 93.3402 98.2593C95.6764 96.1314 100.693 97.342 103.547 97.577C105.912 97.7761 107.847 98.166 109.171 100.242C109.454 100.733 109.063 101.397 108.5 101.38C102.793 100.91 96.4295 104.794 90.9189 102.26C86.2169 100.084 86.4518 94.0666 85.7371 89.6612C85.868 89.5471 86.0929 89.4895 86.1311 89.6407Z" fill="black"/>
<path d="M123.38 143.171C122.226 142.823 120.693 144.096 120.83 145.449C120.987 147.065 122.342 148.114 123.787 148.079C125.119 148.039 126.15 146.651 126.248 145.287C126.361 143.617 124.305 142.424 122.972 142.722C122.674 142.793 122.572 143.332 122.86 143.464C123.601 143.8 124.352 143.932 125.006 144.501C125.878 145.286 124.961 146.68 124.164 147.05C123.261 147.468 122.285 146.809 121.833 146.012C121.003 144.569 122.523 144.014 123.379 143.428C123.47 143.351 123.46 143.219 123.38 143.171Z" fill="black"/>
<path d="M159.643 144.485C158.64 144.182 157.31 145.288 157.428 146.462C157.564 147.865 158.741 148.776 159.996 148.746C161.152 148.711 162.047 147.506 162.133 146.322C162.231 144.872 160.445 143.836 159.288 144.095C159.029 144.157 158.941 144.624 159.19 144.739C159.834 145.03 160.486 145.145 161.054 145.64C161.811 146.321 161.015 147.531 160.323 147.853C159.539 148.216 158.691 147.643 158.299 146.952C157.578 145.698 158.898 145.217 159.641 144.708C159.72 144.641 159.712 144.526 159.643 144.485Z" fill="black"/>
<path d="M122.318 85.7801C120.228 86.035 118.237 86.1832 116.229 86.1913C114.892 86.2123 114.553 87.106 115.78 87.0984C118.002 87.0168 120.213 86.8418 122.408 86.5268C123.507 86.3926 123.418 85.646 122.318 85.7801Z" fill="black"/>
<path d="M162.483 85.1145C161.425 84.109 160.46 83.1168 159.551 82.0654C158.939 81.3711 158.382 81.5151 158.939 82.1565C159.978 83.294 161.054 84.392 162.186 85.4307C162.742 85.9599 163.039 85.6437 162.483 85.1145Z" fill="black"/>
<path d="M163.879 83.0978C162.821 82.0923 161.877 81.0785 161.019 79.9729C160.437 79.246 159.697 79.5852 160.223 80.2591C161.222 81.44 162.277 82.5597 163.419 83.5875C163.976 84.1167 164.435 83.6271 163.879 83.0978Z" fill="black"/>
<path d="M165.774 81.4543C164.716 80.4488 163.771 79.4361 162.91 78.3333C162.326 77.6081 161.596 77.9371 162.124 78.6094C163.124 79.788 164.181 80.9065 165.323 81.9349C165.879 82.4642 166.33 81.9835 165.774 81.4543Z" fill="black"/>
<path d="M120.469 83.8772C118.379 84.1321 116.387 84.2777 114.379 84.2797C113.041 84.2969 112.705 85.213 113.933 85.2092C116.155 85.1325 118.367 84.96 120.561 84.6438C121.661 84.5096 121.569 83.743 120.469 83.8772Z" fill="black"/>
<path d="M121.16 80.7297C119.07 80.9846 117.079 81.1317 115.071 81.1373C113.734 81.1568 113.396 82.0597 114.623 82.0537C116.846 81.9741 119.057 81.8001 121.251 81.4846C122.351 81.3505 122.26 80.5956 121.16 80.7297Z" fill="black"/>
<path d="M121.049 78.5234C118.959 78.7783 116.968 78.9228 114.959 78.9219C113.621 78.9375 113.286 79.8637 114.514 79.8615C116.737 79.7871 118.948 79.6157 121.142 79.2989C122.242 79.1648 122.149 78.3892 121.049 78.5234Z" fill="black"/>
<path d="M119.028 90.9957C114.53 89.0687 114.444 84.4745 114.807 82.3545C115.161 79.7292 117.464 77.3567 118.574 74.9424C117.913 74.9254 117.252 74.9084 116.533 74.8334C120.593 79.1528 123.472 82.8832 122.992 87.6185C123.185 88.2592 124.913 88.6998 124.958 87.9999C125.271 83.6449 121.874 78.7982 118.359 74.3795C117.975 73.895 116.685 73.7443 116.43 74.134C114.164 77.5244 112.462 81.2821 112.726 85.4212C112.846 87.1312 114.777 92.1971 119.069 91.3843C119.365 91.3832 119.292 91.1114 119.028 90.9957Z" fill="black"/>
<path d="M160.785 87.3884C164.543 86.4606 164.794 83.279 164.778 81.8262C164.833 80.0349 163.731 78.3589 163.17 76.6477C163.688 76.6901 164.207 76.7324 164.778 76.7405C161.059 79.3101 159.748 81.9785 158.114 84.7986C157.882 85.213 156.477 85.3683 156.53 84.8947C157.344 82.0906 160.496 79.4477 163.409 76.2873C163.77 75.9932 164.797 75.997 164.947 76.2794C166.289 78.74 167.144 81.4012 166.415 84.1586C166.105 85.2969 163.955 88.5408 160.704 87.646C160.472 87.6212 160.564 87.4446 160.785 87.3884Z" fill="black"/>
<path d="M135.973 186.523C135.734 191.543 132.397 195.528 131.284 200.31C130.251 204.694 130.967 209.157 131.682 213.46C133.509 223.582 135.575 233.544 140.025 242.869C140.741 244.383 143.125 243.984 143.522 242.39C145.747 232.508 148.449 222.386 149.482 212.344C149.958 207.642 148.687 203.578 147.018 199.194C145.191 194.413 143.681 189.79 140.741 185.646C140.264 185.008 138.833 185.088 138.992 186.124C139.549 190.428 142.305 193.515 143.895 197.58C145.802 202.441 148.286 209.154 147.571 214.494C146.299 224.057 141.933 232.03 139.787 241.434C140.979 241.275 142.091 241.115 143.283 240.956C138.992 232.03 135.298 222.631 133.391 212.908C132.358 207.967 133.192 203.02 134.86 198.079C136.132 194.253 137.642 190.667 137.324 186.523C137.244 185.726 135.973 185.646 135.973 186.523Z" fill="black"/>
<path d="M203.198 121.459C203.584 118.69 205.528 116.808 208.414 117.507C209.612 117.804 211.363 118.579 212.083 119.649C212.747 120.623 211.768 122.355 211.237 123.224C209.684 125.677 207.053 126.059 204.86 127.655C202.969 129.031 201.028 132.939 204.219 134.021C204.839 134.244 205.427 133.774 205.635 133.2C205.762 132.825 205.792 132.614 205.786 132.229C205.808 131.332 204.39 130.839 203.985 131.742C203.972 131.793 203.958 131.844 203.944 131.895C204.458 132.417 204.996 132.945 205.509 133.467C206.018 132.784 205.891 132.038 206.291 131.353C206.66 130.687 207.264 130.358 207.901 130.01C209.482 129.179 211.067 128.541 212.401 127.315C214.641 125.239 216.97 120.999 215.156 118.018C213.398 115.134 209.026 113.486 205.855 114.16C202.76 114.855 200.216 118.271 201.51 121.467C201.791 122.145 203.073 122.437 203.198 121.459Z" fill="black"/>
<path d="M201.737 137.509C201.749 137.567 201.786 137.632 201.798 137.69C201.847 137.402 201.872 137.108 201.921 136.82C201.882 136.864 201.869 136.916 201.862 136.941C201.718 137.176 201.68 137.521 201.745 137.785C201.792 138.017 201.991 138.289 202.231 138.409C202.496 138.536 202.775 138.611 203.07 138.527C203.307 138.454 203.596 138.286 203.722 138.019C203.729 137.994 203.729 137.994 203.736 137.968C203.619 138.101 203.483 138.201 203.366 138.333C203.623 138.184 203.876 137.951 204.008 137.659C204.187 137.297 204.176 136.828 203.869 136.554C203.587 136.286 203.098 136.181 202.77 136.393C202.737 136.412 202.673 136.449 202.641 136.468C202.705 136.43 202.795 136.4 202.859 136.363C202.802 136.374 202.737 136.412 202.68 136.424C202.763 136.419 202.852 136.388 202.935 136.383C202.903 136.402 202.852 136.388 202.827 136.381C203.074 136.475 203.314 136.595 203.561 136.689L203.542 136.657C203.378 137.269 203.222 137.856 203.058 138.469C203.115 138.457 203.148 138.438 203.18 138.42C202.894 138.37 202.602 138.345 202.316 138.295C202.593 138.48 202.934 138.627 203.266 138.607C203.406 138.59 203.547 138.574 203.662 138.55C203.866 138.496 204.053 138.41 204.202 138.258C204.369 138.14 204.519 137.988 204.617 137.823C204.676 137.703 204.717 137.55 204.777 137.429C204.898 137.079 204.824 136.539 204.614 136.208C204.533 136.104 204.452 136 204.371 135.896C204.22 135.746 204.063 135.621 203.861 135.566C203.671 135.461 203.462 135.431 203.245 135.427C203.105 135.444 202.964 135.461 202.849 135.484C202.497 135.581 202.065 135.874 201.894 136.211C201.702 136.624 201.572 137.109 201.737 137.509Z" fill="black"/>
<path d="M71.1308 133.992C69.4451 131.77 69.4807 129.056 72.0026 127.48C73.0548 126.831 74.8327 126.122 76.0954 126.358C77.2503 126.567 77.7867 128.486 78.0275 129.476C78.6705 132.312 77.0922 134.465 76.6786 137.157C76.3232 139.478 77.7213 143.614 80.729 142.089C81.3222 141.802 81.4028 141.05 81.1435 140.499C80.9674 140.143 80.8388 139.974 80.5626 139.708C79.9441 139.062 78.599 139.731 78.9531 140.655C78.9796 140.7 79.0061 140.746 79.0326 140.792C79.7621 140.791 80.5143 140.777 81.2439 140.776C81.1185 139.932 80.502 139.499 80.2991 138.73C80.0869 137.998 80.2791 137.334 80.4808 136.634C81.0048 134.918 81.6669 133.335 81.7373 131.518C81.8445 128.456 80.4837 123.808 77.1019 123.012C73.8279 122.244 69.5902 124.216 67.8385 126.961C66.1549 129.665 66.7819 133.887 69.9506 135.207C70.6274 135.482 71.7344 134.77 71.1308 133.992Z" fill="black"/>
<path d="M81.4502 146.317C81.4994 146.349 81.5712 146.368 81.6204 146.4C81.452 146.163 81.2609 145.938 81.0926 145.701C81.0964 145.76 81.1229 145.805 81.1361 145.828C81.2006 146.096 81.4181 146.366 81.6507 146.505C81.8473 146.634 82.18 146.683 82.4333 146.595C82.7092 146.494 82.9586 146.347 83.1058 146.077C83.221 145.856 83.3058 145.531 83.2055 145.254C83.1922 145.231 83.1922 145.231 83.179 145.208C83.1904 145.385 83.166 145.552 83.1774 145.729C83.2528 145.44 83.2659 145.096 83.1522 144.795C83.0216 144.413 82.683 144.092 82.2729 144.119C81.8854 144.133 81.4679 144.409 81.3868 144.793C81.3774 144.829 81.3586 144.902 81.3491 144.938C81.368 144.865 81.4095 144.78 81.4284 144.708C81.3963 144.757 81.3774 144.829 81.3453 144.879C81.4001 144.816 81.4416 144.73 81.4964 144.668C81.487 144.704 81.4416 144.73 81.4189 144.744C81.6589 144.633 81.9121 144.545 82.1521 144.435L82.1162 144.425C82.4341 144.973 82.7388 145.497 83.0567 146.045C83.0888 145.995 83.0982 145.959 83.1076 145.923C82.8715 146.093 82.6485 146.285 82.4124 146.455C82.7374 146.386 83.0814 146.245 83.3005 145.993C83.3873 145.881 83.4742 145.769 83.5384 145.67C83.6441 145.485 83.7139 145.291 83.7119 145.078C83.7458 144.874 83.7438 144.661 83.6964 144.475C83.6529 144.348 83.5734 144.211 83.5298 144.083C83.3671 143.751 82.934 143.424 82.5521 143.343C82.4217 143.328 82.2913 143.312 82.1608 143.297C81.9491 143.3 81.7507 143.324 81.5693 143.431C81.3614 143.492 81.1933 143.622 81.0384 143.774C80.9515 143.886 80.8646 143.999 80.8004 144.098C80.6211 144.417 80.525 144.933 80.6424 145.292C80.7996 145.72 81.0513 146.153 81.4502 146.317Z" fill="black"/>
</svg>
