<svg width="1008" height="249" viewBox="0 0 1008 249" fill="none" xmlns="http://www.w3.org/2000/svg">
<path d="M560.661 23.2709C561.014 28.7352 565.661 32.2422 572.564 32.2422C579.957 32.2422 584.577 28.5449 584.577 22.7C584.577 18.1056 581.941 15.5502 575.499 14.055L572.075 13.2394C567.971 12.2879 566.314 11.0102 566.314 8.80815C566.314 5.98084 568.895 4.1594 572.782 4.1594C576.451 4.1594 579.005 5.92647 579.467 8.80815H584.088C583.816 3.64288 579.168 0 572.863 0C566.042 0 561.503 3.64288 561.503 9.08001C561.503 13.5656 564.058 16.2298 569.738 17.5619L573.787 18.5134C577.945 19.4921 579.766 20.9329 579.766 23.2981C579.766 26.071 576.886 28.0828 572.918 28.0828C568.705 28.0828 565.77 26.207 565.335 23.2709H560.661Z" fill="#2F3B3E"/>
<path d="M597.894 31.481V18.6765H611.401V14.5715H597.894V4.97497H612.651V0.761198H593.165V31.481H597.894Z" fill="#2F3B3E"/>
<path d="M636.866 0.761198V31.481H641.595V21.0689H648.933C655.048 21.0689 659.342 16.9367 659.342 10.9558C659.342 4.89342 655.156 0.761198 649.069 0.761198H636.866ZM641.595 4.89342H647.818C652.14 4.89342 654.531 7.04108 654.531 10.983C654.531 14.789 652.058 16.9638 647.818 16.9638H641.595V4.89342Z" fill="#2F3B3E"/>
<path d="M672.577 19.7096H679.562L685.975 31.481H691.438L684.399 18.9484C688.231 17.6707 690.514 14.3268 690.514 10.1946C690.514 4.43126 686.465 0.761198 680.16 0.761198H667.848V31.481H672.577V19.7096ZM672.577 4.83905H679.534C683.312 4.83905 685.649 6.90515 685.649 10.3034C685.649 13.7559 683.475 15.7133 679.67 15.7133H672.577V4.83905Z" fill="#2F3B3E"/>
<path d="M712.99 0C704.021 0 698.368 6.19833 698.368 16.1211C698.368 25.9895 703.885 32.2422 712.99 32.2422C722.013 32.2422 727.53 25.9895 727.53 16.1211C727.53 6.22551 721.985 0 712.99 0ZM712.99 4.3497C718.969 4.3497 722.692 8.91689 722.692 16.1211C722.692 23.2709 718.996 27.8925 712.99 27.8925C706.875 27.8925 703.206 23.2709 703.206 16.1211C703.206 8.91689 706.984 4.3497 712.99 4.3497Z" fill="#2F3B3E"/>
<path d="M764.708 31.481V4.97497H774.601V0.761198H750.114V4.97497H759.979V31.481H764.708Z" fill="#2F3B3E"/>
<path d="M802.566 27.2672H787.483V17.861H801.778V13.8103H787.483V4.97497H802.566V0.761198H782.754V31.481H802.566V27.2672Z" fill="#2F3B3E"/>
<path d="M809.768 31.481H815.041L822.895 20.0086H823.275L831.021 31.481H836.565L826.102 16.1483L836.783 0.761198H831.429L823.602 12.4238H823.248L815.53 0.761198H809.877L820.286 16.0123L809.768 31.481Z" fill="#2F3B3E"/>
<path d="M857.492 31.481V4.97497H867.384V0.761198H842.898V4.97497H852.763V31.481H857.492Z" fill="#2F3B3E"/>
<path d="M456.843 77.8204C456.843 70.0453 459.615 63.0042 463.61 58.7633H458.447C454.071 62.8955 451 69.6104 451 77.8204C451 86.0033 454.261 93.0172 458.419 97.0135H463.61C459.507 92.2288 456.843 85.514 456.843 77.8204Z" fill="#2F3B3E"/>
<path d="M477.743 93.3434V80.9468H490.896V76.1349H477.743V67.4083H492.147V62.4333H471.845V93.3434H477.743Z" fill="#2F3B3E"/>
<path d="M514.024 61.645C504.811 61.645 498.968 67.8705 498.968 77.8748C498.968 87.8791 504.702 94.1318 514.024 94.1318C523.237 94.1318 528.972 87.8791 528.972 77.8748C528.972 67.8977 523.237 61.645 514.024 61.645ZM514.024 66.7831C519.487 66.7831 522.966 71.1056 522.966 77.8748C522.966 84.644 519.514 88.9937 514.024 88.9937C508.426 88.9937 505.001 84.644 505.001 77.8748C505.001 71.1056 508.507 66.7831 514.024 66.7831Z" fill="#2F3B3E"/>
<path d="M543.294 81.8711H549.355L555.443 93.3434H562.155L555.334 80.9468C559.057 79.6147 561.231 76.2165 561.231 72.1658C561.231 66.1578 557.046 62.4333 550.333 62.4333H537.397V93.3434H543.294V81.8711ZM543.294 67.1908H549.518C552.997 67.1908 555.198 69.121 555.198 72.2746C555.198 75.4553 553.16 77.3039 549.627 77.3039H543.294V67.1908Z" fill="#2F3B3E"/>
<path d="M583.245 94.1318C590.61 94.1318 596.046 89.7821 596.698 83.3391H590.936C590.175 86.7645 587.186 88.9665 583.245 88.9665C577.973 88.9665 574.684 84.6984 574.684 77.8748C574.684 71.0512 577.973 66.7831 583.218 66.7831C587.159 66.7831 590.175 69.2026 590.909 72.8455H596.698C596.1 66.3209 590.501 61.645 583.218 61.645C574.222 61.645 568.651 67.8433 568.651 77.8748C568.651 87.9335 574.249 94.1318 583.245 94.1318Z" fill="#2F3B3E"/>
<path d="M625.479 88.3685H610.803V80.0225H624.663V75.3193H610.803V67.4083H625.479V62.4333H604.905V93.3434H625.479V88.3685Z" fill="#2F3B3E"/>
<path d="M634.474 62.4333V93.3434H646.487C655.917 93.3434 661.326 87.6888 661.326 77.7389C661.326 68.0336 655.863 62.4333 646.487 62.4333H634.474ZM640.372 67.4083H645.644C651.732 67.4083 655.292 71.2143 655.292 77.8204C655.292 84.6168 651.814 88.3685 645.644 88.3685H640.372V67.4083Z" fill="#2F3B3E"/>
<path d="M683.475 84.8887C683.774 90.5433 688.557 94.1318 695.868 94.1318C703.614 94.1318 708.397 90.353 708.397 84.2634C708.397 79.5331 705.706 76.8961 699.292 75.5096L695.623 74.7213C691.764 73.8785 690.188 72.6823 690.188 70.6434C690.188 68.088 692.552 66.4568 696.085 66.4568C699.483 66.4568 701.901 68.1423 702.255 70.7793H707.88C707.663 65.3966 702.798 61.645 696.085 61.645C688.965 61.645 684.263 65.3966 684.263 71.0784C684.263 75.7271 686.981 78.5544 692.715 79.805L696.819 80.7021C700.814 81.5992 702.499 82.8498 702.499 84.9974C702.499 87.5257 699.89 89.32 696.221 89.32C692.308 89.32 689.563 87.5801 689.21 84.8887H683.475Z" fill="#2F3B3E"/>
<path d="M749.543 93.3434V62.4333H742.64L733.318 84.4265H732.938L723.643 62.4333H716.713V93.3434H722.203V71.9211H722.502L731.063 91.957H735.194L743.727 71.9211H744.081V93.3434H749.543Z" fill="#2F3B3E"/>
<path d="M779.629 93.3434H785.961L774.818 62.4333H768.105L756.963 93.3434H762.915L765.551 85.5955H777.02L779.629 93.3434ZM771.122 68.4686H771.503L775.688 81.0283H766.91L771.122 68.4686Z" fill="#2F3B3E"/>
<path d="M813.682 88.2597H799.305V62.4333H793.408V93.3434H813.682V88.2597Z" fill="#2F3B3E"/>
<path d="M842.001 88.2597H827.624V62.4333H821.726V93.3434H842.001V88.2597Z" fill="#2F3B3E"/>
<path d="M878.5 94.1318C885.865 94.1318 891.3 89.7821 891.953 83.3391H886.191C885.43 86.7645 882.441 88.9665 878.5 88.9665C873.227 88.9665 869.939 84.6984 869.939 77.8748C869.939 71.0512 873.227 66.7831 878.473 66.7831C882.413 66.7831 885.43 69.2026 886.164 72.8455H891.953C891.355 66.3209 885.756 61.645 878.473 61.645C869.477 61.645 863.906 67.8433 863.906 77.8748C863.906 87.9335 869.504 94.1318 878.5 94.1318Z" fill="#2F3B3E"/>
<path d="M919.592 93.3434H925.924L914.782 62.4333H908.069L896.926 93.3434H902.878L905.514 85.5955H916.983L919.592 93.3434ZM911.086 68.4686H911.466L915.651 81.0283H906.873L911.086 68.4686Z" fill="#2F3B3E"/>
<path d="M933.371 62.4333V93.3434H939.268V83.3663H945.954C952.422 83.3663 956.907 79.1525 956.907 72.927C956.907 66.6471 952.585 62.4333 946.226 62.4333H933.371ZM939.268 67.2724H944.65C948.672 67.2724 950.955 69.2569 950.955 72.9542C950.955 76.5699 948.617 78.5816 944.65 78.5816H939.268V67.2724Z" fill="#2F3B3E"/>
<path d="M963.674 84.8887C963.973 90.5433 968.756 94.1318 976.067 94.1318C983.812 94.1318 988.595 90.353 988.595 84.2634C988.595 79.5331 985.905 76.8961 979.491 75.5096L975.822 74.7213C971.963 73.8785 970.387 72.6823 970.387 70.6434C970.387 68.088 972.751 66.4568 976.284 66.4568C979.681 66.4568 982.1 68.1423 982.453 70.7793H988.079C987.862 65.3966 982.997 61.645 976.284 61.645C969.164 61.645 964.462 65.3966 964.462 71.0784C964.462 75.7271 967.18 78.5544 972.914 79.805L977.018 80.7021C981.013 81.5992 982.698 82.8498 982.698 84.9974C982.698 87.5257 980.089 89.32 976.42 89.32C972.506 89.32 969.761 87.5801 969.408 84.8887H963.674Z" fill="#2F3B3E"/>
<path d="M1002.13 77.8204C1002.13 85.514 999.494 92.2288 995.39 97.0135H1000.58C1004.74 93.0172 1008 86.0033 1008 77.8204C1008 69.6104 1004.93 62.8955 1000.55 58.7633H995.363C999.385 63.0042 1002.13 70.0453 1002.13 77.8204Z" fill="#2F3B3E"/>
<path d="M567.347 167.74H569.86L564.194 152.381H561.666L556 167.74H558.432L559.886 163.622H565.893L567.347 167.74ZM562.808 155.126H562.985L565.281 161.664H560.511L562.808 155.126Z" fill="#2F3B3E"/>
<path d="M587.92 167.74C591.263 167.74 593.274 166.096 593.274 163.391C593.274 161.379 591.861 159.911 589.741 159.694V159.517C591.29 159.259 592.486 157.818 592.486 156.214C592.486 153.849 590.719 152.381 587.784 152.381H581.533V167.74H587.92ZM583.898 154.365H587.24C589.061 154.365 590.121 155.208 590.121 156.635C590.121 158.117 588.993 158.905 586.819 158.905H583.898V154.365ZM583.898 165.756V160.754H587.308C589.632 160.754 590.841 161.597 590.841 163.228C590.841 164.886 589.673 165.756 587.458 165.756H583.898Z" fill="#2F3B3E"/>
<path d="M611.754 168.121C615.219 168.121 617.788 166.123 618.223 163.105H615.872C615.423 164.845 613.833 165.946 611.754 165.946C608.901 165.946 607.121 163.676 607.121 160.061C607.121 156.445 608.901 154.175 611.741 154.175C613.806 154.175 615.41 155.398 615.858 157.288H618.223C617.828 154.188 615.165 152 611.741 152C607.392 152 604.702 155.086 604.702 160.061C604.702 165.036 607.406 168.121 611.754 168.121Z" fill="#2F3B3E"/>
<path d="M630.371 152.381V167.74H635.983C640.657 167.74 643.362 164.913 643.362 160.02C643.362 155.194 640.63 152.381 635.983 152.381H630.371ZM632.735 154.487H635.738C639.013 154.487 640.943 156.54 640.943 160.047C640.943 163.608 639.04 165.634 635.738 165.634H632.735V154.487Z" fill="#2F3B3E"/>
<path d="M665.498 165.634H657.956V160.93H665.104V158.905H657.956V154.487H665.498V152.381H655.591V167.74H665.498V165.634Z" fill="#2F3B3E"/>
<path d="M680.323 167.74V161.338H687.076V159.286H680.323V154.487H687.701V152.381H677.958V167.74H680.323Z" fill="#2F3B3E"/>
<path d="M713.139 161.678V159.775H706.726V161.732H710.816V162.072C710.789 164.383 709.022 165.946 706.427 165.946C703.451 165.946 701.589 163.69 701.589 160.033C701.589 156.445 703.451 154.175 706.372 154.175C708.547 154.175 710.041 155.208 710.653 157.084H713.031C712.501 153.985 709.919 152 706.372 152C701.997 152 699.17 155.167 699.17 160.047C699.17 165.008 701.97 168.121 706.4 168.121C710.49 168.121 713.139 165.579 713.139 161.678Z" fill="#2F3B3E"/>
<path d="M738.279 167.74V152.381H735.914V158.851H727.802V152.381H725.437V167.74H727.802V160.971H735.914V167.74H738.279Z" fill="#2F3B3E"/>
<path d="M753.539 167.74V152.381H751.174V167.74H753.539Z" fill="#2F3B3E"/>
<path d="M765.347 163.799C765.347 166.408 767.277 168.121 770.09 168.121C773.066 168.121 774.873 166.34 774.873 163.282V152.381H772.508V163.255C772.508 164.995 771.639 165.933 770.062 165.933C768.649 165.933 767.712 165.063 767.671 163.799H765.347Z" fill="#2F3B3E"/>
<path d="M790.119 167.74V162.657L791.886 160.713L797.199 167.74H800.161L793.557 159.055L799.645 152.381H796.819L790.296 159.612H790.119V152.381H787.755V167.74H790.119Z" fill="#2F3B3E"/>
<path d="M821.428 165.606H814.063V152.381H811.698V167.74H821.428V165.606Z" fill="#2F3B3E"/>
<path d="M849.257 167.74V152.381H846.499L841.444 164.179H841.267L836.226 152.381H833.467V167.74H835.669V156.567H835.805L840.452 167.333H842.273L846.906 156.567H847.056V167.74H849.257Z" fill="#2F3B3E"/>
<path d="M864.436 167.74V156.703H864.626L872.725 167.74H874.872V152.381H872.576V163.418H872.399L864.3 152.381H862.139V167.74H864.436Z" fill="#2F3B3E"/>
<path d="M894.44 152C889.955 152 887.129 155.099 887.129 160.061C887.129 164.995 889.887 168.121 894.44 168.121C898.951 168.121 901.71 164.995 901.71 160.061C901.71 155.113 898.938 152 894.44 152ZM894.44 154.175C897.429 154.175 899.291 156.458 899.291 160.061C899.291 163.635 897.443 165.946 894.44 165.946C891.382 165.946 889.548 163.635 889.548 160.061C889.548 156.458 891.437 154.175 894.44 154.175Z" fill="#2F3B3E"/>
<path d="M599.334 192.591V207.951H601.699V202.745H605.368C608.425 202.745 610.572 200.679 610.572 197.688C610.572 194.657 608.479 192.591 605.436 192.591H599.334ZM601.699 194.657H604.811C606.971 194.657 608.167 195.731 608.167 197.702C608.167 199.605 606.93 200.693 604.811 200.693H601.699V194.657Z" fill="#2F3B3E"/>
<path d="M635.915 209.596L633.945 206.823C635.657 205.532 636.622 203.221 636.622 200.271C636.622 195.31 633.809 192.211 629.352 192.211C624.867 192.211 622.041 195.296 622.041 200.271C622.041 205.273 624.827 208.332 629.352 208.332C630.344 208.332 631.295 208.169 632.124 207.883L633.415 209.596H635.915ZM629.352 206.157C626.349 206.157 624.473 203.9 624.473 200.271C624.473 196.655 626.349 194.385 629.352 194.385C632.314 194.385 634.203 196.669 634.203 200.271C634.203 202.283 633.605 203.873 632.531 204.757L631.322 203.275H628.876L630.86 205.953C630.371 206.089 629.868 206.157 629.352 206.157Z" fill="#2F3B3E"/>
<path d="M651.243 202.065H654.735L657.942 207.951H660.674L657.154 201.685C659.07 201.046 660.212 199.374 660.212 197.308C660.212 194.426 658.187 192.591 655.034 192.591H648.879V207.951H651.243V202.065ZM651.243 194.63H654.722C656.611 194.63 657.779 195.663 657.779 197.362C657.779 199.089 656.692 200.067 654.79 200.067H651.243V194.63Z" fill="#2F3B3E"/>
<path d="M671.898 203.846C672.075 206.578 674.398 208.332 677.85 208.332C681.546 208.332 683.856 206.483 683.856 203.561C683.856 201.263 682.538 199.986 679.317 199.238L677.605 198.83C675.553 198.355 674.724 197.716 674.724 196.615C674.724 195.201 676.015 194.29 677.958 194.29C679.793 194.29 681.07 195.174 681.301 196.615H683.611C683.475 194.032 681.152 192.211 677.999 192.211C674.588 192.211 672.319 194.032 672.319 196.751C672.319 198.993 673.596 200.326 676.436 200.992L678.461 201.467C680.54 201.957 681.451 202.677 681.451 203.86C681.451 205.246 680.01 206.252 678.026 206.252C675.92 206.252 674.453 205.314 674.235 203.846H671.898Z" fill="#2F3B3E"/>
<path d="M702.337 207.951V194.698H707.283V192.591H695.039V194.698H699.972V207.951H702.337Z" fill="#2F3B3E"/>
<path d="M721.619 192.591H719.254V202.663C719.254 205.994 721.66 208.332 725.587 208.332C729.5 208.332 731.905 205.994 731.905 202.663V192.591H729.541V202.46C729.541 204.634 728.101 206.143 725.587 206.143C723.059 206.143 721.619 204.634 721.619 202.46V192.591Z" fill="#2F3B3E"/>
<path d="M751.813 207.951L757.425 192.591H754.911L750.658 205.042H750.468L746.187 192.591H743.633L749.258 207.951H751.813Z" fill="#2F3B3E"/>
<path d="M777.944 196.574H778.08L781.491 207.951H783.719L787.945 192.591H785.486L782.591 204.444H782.442L779.126 192.591H776.898L773.596 204.444H773.46L770.552 192.591H768.079L772.318 207.951H774.547L777.944 196.574Z" fill="#2F3B3E"/>
<path d="M798.816 207.951H801.452L805.379 202.215H805.57L809.442 207.951H812.215L806.983 200.285L812.323 192.591H809.646L805.733 198.423H805.556L801.697 192.591H798.87L804.075 200.217L798.816 207.951Z" fill="#2F3B3E"/>
<path d="M830.885 207.951V201.712L836.416 192.591H833.78L829.798 199.265H829.622L825.627 192.591H822.99L828.521 201.712V207.951H830.885Z" fill="#2F3B3E"/>
<path d="M847.654 207.951H859.394V205.844H850.671V205.654L859.191 194.263V192.591H847.912V194.698H856.215V194.888L847.654 206.279V207.951Z" fill="#2F3B3E"/>
<path d="M629.202 248.162H631.567V232.802H629.216L625.085 235.67V238.049L629.026 235.316H629.202V248.162Z" fill="#2F3B3E"/>
<path d="M644.951 237.233V237.26H647.194V237.233C647.194 235.561 648.376 234.447 650.102 234.447C651.746 234.447 652.982 235.507 652.982 236.934C652.982 238.076 652.466 238.891 650.387 241.025L645.074 246.49V248.162H655.564V246.068H648.376V245.892L651.909 242.371C654.518 239.748 655.32 238.429 655.32 236.798C655.32 234.283 653.132 232.421 650.17 232.421C647.126 232.421 644.951 234.406 644.951 237.233Z" fill="#2F3B3E"/>
<path d="M671.11 241.243H673.08C675.159 241.243 676.436 242.235 676.436 243.853C676.436 245.389 675.078 246.476 673.148 246.476C671.232 246.476 669.914 245.511 669.764 244.002H667.482C667.631 246.748 669.873 248.542 673.148 248.542C676.396 248.542 678.869 246.571 678.869 243.975C678.869 241.909 677.551 240.482 675.417 240.223V240.047C677.143 239.666 678.217 238.307 678.217 236.499C678.217 234.188 675.988 232.421 673.107 232.421C669.982 232.421 667.957 234.134 667.794 236.893H670.05C670.186 235.371 671.314 234.447 673.026 234.447C674.738 234.447 675.879 235.384 675.879 236.825C675.879 238.293 674.697 239.313 673.012 239.313H671.11V241.243Z" fill="#2F3B3E"/>
<path d="M698.097 248.162H700.38V245.171H702.554V243.092H700.38V232.802H697.01C694.21 236.907 691.86 240.509 690.46 243.01V245.171H698.097V248.162ZM692.743 242.983C694.591 239.856 696.425 237.07 697.988 234.854H698.124V243.132H692.743V242.983Z" fill="#2F3B3E"/>
<path d="M719.852 248.542C723.209 248.542 725.492 246.367 725.492 243.2C725.492 240.183 723.399 238.049 720.423 238.049C718.942 238.049 717.841 238.538 717.107 239.435H716.931L717.338 234.881H724.581V232.802H715.504L714.661 241.583H716.836C717.447 240.577 718.548 239.992 719.907 239.992C721.836 239.992 723.168 241.311 723.168 243.268C723.168 245.198 721.85 246.49 719.879 246.49C718.14 246.49 716.849 245.484 716.686 243.975H714.417C714.566 246.653 716.754 248.542 719.852 248.542Z" fill="#2F3B3E"/>
<path d="M743.225 248.529C746.54 248.529 748.878 246.299 748.878 243.173C748.878 240.21 746.717 238.049 743.728 238.049C741.88 238.049 740.371 238.905 739.61 240.373H739.434C739.488 236.635 740.888 234.487 743.32 234.487C744.76 234.487 745.875 235.276 746.269 236.54H748.66C748.171 234.039 746.092 232.421 743.334 232.421C739.434 232.421 737.151 235.48 737.151 240.686C737.151 242.534 737.463 244.084 738.088 245.307C739.094 247.387 740.901 248.529 743.225 248.529ZM743.211 246.476C741.322 246.476 739.882 245.063 739.882 243.2C739.882 241.352 741.282 240.02 743.225 240.02C745.168 240.02 746.527 241.352 746.527 243.255C746.527 245.076 745.086 246.476 743.211 246.476Z" fill="#2F3B3E"/>
<path d="M761.57 248.162H764.043L770.878 234.922V232.802H760.251V234.868H768.486V235.031L761.57 248.162Z" fill="#2F3B3E"/>
<path d="M788.339 248.542C791.804 248.542 794.196 246.694 794.196 244.043C794.196 242.058 792.878 240.509 790.88 240.142V239.952C792.525 239.544 793.557 238.225 793.557 236.567C793.557 234.147 791.397 232.421 788.339 232.421C785.295 232.421 783.121 234.147 783.121 236.567C783.121 238.212 784.181 239.544 785.812 239.952V240.142C783.801 240.536 782.483 242.086 782.483 244.057C782.483 246.707 784.888 248.542 788.339 248.542ZM788.339 239.204C786.627 239.204 785.458 238.239 785.458 236.798C785.458 235.33 786.613 234.351 788.339 234.351C790.079 234.351 791.234 235.33 791.234 236.798C791.234 238.225 790.065 239.204 788.339 239.204ZM788.339 246.599C786.315 246.599 784.901 245.47 784.901 243.853C784.901 242.235 786.315 241.121 788.339 241.121C790.378 241.121 791.777 242.235 791.777 243.853C791.777 245.47 790.378 246.599 788.339 246.599Z" fill="#2F3B3E"/>
<path d="M811.522 248.529C815.422 248.529 817.704 245.484 817.704 240.264C817.704 238.416 817.392 236.866 816.767 235.643C815.761 233.549 813.94 232.421 811.63 232.421C808.315 232.421 805.977 234.65 805.977 237.777C805.977 240.74 808.138 242.901 811.127 242.901C812.976 242.901 814.484 242.058 815.245 240.577H815.422C815.367 244.328 813.967 246.463 811.535 246.463C810.095 246.463 808.98 245.688 808.586 244.41H806.195C806.684 246.911 808.763 248.529 811.522 248.529ZM811.63 240.93C809.687 240.93 808.328 239.598 808.328 237.709C808.328 235.874 809.769 234.474 811.644 234.474C813.533 234.474 814.973 235.887 814.973 237.75C814.973 239.598 813.573 240.93 811.63 240.93Z" fill="#2F3B3E"/>
<path d="M835.22 248.542C838.848 248.542 840.968 245.579 840.968 240.495C840.968 235.398 838.808 232.421 835.22 232.421C831.606 232.421 829.445 235.398 829.445 240.468C829.445 245.579 831.578 248.542 835.22 248.542ZM835.22 246.503C833.06 246.503 831.837 244.383 831.837 240.468C831.837 236.594 833.087 234.474 835.22 234.474C837.354 234.474 838.577 236.581 838.577 240.468C838.577 244.383 837.367 246.503 835.22 246.503Z" fill="#2F3B3E"/>
<path d="M44.8364 29.8527C45.3528 36.6102 51.0872 41.0067 59.4035 41.0067C68.372 41.0067 74.0521 36.4203 74.0521 29.2285C74.0521 23.4751 70.7908 20.327 62.6648 18.2915L58.561 17.206C53.1527 15.8219 51.0057 14.0579 51.0057 10.9912C51.0057 7.02895 54.4572 4.42362 59.6753 4.42362C64.5672 4.42362 67.8828 6.81184 68.5623 10.8284H73.4814C73.0737 4.50504 67.4208 0 59.8383 0C51.5492 0 45.9779 4.50504 45.9779 11.154C45.9779 16.7175 49.0489 19.9199 56.1422 21.711L61.17 23.0137C66.5783 24.3706 69.0243 26.4875 69.0243 29.8255C69.0243 33.7064 65.1379 36.556 59.8655 36.556C54.2941 36.556 50.3806 33.9506 49.7827 29.8527H44.8364Z" fill="#2F3B3E"/>
<path d="M87.0972 40.084V23.1223H104.464V18.78H87.0972V5.3192H106.013V0.922719H82.2053V40.084H87.0972Z" fill="#2F3B3E"/>
<path d="M129.766 0.922719V40.084H134.658V26.1075H144.523C151.888 26.1075 157.133 20.924 157.133 13.5965C157.133 6.13337 151.997 0.922719 144.577 0.922719H129.766ZM134.658 5.26493H143.3C148.98 5.26493 152.105 8.22305 152.105 13.5965C152.105 18.78 148.871 21.7653 143.3 21.7653H134.658V5.26493Z" fill="#2F3B3E"/>
<path d="M164.553 40.084H169.227V21.9553C169.227 17.8302 172.461 14.8449 176.918 14.8449C177.842 14.8449 179.527 15.0078 179.908 15.1163V10.4484C179.31 10.367 178.332 10.3127 177.571 10.3127C173.684 10.3127 170.314 12.321 169.445 15.1706H169.01V10.8284H164.553V40.084Z" fill="#2F3B3E"/>
<path d="M196.975 40.5996C205.319 40.5996 210.482 34.8462 210.482 25.4562C210.482 16.039 205.319 10.3127 196.975 10.3127C188.632 10.3127 183.468 16.039 183.468 25.4562C183.468 34.8462 188.632 40.5996 196.975 40.5996ZM196.975 36.3931C191.431 36.3931 188.306 32.3766 188.306 25.4562C188.306 18.5087 191.431 14.5193 196.975 14.5193C202.519 14.5193 205.645 18.5087 205.645 25.4562C205.645 32.3766 202.519 36.3931 196.975 36.3931Z" fill="#2F3B3E"/>
<path d="M249.21 40.084V5.3192H261.848V0.922719H231.681V5.3192H244.318V40.084H249.21Z" fill="#2F3B3E"/>
<path d="M282.774 32.5123C281.551 35.0905 278.997 36.4745 275.219 36.4745C270.245 36.4745 267.011 32.8108 266.767 27.0302V26.8131H287.829V25.022C287.829 15.9305 283.019 10.3127 275.11 10.3127C267.066 10.3127 261.902 16.2833 261.902 25.4833C261.902 34.7377 266.984 40.5996 275.11 40.5996C281.524 40.5996 286.09 37.5058 287.449 32.5123H282.774ZM275.056 14.4378C279.703 14.4378 282.801 17.8573 282.91 23.0408H266.767C267.12 17.8573 270.381 14.4378 275.056 14.4378Z" fill="#2F3B3E"/>
<path d="M304.435 29.1199L311.365 40.1654H316.909L306.826 25.3476L316.773 10.9098H311.474L304.598 21.7924H304.163L297.205 10.9098H291.634L301.771 25.5376L291.743 40.1654H297.042L304 29.1199H304.435Z" fill="#2F3B3E"/>
<path d="M325.225 3.25665V10.8284H320.496V14.7364H325.225V32.4851C325.225 38.0757 327.644 40.3011 333.677 40.3011C334.601 40.3011 335.498 40.1926 336.422 40.0297V36.0946C335.553 36.176 335.091 36.2031 334.248 36.2031C331.204 36.2031 329.9 34.7377 329.9 31.291V14.7364H336.422V10.8284H329.9V3.25665H325.225Z" fill="#2F3B3E"/>
<path d="M14.3089 87.9736H16.8771L9.64796 68.393H7.22918L0 87.9736H2.56826L4.53862 82.3695H12.3385L14.3089 87.9736ZM8.32986 71.5547H8.54728L11.6183 80.2934H5.25882L8.32986 71.5547Z" fill="#2F3B3E"/>
<path d="M35.8198 87.9736C39.9915 87.9736 42.4646 85.9247 42.4646 82.478C42.4646 79.8863 40.766 78.0544 38.0891 77.7152V77.4981C39.9779 77.1588 41.4727 75.3134 41.4727 73.278C41.4727 70.2791 39.2713 68.393 35.6703 68.393H28.1693V87.9736H35.8198ZM30.6153 70.5505H35.1539C37.5863 70.5505 38.9995 71.7039 38.9995 73.6986C38.9995 75.7748 37.4912 76.8332 34.5288 76.8332H30.6153V70.5505ZM30.6153 85.8161V78.9364H35.2219C38.3473 78.9364 39.9507 80.0898 39.9507 82.3559C39.9507 84.622 38.4016 85.8161 35.4529 85.8161H30.6153Z" fill="#2F3B3E"/>
<path d="M62.209 88.435C66.3807 88.435 69.4789 86.1146 70.1312 82.5187H67.6445C67.0194 84.7848 64.9403 86.1825 62.209 86.1825C58.4313 86.1825 56.0669 83.1022 56.0669 78.1901C56.0669 73.278 58.4313 70.1842 62.1954 70.1842C64.8995 70.1842 66.9922 71.7718 67.6445 74.2957H70.1312C69.5469 70.5234 66.3263 67.9316 62.1954 67.9316C56.8686 67.9316 53.553 71.8668 53.553 78.1901C53.553 84.4999 56.8822 88.435 62.209 88.435Z" fill="#2F3B3E"/>
<path d="M82.0892 68.393V87.9736H88.8156C94.6452 87.9736 98.0695 84.3506 98.0695 78.1765C98.0695 72.016 94.6316 68.393 88.8156 68.393H82.0892ZM84.5352 70.5912H88.6525C93.0009 70.5912 95.5692 73.4137 95.5692 78.2037C95.5692 82.9801 93.0281 85.7754 88.6525 85.7754H84.5352V70.5912Z" fill="#2F3B3E"/>
<path d="M122.312 85.7754H112.609V79.045H121.809V76.8739H112.609V70.5912H122.312V68.393H110.163V87.9736H122.312V85.7754Z" fill="#2F3B3E"/>
<path d="M137.042 87.9736V79.4928H145.725V77.3217H137.042V70.5912H146.5V68.393H134.596V87.9736H137.042Z" fill="#2F3B3E"/>
<path d="M174.832 80.4019V78.0137H166.883V80.1577H172.4V80.6326C172.4 83.9435 170.022 86.1825 166.516 86.1825C162.575 86.1825 160.129 83.1158 160.129 78.1765C160.129 73.3051 162.616 70.1842 166.502 70.1842C169.41 70.1842 171.38 71.5818 172.223 74.2278H174.71C174.003 70.347 170.85 67.9316 166.502 67.9316C161.135 67.9316 157.615 71.9889 157.615 78.1765C157.615 84.4456 161.08 88.435 166.502 88.435C171.516 88.435 174.832 85.2326 174.832 80.4019Z" fill="#2F3B3E"/>
<path d="M202.675 87.9736V68.393H200.229V76.8603H189.467V68.393H187.021V87.9736H189.467V79.0585H200.229V87.9736H202.675Z" fill="#2F3B3E"/>
<path d="M217.976 87.9736V68.393H215.53V87.9736H217.976Z" fill="#2F3B3E"/>
<path d="M229.499 83.4008C229.499 86.3996 231.809 88.435 235.098 88.435C238.644 88.435 240.805 86.2503 240.805 82.5187V68.393H238.359V82.5052C238.359 84.907 237.177 86.1825 235.084 86.1825C233.236 86.1825 231.986 85.0426 231.932 83.4008H229.499Z" fill="#2F3B3E"/>
<path d="M256.106 87.9736V81.1347L258.457 78.5429L265.536 87.9736H268.703L260.142 76.8467L267.982 68.393H264.911L256.323 77.9051H256.106V68.393H253.66V87.9736H256.106Z" fill="#2F3B3E"/>
<path d="M291.763 85.7754H282.305V68.393H279.859V87.9736H291.763V85.7754Z" fill="#2F3B3E"/>
<path d="M322.853 87.9736V68.393H320.013L313.301 84.7306H313.083L306.37 68.393H303.53V87.9736H305.813V73.0202H305.976L312.159 87.9736H314.225L320.408 73.0202H320.571V87.9736H322.853Z" fill="#2F3B3E"/>
<path d="M338.127 87.9736V72.7895H338.345L348.984 87.9736H351.363V68.393H348.944V83.6314H348.726L338.086 68.393H335.708V87.9736H338.127Z" fill="#2F3B3E"/>
<path d="M372.452 67.9316C366.908 67.9316 363.456 71.8803 363.456 78.1765C363.456 84.4456 366.826 88.435 372.452 88.435C378.051 88.435 381.448 84.432 381.448 78.1765C381.448 71.8939 378.023 67.9316 372.452 67.9316ZM372.452 70.1842C376.461 70.1842 378.934 73.278 378.934 78.1765C378.934 83.0344 376.474 86.1825 372.452 86.1825C368.376 86.1825 365.97 83.0344 365.97 78.1765C365.97 73.278 368.457 70.1842 372.452 70.1842Z" fill="#2F3B3E"/>
<path d="M47.0984 108.534V128.115H49.5443V121.127H54.477C58.1596 121.127 60.7822 118.535 60.7822 114.871C60.7822 111.14 58.2139 108.534 54.5042 108.534H47.0984ZM49.5443 110.705H53.8655C56.7056 110.705 58.2683 112.184 58.2683 114.871C58.2683 117.463 56.6512 118.956 53.8655 118.956H49.5443V110.705Z" fill="#2F3B3E"/>
<path d="M80.8934 128.576C82.1572 128.576 83.353 128.373 84.3993 127.979L86.1251 130.327H88.87L86.3832 126.88C88.6118 125.279 89.8619 122.226 89.8619 118.331C89.8619 112.022 86.4104 108.073 80.8934 108.073C75.3492 108.073 71.8841 112.008 71.8841 118.331C71.8841 124.682 75.3085 128.576 80.8934 128.576ZM80.907 126.324C76.8848 126.324 74.398 123.271 74.398 118.331C74.398 113.406 76.8983 110.325 80.8934 110.325C84.8613 110.325 87.348 113.419 87.348 118.331C87.348 121.317 86.492 123.651 84.9564 124.872L83.1763 122.511H80.4042L82.9997 126.025C82.3202 126.229 81.6272 126.324 80.907 126.324Z" fill="#2F3B3E"/>
<path d="M104.415 120.367H109.239L113.438 128.115H116.306L111.767 119.987C114.226 119.213 115.708 117.097 115.708 114.369C115.708 110.841 113.234 108.534 109.457 108.534H101.969V128.115H104.415V120.367ZM104.415 110.705H109.131C111.658 110.705 113.18 112.103 113.18 114.451C113.18 116.852 111.753 118.196 109.239 118.196H104.415V110.705Z" fill="#2F3B3E"/>
<path d="M127.068 122.999C127.326 126.378 130.193 128.576 134.351 128.576C138.836 128.576 141.676 126.283 141.676 122.687C141.676 119.81 140.045 118.236 135.982 117.219L133.93 116.676C131.226 115.984 130.152 115.102 130.152 113.569C130.152 111.587 131.878 110.285 134.487 110.285C136.933 110.285 138.591 111.479 138.931 113.487H141.39C141.186 110.325 138.36 108.073 134.569 108.073C130.424 108.073 127.638 110.325 127.638 113.65C127.638 116.432 129.174 118.033 132.721 118.928L135.235 119.58C137.939 120.258 139.162 121.317 139.162 122.986C139.162 124.926 137.218 126.351 134.582 126.351C131.797 126.351 129.84 125.048 129.541 122.999H127.068Z" fill="#2F3B3E"/>
<path d="M161.148 128.115V110.733H167.467V108.534H152.383V110.733H158.702V128.115H161.148Z" fill="#2F3B3E"/>
<path d="M181.518 108.534H179.072V121.385C179.072 125.564 181.993 128.576 186.858 128.576C191.723 128.576 194.644 125.564 194.644 121.385V108.534H192.198V121.222C192.198 124.18 190.255 126.324 186.858 126.324C183.461 126.324 181.518 124.18 181.518 121.222V108.534Z" fill="#2F3B3E"/>
<path d="M215.557 128.115L222.786 108.534H220.218L214.457 124.953H214.239L208.478 108.534H205.909L213.138 128.115H215.557Z" fill="#2F3B3E"/>
<path d="M244.963 112.659H245.126L249.638 128.115H251.948L257.288 108.534H254.733L250.833 124.451H250.67L246.281 108.534H243.808L239.419 124.451H239.256L235.356 108.534H232.801L238.142 128.115H240.452L244.963 112.659Z" fill="#2F3B3E"/>
<path d="M267.588 128.115H270.36L275.592 120.394H275.809L280.946 128.115H283.881L277.236 118.372L284.031 108.534H281.245L276 116.323H275.782L270.619 108.534H267.67L274.301 118.264L267.588 128.115Z" fill="#2F3B3E"/>
<path d="M303.462 128.115V119.688L310.42 108.534H307.634L302.348 117.232H302.131L296.845 108.534H294.059L301.016 119.688V128.115H303.462Z" fill="#2F3B3E"/>
<path d="M321.182 128.115H335.681V125.917H324.403V125.7L335.45 110.271V108.534H321.563V110.733H332.284V110.95L321.182 126.378V128.115Z" fill="#2F3B3E"/>
<path d="M33.7679 168.514C35.7246 168.514 37.3281 167.659 38.2793 166.099H38.4967V168.256H40.7253V158.242C40.7253 155.202 38.7277 153.371 35.1539 153.371C32.0285 153.371 29.7184 154.918 29.4059 157.265H31.7703C32.0965 156.112 33.3194 155.447 35.0724 155.447C37.2602 155.447 38.388 156.437 38.388 158.242V159.572L34.1619 159.83C30.7512 160.033 28.8216 161.539 28.8216 164.158C28.8216 166.831 30.9278 168.514 33.7679 168.514ZM34.2027 166.465C32.5041 166.465 31.2404 165.597 31.2404 164.104C31.2404 162.638 32.2188 161.865 34.4473 161.716L38.388 161.458V162.801C38.388 164.891 36.6079 166.465 34.2027 166.465Z" fill="#2F3B3E"/>
<path d="M60.1843 168.514C63.894 168.514 66.3263 165.515 66.3263 160.942C66.3263 156.342 63.9076 153.371 60.1843 153.371C58.1731 153.371 56.393 154.361 55.5913 155.935H55.3739V147.821H53.0366V168.256H55.2652V165.922H55.4826C56.4066 167.551 58.146 168.514 60.1843 168.514ZM59.6407 155.474C62.3177 155.474 63.9076 157.523 63.9076 160.942C63.9076 164.362 62.3177 166.411 59.6407 166.411C56.9773 166.411 55.3195 164.321 55.3195 160.942C55.3195 157.564 56.9773 155.474 59.6407 155.474Z" fill="#2F3B3E"/>
<path d="M89.9707 158.106C89.563 155.501 87.3888 153.371 83.8286 153.371C79.7248 153.371 77.1158 156.329 77.1158 160.888C77.1158 165.542 79.7384 168.514 83.8422 168.514C87.3616 168.514 89.5494 166.533 89.9707 163.846H87.6062C87.1714 165.502 85.7989 166.411 83.8286 166.411C81.2195 166.411 79.5345 164.267 79.5345 160.888C79.5345 157.577 81.1924 155.474 83.8286 155.474C85.9348 155.474 87.2257 156.654 87.6062 158.106H89.9707Z" fill="#2F3B3E"/>
<path d="M106.698 168.514C108.723 168.514 110.462 167.551 111.386 165.922H111.604V168.256H113.832V147.821H111.495V155.935H111.291C110.462 154.334 108.737 153.371 106.698 153.371C102.975 153.371 100.543 156.356 100.543 160.942C100.543 165.542 102.948 168.514 106.698 168.514ZM107.242 155.474C109.892 155.474 111.549 157.591 111.549 160.942C111.549 164.321 109.905 166.411 107.242 166.411C104.565 166.411 102.961 164.362 102.961 160.942C102.961 157.536 104.578 155.474 107.242 155.474Z" fill="#2F3B3E"/>
<path d="M135.928 164.47C135.316 165.759 134.039 166.451 132.15 166.451C129.663 166.451 128.046 164.62 127.924 161.729V161.621H138.455V160.725C138.455 156.179 136.05 153.371 132.096 153.371C128.073 153.371 125.491 156.356 125.491 160.956C125.491 165.583 128.033 168.514 132.096 168.514C135.302 168.514 137.585 166.967 138.265 164.47H135.928ZM132.068 155.433C134.392 155.433 135.941 157.143 135.996 159.735H127.924C128.1 157.143 129.731 155.433 132.068 155.433Z" fill="#2F3B3E"/>
<path d="M150.957 168.256H153.294V155.582H156.65V153.628H153.294V152.068C153.294 150.467 154.001 149.653 155.686 149.653C156.107 149.653 156.501 149.666 156.786 149.72V147.821C156.297 147.726 155.781 147.685 155.21 147.685C152.424 147.685 150.957 149.083 150.957 152V153.628H148.524V155.582H150.957V168.256Z" fill="#2F3B3E"/>
<path d="M173.949 173.874C177.944 173.874 180.471 171.784 180.471 168.514V153.628H178.243V155.949H178.025C177.183 154.375 175.376 153.371 173.324 153.371C169.56 153.371 167.182 156.342 167.182 160.725C167.182 165.108 169.532 168.039 173.324 168.039C175.335 168.039 176.993 167.13 177.917 165.515H178.134V168.392C178.134 170.549 176.571 171.839 173.949 171.839C171.842 171.839 170.538 171.065 170.28 169.871H167.807C168.16 172.286 170.416 173.874 173.949 173.874ZM173.84 165.977C171.122 165.977 169.6 163.914 169.6 160.725C169.6 157.536 171.122 155.474 173.84 155.474C176.544 155.474 178.188 157.536 178.188 160.725C178.188 163.914 176.558 165.977 173.84 165.977Z" fill="#2F3B3E"/>
<path d="M192.864 168.256H195.201V159.599C195.201 157.129 196.642 155.474 199.264 155.474C201.479 155.474 202.648 156.763 202.648 159.355V168.256H204.985V158.785C204.985 155.352 203.028 153.371 199.93 153.371C197.688 153.371 196.153 154.32 195.419 155.935H195.201V147.821H192.864V168.256Z" fill="#2F3B3E"/>
<path d="M218.329 150.806C219.226 150.806 219.96 150.073 219.96 149.178C219.96 148.282 219.226 147.549 218.329 147.549C217.432 147.549 216.699 148.282 216.699 149.178C216.699 150.073 217.432 150.806 218.329 150.806ZM217.161 168.256H219.498V153.628H217.161V168.256Z" fill="#2F3B3E"/>
<path d="M233.059 150.806C233.956 150.806 234.69 150.073 234.69 149.178C234.69 148.282 233.956 147.549 233.059 147.549C232.163 147.549 231.429 148.282 231.429 149.178C231.429 150.073 232.163 150.806 233.059 150.806ZM234.201 153.628H231.864V169.016C231.864 170.631 231.32 171.282 229.662 171.282H229.309V173.277H229.717C232.788 173.277 234.201 171.988 234.201 168.975V153.628Z" fill="#2F3B3E"/>
<path d="M249.203 160.02H248.985V147.821H246.648V168.256H248.985V162.706L250.385 161.404L255.875 168.256H258.851L252.124 159.897L258.43 153.628H255.562L249.203 160.02Z" fill="#2F3B3E"/>
<path d="M269.613 168.256H271.95V147.821H269.613V168.256Z" fill="#2F3B3E"/>
<path d="M284.343 168.256H286.68V159.192C286.68 157.129 288.162 155.474 290.078 155.474C291.926 155.474 293.135 156.587 293.135 158.323V168.256H295.472V158.853C295.472 156.994 296.831 155.474 298.869 155.474C300.935 155.474 301.954 156.532 301.954 158.69V168.256H304.291V158.147C304.291 155.08 302.62 153.371 299.63 153.371C297.606 153.371 295.934 154.388 295.146 155.935H294.929C294.249 154.415 292.863 153.371 290.879 153.371C288.923 153.371 287.455 154.307 286.789 155.935H286.572V153.628H284.343V168.256Z" fill="#2F3B3E"/>
<path d="M316.412 168.256H318.75V159.599C318.75 157.034 320.258 155.474 322.595 155.474C324.933 155.474 326.047 156.722 326.047 159.355V168.256H328.384V158.785C328.384 155.311 326.55 153.371 323.261 153.371C321.019 153.371 319.592 154.32 318.858 155.935H318.641V153.628H316.412V168.256Z" fill="#2F3B3E"/>
<path d="M346.539 168.514C350.71 168.514 353.292 165.637 353.292 160.942C353.292 156.234 350.71 153.371 346.539 153.371C342.367 153.371 339.785 156.234 339.785 160.942C339.785 165.637 342.367 168.514 346.539 168.514ZM346.539 166.411C343.766 166.411 342.204 164.403 342.204 160.942C342.204 157.469 343.766 155.474 346.539 155.474C349.311 155.474 350.873 157.469 350.873 160.942C350.873 164.403 349.311 166.411 346.539 166.411Z" fill="#2F3B3E"/>
<path d="M77.7952 193.512C75.7977 193.512 74.0447 194.53 73.1071 196.212H72.8897V193.77H70.6611V213.282H72.9984V206.199H73.2158C74.0175 207.746 75.7025 208.655 77.7952 208.655C81.5185 208.655 83.9509 205.656 83.9509 201.084C83.9509 196.484 81.5321 193.512 77.7952 193.512ZM77.2381 206.552C74.6019 206.552 72.9305 204.435 72.9305 201.084C72.9305 197.718 74.6019 195.615 77.2516 195.615C79.9286 195.615 81.5321 197.664 81.5321 201.084C81.5321 204.503 79.9286 206.552 77.2381 206.552Z" fill="#2F3B3E"/>
<path d="M100.869 193.512C97.1591 193.512 94.7403 196.497 94.7403 201.084C94.7403 205.697 97.1319 208.655 100.869 208.655C102.934 208.655 104.511 207.8 105.448 206.199H105.666V213.282H108.03V193.77H105.774V196.212H105.557C104.687 194.57 102.866 193.512 100.869 193.512ZM101.399 206.552C98.7354 206.552 97.1591 204.517 97.1591 201.084C97.1591 197.664 98.7489 195.615 101.412 195.615C104.062 195.615 105.734 197.732 105.734 201.084C105.734 204.449 104.076 206.552 101.399 206.552Z" fill="#2F3B3E"/>
<path d="M120.287 208.398H122.624V199.333C122.624 197.271 124.241 195.778 126.47 195.778C126.932 195.778 127.774 195.859 127.965 195.914V193.58C127.666 193.539 127.176 193.512 126.796 193.512C124.853 193.512 123.168 194.516 122.733 195.941H122.516V193.77H120.287V208.398Z" fill="#2F3B3E"/>
<path d="M138.401 197.773C138.401 199.889 139.651 201.07 142.396 201.735L144.91 202.346C146.472 202.725 147.233 203.404 147.233 204.408C147.233 205.751 145.82 206.688 143.85 206.688C141.975 206.688 140.806 205.901 140.412 204.666H138.007C138.265 207.095 140.507 208.655 143.768 208.655C147.097 208.655 149.639 206.851 149.639 204.232C149.639 202.128 148.307 200.934 145.548 200.269L143.293 199.727C141.567 199.306 140.752 198.682 140.752 197.678C140.752 196.375 142.11 195.493 143.85 195.493C145.616 195.493 146.758 196.266 147.07 197.433H149.38C149.068 195.032 146.934 193.512 143.863 193.512C140.752 193.512 138.401 195.344 138.401 197.773Z" fill="#2F3B3E"/>
<path d="M162.14 189.984V193.77H159.776V195.724H162.14V204.598C162.14 207.393 163.35 208.506 166.366 208.506C166.828 208.506 167.277 208.452 167.739 208.37V206.403C167.304 206.444 167.073 206.457 166.652 206.457C165.13 206.457 164.477 205.724 164.477 204.001V195.724H167.739V193.77H164.477V189.984H162.14Z" fill="#2F3B3E"/>
<path d="M190.975 193.77H188.638V202.427C188.638 204.992 187.225 206.525 184.643 206.525C182.306 206.525 181.327 205.304 181.327 202.671V193.77H178.99V203.241C178.99 206.701 180.702 208.655 183.991 208.655C186.233 208.655 187.796 207.733 188.529 206.104H188.747V208.398H190.975V193.77Z" fill="#2F3B3E"/>
<path d="M215.19 193.77H212.69L208.681 205.819H208.464L204.455 193.77H201.955L207.377 208.398H209.768L215.19 193.77Z" fill="#2F3B3E"/>
<path d="M244.596 193.77H242.245L239.365 205.467H239.147L235.872 193.77H233.63L230.355 205.467H230.138L227.257 193.77H224.893L228.996 208.398H231.361L234.622 197.081H234.84L238.114 208.398H240.492L244.596 193.77Z" fill="#2F3B3E"/>
<path d="M260.753 202.915L264.218 208.438H266.99L261.949 201.029L266.922 193.81H264.273L260.835 199.252H260.617L257.139 193.81H254.353L259.422 201.124L254.407 208.438H257.057L260.536 202.915H260.753Z" fill="#2F3B3E"/>
<path d="M279.275 213.69C281.87 213.69 283.039 212.685 284.289 209.293L290.01 193.77H287.523L283.514 205.806H283.297L279.275 193.77H276.747L282.169 208.411L281.897 209.28C281.286 211.044 280.552 211.681 279.207 211.681C278.88 211.681 278.514 211.668 278.228 211.613V213.608C278.554 213.662 278.962 213.69 279.275 213.69Z" fill="#2F3B3E"/>
<path d="M300.65 208.398H311.928V206.444H303.476V206.226L311.887 195.52V193.77H300.663V195.724H309.102V195.941L300.65 206.688V208.398Z" fill="#2F3B3E"/>
<path d="M82.0485 248.539H84.4944V228.958H82.062L76.844 232.703V235.281L81.831 231.672H82.0485V248.539Z" fill="#2F3B3E"/>
<path d="M98.0831 234.481H100.448C100.448 232.161 102.01 230.627 104.361 230.627C106.671 230.627 108.071 232.174 108.071 234.25C108.071 235.974 107.337 236.991 104.837 239.692L98.2054 246.856V248.539H110.897V246.341H101.603V246.123L106.06 241.523C109.593 237.873 110.571 236.245 110.571 233.992C110.571 230.817 107.948 228.497 104.524 228.497C100.774 228.497 98.0831 230.994 98.0831 234.481Z" fill="#2F3B3E"/>
<path d="M127 239.515H129.432C132.191 239.515 133.889 240.926 133.889 243.192C133.889 245.391 132.055 246.87 129.473 246.87C126.945 246.87 125.179 245.554 124.962 243.491H122.597C122.774 246.815 125.519 249 129.5 249C133.4 249 136.403 246.544 136.403 243.26C136.403 240.533 134.718 238.81 132.177 238.402V238.185C134.188 237.602 135.656 236.041 135.669 233.68C135.683 230.939 133.454 228.497 129.582 228.497C125.614 228.497 123.181 230.844 122.937 234.033H125.315C125.519 231.835 127.054 230.627 129.419 230.627C131.783 230.627 133.183 232.12 133.183 233.952C133.183 235.987 131.579 237.425 129.323 237.425H127V239.515Z" fill="#2F3B3E"/>
<path d="M157.139 248.539H159.531V244.482H162.317V242.297H159.531V228.958H155.984C153.24 233.043 150.236 237.819 147.587 242.256V244.482H157.139V248.539ZM150.087 242.148C152.22 238.552 154.789 234.508 156.99 231.224H157.153V242.31H150.087V242.148Z" fill="#2F3B3E"/>
<path d="M180.471 249C184.48 249 187.211 246.232 187.211 242.202C187.211 238.321 184.494 235.743 181.205 235.743C179.248 235.743 177.794 236.34 176.843 237.52H176.626L177.237 231.143H186.206V228.958H175.321L174.193 240.153H176.49C177.264 238.701 178.732 237.846 180.594 237.846C183.067 237.846 184.765 239.624 184.765 242.27C184.765 245.011 183.067 246.856 180.498 246.856C178.188 246.856 176.503 245.459 176.286 243.369H173.881C174.098 246.72 176.762 249 180.471 249Z" fill="#2F3B3E"/>
<path d="M205.964 248.987C209.986 248.987 212.84 246.178 212.84 242.243C212.84 238.443 210.135 235.689 206.398 235.689C204.061 235.689 202.145 236.801 201.18 238.701H200.963C201.045 233.382 202.947 230.668 206.208 230.668C208.192 230.668 209.633 231.686 210.04 233.504H212.554C212.051 230.464 209.701 228.497 206.127 228.497C201.493 228.497 198.585 232.351 198.585 239.081C198.585 245.676 201.697 248.987 205.964 248.987ZM205.936 246.843C203.423 246.843 201.507 244.861 201.507 242.243C201.507 239.651 203.368 237.805 205.964 237.805C208.559 237.805 210.366 239.651 210.366 242.324C210.366 244.889 208.45 246.843 205.936 246.843Z" fill="#2F3B3E"/>
<path d="M225.45 248.539H228.018L236.742 231.224V228.958H223.765V231.143H234.255V231.333L225.45 248.539Z" fill="#2F3B3E"/>
<path d="M255.06 249C259.218 249 262.126 246.653 262.126 243.301C262.126 240.75 260.509 238.769 258.049 238.307V238.09C260.074 237.534 261.324 235.865 261.324 233.721C261.324 230.668 258.728 228.497 255.06 228.497C251.391 228.497 248.795 230.668 248.795 233.721C248.795 235.851 250.072 237.548 252.07 238.09V238.307C249.61 238.769 247.993 240.75 247.993 243.301C247.993 246.653 250.901 249 255.06 249ZM255.06 237.276C252.749 237.276 251.2 235.946 251.2 233.952C251.2 231.93 252.736 230.586 255.06 230.586C257.383 230.586 258.919 231.93 258.919 233.952C258.919 235.946 257.37 237.276 255.06 237.276ZM255.06 246.91C252.342 246.91 250.467 245.364 250.467 243.125C250.467 240.886 252.342 239.339 255.06 239.339C257.777 239.339 259.652 240.886 259.652 243.125C259.652 245.364 257.777 246.91 255.06 246.91Z" fill="#2F3B3E"/>
<path d="M280.253 248.987C285.05 248.987 287.795 245.133 287.795 238.402C287.795 231.74 284.642 228.497 280.416 228.497C276.394 228.497 273.54 231.306 273.54 235.241C273.54 239.04 276.244 241.795 279.981 241.795C282.318 241.795 284.234 240.682 285.199 238.782H285.417C285.281 243.993 283.473 246.815 280.28 246.815C278.351 246.815 276.856 245.743 276.339 243.979H273.826C274.437 247.06 276.924 248.987 280.253 248.987ZM280.416 239.678C277.821 239.678 276.013 237.833 276.013 235.159C276.013 232.595 277.929 230.641 280.443 230.641C282.957 230.641 284.873 232.622 284.873 235.241C284.873 237.833 283.011 239.678 280.416 239.678Z" fill="#2F3B3E"/>
<path d="M306.18 249C310.583 249 313.11 245.282 313.11 238.782C313.11 232.296 310.542 228.497 306.18 228.497C301.791 228.497 299.223 232.283 299.223 238.742C299.223 245.255 301.764 249 306.18 249ZM306.18 246.87C303.286 246.87 301.682 243.979 301.682 238.742C301.682 233.572 303.313 230.641 306.18 230.641C309.047 230.641 310.651 233.545 310.651 238.742C310.651 243.993 309.075 246.87 306.18 246.87Z" fill="#2F3B3E"/>
</svg>
