<svg width="33" height="11" viewBox="0 0 33 11" fill="none" xmlns="http://www.w3.org/2000/svg">
<path d="M0.584076 6.07145L30.9926 6.07145L26.671 10.0761C26.4429 10.2873 26.4429 10.6302 26.671 10.8414C26.8992 11.0529 27.2688 11.0529 27.4969 10.8414L32.752 5.97177C32.9017 5.87377 33 5.71296 33 5.53022C33 5.52744 32.9992 5.52486 32.9991 5.52209C32.9992 5.51617 32.9974 5.51057 32.9972 5.50465C32.9945 5.45173 32.9834 5.40123 32.9654 5.35335C32.9549 5.32296 32.9398 5.29554 32.9233 5.26691C32.9086 5.2426 32.8922 5.21959 32.8737 5.19776C32.8573 5.17748 32.8488 5.15367 32.8289 5.13521L27.4583 0.158566C27.3443 0.052855 27.1948 2.35352e-06 27.0454 2.34045e-06C26.8959 2.32739e-06 26.7465 0.0528549 26.6324 0.158566C26.4043 0.369986 26.4043 0.712487 26.6324 0.923904L31.0192 4.98898L0.584076 4.98898C0.26162 4.98898 5.04322e-07 5.23123 4.78184e-07 5.53021C4.52046e-07 5.82919 0.26162 6.07145 0.584076 6.07145Z" fill="#E8A153"/>
</svg>
