<svg width="627" height="200" viewBox="0 0 627 200" fill="none" xmlns="http://www.w3.org/2000/svg">
<path d="M80.2197 26.654C79.9838 26.1164 78.804 26.7372 78.2384 26.4471C77.7499 26.1975 77.1927 26.2246 77.0492 26.2371C76.9057 26.2246 76.3485 26.1975 75.86 26.4471C75.2944 26.7372 74.1146 26.1164 73.8787 26.654C73.6427 27.1916 73.7222 28.8053 74.8391 29.0122C75.9275 29.2139 76.0022 29.4936 77.0124 29.5071V29.5082C77.0255 29.5082 77.0373 29.5071 77.0492 29.5071C77.0622 29.5071 77.0729 29.5082 77.086 29.5082V29.5071C78.0962 29.4936 78.1709 29.2139 79.2593 29.0122C80.3762 28.8053 80.4557 27.1916 80.2197 26.654Z" fill="black"/>
<path d="M3.27869 37.7051C3.27869 37.7051 2.73224 42.3757 1.60274 44.2625C1.60274 44.2625 -2.94403 42.6631 3.27869 37.7051Z" fill="black"/>
<path fill-rule="evenodd" clip-rule="evenodd" d="M39.1829 0C33.6993 0 29.2539 4.38774 29.2539 9.80028H27.2681C27.1281 9.80028 26.9893 9.80505 26.8517 9.81442H26.416C25.8836 9.81442 25.3542 9.72314 24.8522 9.54565L22.4649 8.69978C21.1993 8.2515 19.8251 8.40972 18.6284 9.01825C17.6335 9.52435 16.4885 9.65823 15.4024 9.39351L11.0953 8.34785C10.216 8.13385 9.28604 8.30322 8.5376 8.81135L5.79432 10.6765C4.93128 11.2637 4.41406 12.2404 4.41406 13.2841L4.41507 35.3567C4.41507 35.3567 4.16661 45.2301 2.03993 47.3387C1.7438 47.6318 1.615 48.0537 1.64239 48.4696L2.9121 67.9914C2.94354 68.4742 3.34413 68.8504 3.82889 68.8504H6.87135C7.50418 68.8504 7.94635 68.2277 7.73946 67.6303C6.12189 62.9578 5.73854 57.9191 6.81455 53.0934C7.46665 50.1684 8.78099 47.076 10.9614 44.86L12.078 43.7098L11.4462 45.2687C12.8143 46.3498 14.1306 47.0923 15.3811 47.5791L15.1204 48.6349C15.0231 49.0284 15.1955 49.4564 15.5596 49.6329C15.6853 49.6937 15.8121 49.7201 15.9358 49.7201C16.3171 49.7201 16.663 49.4615 16.7583 49.0751L17.0037 48.0791C17.6305 48.2221 18.239 48.3083 18.8231 48.3377L18.9337 50.0183C18.9631 50.4666 19.3363 50.8104 19.7784 50.8104C19.7967 50.8104 19.816 50.8104 19.8352 50.8084C20.3028 50.7769 20.6557 50.3733 20.6253 49.9067L20.5178 48.2779C21.1465 48.2038 21.7398 48.0761 22.2945 47.9107L22.7296 49.0061C22.8615 49.3388 23.1809 49.5416 23.5176 49.5416C23.6403 49.5416 23.7661 49.5142 23.8868 49.4564C24.2955 49.2597 24.4537 48.7536 24.2863 48.3316L23.8786 47.3052C25.1494 46.7079 26.1077 45.9827 26.6848 45.4847C26.2944 45.2687 25.9323 45.0202 25.5834 44.7778C25.3307 44.6168 25.1026 44.4325 24.8821 44.2544L24.8818 44.2541C24.783 44.1744 24.6858 44.0958 24.5886 44.0212L24.4835 43.9301C24.2218 43.7035 23.9739 43.4888 23.76 43.2686C23.5095 43.0303 23.2945 42.796 23.1109 42.584C22.9631 42.4227 22.8417 42.2669 22.7363 42.1316C22.7065 42.0933 22.678 42.0568 22.6505 42.0221C22.4081 41.6996 22.2925 41.5008 22.2925 41.5008C22.2925 41.5008 22.9771 42.1144 24.0723 42.8994C24.2196 43.0106 24.38 43.1181 24.5461 43.2294L24.5461 43.2295L24.5463 43.2296C24.6832 43.3214 24.8241 43.4158 24.9648 43.5171C25.0921 43.5949 25.2199 43.6769 25.3499 43.7603C25.5556 43.8923 25.7666 44.0277 25.9891 44.1551L26.1075 44.2253L26.1094 44.2265C26.25 44.3099 26.3925 44.3945 26.5367 44.4796C26.7254 44.581 26.917 44.6845 27.1097 44.789C27.398 44.9574 27.7027 45.1029 28.0082 45.2488L28.0083 45.2488L28.0084 45.2489L28.0086 45.249C28.1039 45.2945 28.1993 45.34 28.2943 45.3863C28.5467 45.5181 28.8087 45.6295 29.0691 45.7402C29.2156 45.8025 29.3616 45.8646 29.5052 45.93C30.5173 46.3245 31.5568 46.648 32.6216 46.8641C40.9022 48.5456 52.1674 46.4026 54.7443 45.865L55.2889 42.3031V53.3145C55.2889 54.6178 55.5293 55.9099 55.9968 57.126C56.23 57.7315 56.3487 58.3745 56.3487 59.0226V64.8919C56.3487 65.2692 56.3183 65.6455 56.2584 66.0177C56.2229 66.2368 56.3274 66.4548 56.5272 66.5522L56.5515 66.5633C56.8406 66.7033 57.0444 66.9721 57.1022 67.2875L57.2675 68.1993C57.3355 68.5776 57.6651 68.8525 58.0494 68.8525H60.3049C60.7897 68.8525 61.104 68.3443 60.8891 67.9092C60.4083 66.9335 60.1609 65.8625 60.1609 64.7803V61.0135C60.1609 60.0328 60.4874 59.0855 61.0645 58.2923C62.0056 56.9982 62.6324 55.5032 62.8961 53.9241L64.253 45.4279L64.2459 48.8763C66.1697 49.4169 68.2467 48.5649 69.2152 46.7667L77.2584 31.8292C77.6712 31.8545 81.1234 31.9722 81.456 28.7175C81.5822 27.4792 81.5368 26.6476 81.5008 25.9868V25.9868C81.436 24.8 81.4012 24.1641 82.4448 22.7113C83.9265 20.6494 84.8798 19.1757 84.9295 17.5398C84.9376 17.2893 85.1506 17.0945 85.4 17.1148C86.5967 17.2152 89.7457 17.2294 91.6503 14.9271C91.9018 14.6229 91.8318 14.1705 91.5164 13.9322C91.0022 13.5437 90.1686 12.991 89.2264 12.6766C88.0226 12.2739 86.11 13.208 85.2996 13.6553C85.0897 13.7709 84.8281 13.6989 84.7084 13.491C84.2977 12.782 83.2916 11.28 81.7968 10.5589C81.8211 14.5346 79.9176 18.9293 79.0768 20.6778C78.2371 22.4263 78.6985 24.97 79.7401 25.6059C80.7816 26.2418 80.8181 26.9305 80.8181 26.9305C81.0828 27.6191 80.9936 29.6861 79.7401 29.9508C79.2232 30.0601 78.9099 30.1872 78.6347 30.2988C78.2589 30.4512 77.9542 30.5748 77.299 30.5847V30.5868C77.2913 30.5868 77.2843 30.5865 77.2775 30.5862C77.2709 30.586 77.2644 30.5857 77.2574 30.5857C77.2503 30.5857 77.2435 30.586 77.2366 30.5863C77.2298 30.5865 77.2229 30.5868 77.2158 30.5868V30.5847C76.5607 30.5748 76.256 30.4512 75.8802 30.2988C75.605 30.1872 75.2917 30.0601 74.7748 29.9508C73.5213 29.6861 73.4321 27.6191 73.6968 26.9305C73.6968 26.9305 73.7333 26.2418 74.7748 25.6059C75.8163 24.97 76.2778 22.4263 75.438 20.6778C74.5983 18.9303 72.6958 14.5377 72.7181 10.5629L72.718 10.5629L72.7151 10.561L72.713 10.5599C72.0609 10.8702 71.5173 11.3621 71.0762 11.9301L70.9687 12.068C69.0621 14.7882 69.5955 17.6889 69.5955 17.6889C69.5955 17.6889 69.3907 16.8359 68.623 16.9677C67.4384 17.1716 64.7773 17.2254 62.8737 14.9322C62.6182 14.6249 62.6861 14.1685 63.0046 13.9281C63.5187 13.5397 64.3514 12.9889 65.2905 12.6755C66.2286 12.3621 67.4587 12.779 68.2893 13.1624C68.8897 13.4393 69.5905 13.3764 70.1229 12.9839L62.6263 10.5984C60.9935 10.0791 59.2897 9.81442 57.5758 9.81442H51.5141C51.3766 9.80505 51.2378 9.80028 51.0978 9.80028H49.112C49.112 4.38774 44.6666 0 39.1829 0ZM45.1404 9.80028H33.2255C33.2255 6.55275 35.8927 3.92011 39.1829 3.92011C42.4731 3.92011 45.1404 6.55275 45.1404 9.80028ZM45.4174 24.5205C45.4174 26.7435 44.0838 28.6541 42.1756 29.4907V35.3659C42.1756 36.5635 41.2079 37.5344 40.0143 37.5344C38.8206 37.5344 37.853 36.5635 37.853 35.3659V29.4908C35.9446 28.6543 34.6109 26.7437 34.6109 24.5205C34.6109 21.5263 37.03 19.099 40.0141 19.099C42.9983 19.099 45.4174 21.5263 45.4174 24.5205Z" fill="black"/>
<path d="M114.493 25.8273C110.572 25.8273 107.642 26.9144 105.702 29.0887C103.973 30.9702 102.919 34.0644 102.54 38.3711C102.371 40.169 102.287 42.3851 102.287 45.0193C102.287 47.6535 102.371 49.9114 102.54 51.7929C102.709 53.6327 103.046 55.3888 103.552 57.0613C104.1 58.7338 104.817 60.0719 105.702 61.0754C107.642 63.2496 110.572 64.3367 114.493 64.3367C120.986 64.3367 124.338 60.9081 124.549 54.0508L129.103 54.3017C128.808 58.9429 127.522 62.5388 125.245 65.0894C123.01 67.5981 119.426 68.8525 114.493 68.8525C107.536 68.8525 102.793 66.7201 100.263 62.4552C98.956 60.3227 98.0284 57.8767 97.4803 55.1171C96.9743 52.3574 96.7213 49.0124 96.7213 45.082C96.7213 41.1098 96.9743 37.7439 97.4803 34.9843C98.0284 32.2246 98.956 29.7786 100.263 27.6461C102.793 23.4231 107.536 21.3115 114.493 21.3115C119.089 21.3115 122.504 22.3568 124.739 24.4475C126.973 26.4963 128.344 29.4441 128.85 33.2908L124.359 34.1062C123.474 28.5869 120.185 25.8273 114.493 25.8273Z" fill="black"/>
<path d="M161.149 22.1896H168.548L183.664 67.9744H178.162L173.671 54.1763H156.089L151.599 67.9744H146.096L161.149 22.1896ZM164.88 27.0817L157.48 49.7859H172.217L164.88 27.0817Z" fill="black"/>
<path d="M219.836 25.8273C215.914 25.8273 212.984 26.9144 211.044 29.0887C209.316 30.9702 208.262 34.0644 207.882 38.3711C207.714 40.169 207.629 42.3851 207.629 45.0193C207.629 47.6535 207.714 49.9114 207.882 51.7929C208.051 53.6327 208.388 55.3888 208.894 57.0613C209.442 58.7338 210.159 60.0719 211.044 61.0754C212.984 63.2496 215.914 64.3367 219.836 64.3367C226.329 64.3367 229.681 60.9081 229.891 54.0508L234.445 54.3017C234.15 58.9429 232.864 62.5388 230.587 65.0894C228.353 67.5981 224.769 68.8525 219.836 68.8525C212.879 68.8525 208.135 66.7201 205.605 62.4552C204.298 60.3227 203.371 57.8767 202.823 55.1171C202.317 52.3574 202.064 49.0124 202.064 45.082C202.064 41.1098 202.317 37.7439 202.823 34.9843C203.371 32.2246 204.298 29.7786 205.605 27.6461C208.135 23.4231 212.879 21.3115 219.836 21.3115C224.431 21.3115 227.847 22.3568 230.081 24.4475C232.316 26.4963 233.686 29.4441 234.192 33.2908L229.702 34.1062C228.816 28.5869 225.528 25.8273 219.836 25.8273Z" fill="black"/>
<path d="M284.01 22.1896H289.575V67.9744H284.01V47.2772H262.633V67.9744H257.068V22.1896H262.633V42.8869H284.01V22.1896Z" fill="black"/>
<path d="M315.606 22.1896H340.145V26.5799H321.172V42.5105H338.817V46.9009H321.172V63.5841H341.41V67.9744H315.606V22.1896Z" fill="black"/>
<path d="M410.386 25.8273C406.465 25.8273 403.534 26.9144 401.595 29.0887C399.866 30.9702 398.812 34.0644 398.432 38.3711C398.264 40.169 398.179 42.3851 398.179 45.0193C398.179 47.6535 398.264 49.9114 398.432 51.7929C398.601 53.6327 398.938 55.3888 399.444 57.0613C399.992 58.7338 400.709 60.0719 401.595 61.0754C403.534 63.2496 406.465 64.3367 410.386 64.3367C416.879 64.3367 420.231 60.9081 420.442 54.0508L424.995 54.3017C424.7 58.9429 423.414 62.5388 421.137 65.0894C418.903 67.5981 415.319 68.8525 410.386 68.8525C403.429 68.8525 398.685 66.7201 396.156 62.4552C394.849 60.3227 393.921 57.8767 393.373 55.1171C392.867 52.3574 392.614 49.0124 392.614 45.082C392.614 41.1098 392.867 37.7439 393.373 34.9843C393.921 32.2246 394.849 29.7786 396.156 27.6461C398.685 23.4231 403.429 21.3115 410.386 21.3115C414.982 21.3115 418.397 22.3568 420.631 24.4475C422.866 26.4963 424.236 29.4441 424.742 33.2908L420.252 34.1062C419.366 28.5869 416.078 25.8273 410.386 25.8273Z" fill="black"/>
<path d="M478.292 61.8907C476.984 64.1486 475.108 65.8838 472.663 67.0964C470.217 68.2671 467.203 68.8525 463.619 68.8525C460.077 68.8525 457.083 68.2671 454.638 67.0964C452.235 65.9256 450.379 64.2113 449.072 61.9534C447.807 59.6537 446.901 57.1659 446.353 54.4899C445.847 51.8139 445.594 48.887 445.594 45.7092C445.594 42.4896 445.741 39.7718 446.037 37.5557C446.332 35.2979 446.88 33.1236 447.681 31.033C448.524 28.9423 449.599 27.2071 450.906 25.8273C453.816 22.8168 458.074 21.3115 463.682 21.3115C470.765 21.3115 475.635 23.653 478.292 28.336C479.599 30.5939 480.505 33.0609 481.011 35.7369C481.559 38.4129 481.833 41.5488 481.833 45.1447C481.833 48.6988 481.559 51.8139 481.011 54.4899C480.505 57.1659 479.599 59.6328 478.292 61.8907ZM464.061 64.3367C466.254 64.3367 468.193 63.8559 469.88 62.8942C471.609 61.8907 472.916 60.49 473.801 58.692C474.687 56.8523 475.319 54.8453 475.698 52.671C476.078 50.4549 476.268 47.9253 476.268 45.082C476.268 42.2388 476.078 39.73 475.698 37.5557C475.319 35.3397 474.687 33.3118 473.801 31.472C471.946 27.7089 468.573 25.8273 463.682 25.8273C459.761 25.8273 456.809 27.0608 454.828 29.5277C452.382 32.58 451.159 37.7648 451.159 45.082C451.159 52.3992 452.382 57.584 454.828 60.6363C456.809 63.1033 459.887 64.3367 464.061 64.3367Z" fill="black"/>
<path d="M519.066 67.9744H510.97L500.914 22.1896H506.606L515.145 62.8315L523.936 22.1896H529.438L538.166 62.8315L546.767 22.1896H552.459L542.403 67.9744H534.308L526.655 33.1027L519.066 67.9744Z" fill="black"/>
<path d="M36.2 188.319C35.7392 196.106 31.9145 200 24.7259 200H13.1828C10.0493 200 7.33058 198.857 5.02656 196.572C2.76862 194.287 1.63965 191.536 1.63965 188.319V159.221C1.63965 156.051 2.74558 153.323 4.95744 151.038C7.21538 148.706 9.95717 147.541 13.1828 147.541H24.7259C31.9606 147.541 35.7852 151.434 36.2 159.221H30.463C30.0022 155.304 28.0898 153.346 24.7259 153.346H18.9198C17.3531 153.346 15.9937 153.929 14.8417 155.095C13.7358 156.214 13.1828 157.589 13.1828 159.221V188.319C13.1828 189.904 13.7358 191.28 14.8417 192.445C15.9937 193.611 17.3531 194.194 18.9198 194.194H24.7259C28.1359 194.194 30.0482 192.236 30.463 188.319H36.2Z" fill="black"/>
<path d="M61.5667 200V159.221C61.5667 156.004 62.6957 153.253 64.9536 150.968C67.2576 148.683 69.9764 147.541 73.1099 147.541H84.653C87.7865 147.541 90.4822 148.706 92.7401 151.038C94.9981 153.323 96.127 156.051 96.127 159.221V200H84.653V176.708H73.1099V200H61.5667ZM73.1099 170.832H84.653V159.221C84.653 157.589 84.077 156.214 82.925 155.095C81.8191 153.929 80.4597 153.346 78.8469 153.346C77.2801 153.346 75.9208 153.929 74.7688 155.095C73.6628 156.214 73.1099 157.589 73.1099 159.221V170.832Z" fill="black"/>
<path d="M156.054 188.319C155.593 196.106 151.769 200 144.58 200H133.037C129.903 200 127.185 198.857 124.881 196.572C122.623 194.287 121.494 191.536 121.494 188.319V159.221C121.494 156.051 122.6 153.323 124.812 151.038C127.069 148.706 129.811 147.541 133.037 147.541H144.58C151.815 147.541 155.639 151.434 156.054 159.221H150.317C149.856 155.304 147.944 153.346 144.58 153.346H138.774C137.207 153.346 135.848 153.929 134.696 155.095C133.59 156.214 133.037 157.589 133.037 159.221V188.319C133.037 189.904 133.59 191.28 134.696 192.445C135.848 193.611 137.207 194.194 138.774 194.194H144.58C147.99 194.194 149.902 192.236 150.317 188.319H156.054Z" fill="black"/>
<path d="M181.421 200V147.541H192.964V170.832H204.507V147.541H215.981V200H204.507V176.708H192.964V200H181.421Z" fill="black"/>
<path d="M241.348 200V147.541H270.171V153.346H252.891V170.832H264.434V176.708H252.891V194.194H270.171V200H241.348Z" fill="black"/>
<path d="M409.519 188.319C409.058 196.106 405.233 200 398.045 200H386.502C383.368 200 380.65 198.857 378.346 196.572C376.088 194.287 374.959 191.536 374.959 188.319V159.221C374.959 156.051 376.065 153.323 378.276 151.038C380.534 148.706 383.276 147.541 386.502 147.541H398.045C405.28 147.541 409.104 151.434 409.519 159.221H403.782C403.321 155.304 401.409 153.346 398.045 153.346H392.239C390.672 153.346 389.313 153.929 388.161 155.095C387.055 156.214 386.502 157.589 386.502 159.221V188.319C386.502 189.904 387.055 191.28 388.161 192.445C389.313 193.611 390.672 194.194 392.239 194.194H398.045C401.455 194.194 403.367 192.236 403.782 188.319H409.519Z" fill="black"/>
<path d="M446.429 147.541H457.972C461.105 147.541 463.801 148.706 466.059 151.038C468.317 153.323 469.446 156.051 469.446 159.221V188.319C469.446 191.49 468.317 194.241 466.059 196.572C463.801 198.857 461.105 200 457.972 200H446.429C443.295 200 440.577 198.857 438.273 196.572C436.015 194.287 434.886 191.536 434.886 188.319V159.221C434.886 156.004 436.015 153.253 438.273 150.968C440.577 148.683 443.295 147.541 446.429 147.541ZM446.429 159.221V188.319C446.429 189.904 446.982 191.28 448.088 192.445C449.24 193.611 450.599 194.194 452.166 194.194C453.779 194.194 455.138 193.611 456.244 192.445C457.396 191.28 457.972 189.904 457.972 188.319V159.221C457.972 157.589 457.396 156.214 456.244 155.095C455.138 153.929 453.779 153.346 452.166 153.346C450.599 153.346 449.24 153.929 448.088 155.095C446.982 156.214 446.429 157.589 446.429 159.221Z" fill="black"/>
<path d="M494.813 147.541H506.356V194.194H512.093C513.706 194.194 515.065 193.611 516.171 192.445C517.323 191.28 517.899 189.904 517.899 188.319V147.541H529.373V194.194H535.179C536.746 194.194 538.082 193.611 539.188 192.445C540.34 191.28 540.916 189.904 540.916 188.319V147.541H552.459V180.065C552.459 185.521 550.524 190.207 546.653 194.124C542.829 198.041 538.197 200 532.76 200H517.899V198.181C515.687 199.393 512.968 200 509.743 200H494.813V147.541Z" fill="black"/>
<path fill-rule="evenodd" clip-rule="evenodd" d="M315.41 183.1C315.989 182.877 316.394 182.367 316.394 181.774C316.394 180.975 315.66 180.328 314.755 180.328C313.849 180.328 313.115 180.975 313.115 181.774C313.115 182.367 313.52 182.877 314.099 183.1V184.621C314.099 184.966 314.392 185.246 314.755 185.246C315.117 185.246 315.41 184.966 315.41 184.621V183.1Z" fill="black"/>
<path d="M338.435 154.262C338.162 153.932 338.012 153.514 338.012 153.085V147.287C338.012 146.523 337.394 145.901 336.635 145.901H307.509C306.75 145.901 306.132 146.523 306.132 147.287V153.756L298.673 162.916C298.471 163.163 298.361 163.475 298.361 163.793V198.614C298.361 199.378 298.979 200 299.738 200H344.525C345.284 200 345.902 199.378 345.902 198.614V163.794C345.902 163.471 345.788 163.156 345.583 162.908L338.435 154.262ZM329.295 195.77C329.295 196.578 328.641 197.235 327.839 197.235H302.565C301.762 197.235 301.109 196.578 301.109 195.77V166.64C301.109 165.832 301.762 165.175 302.565 165.175H327.839C328.642 165.175 329.295 165.832 329.295 166.64V195.77ZM333.249 157.162L330.278 162.031C330.135 162.265 329.877 162.41 329.604 162.41H304.305H303.619C303.437 162.41 303.276 162.308 303.198 162.142C303.12 161.977 303.144 161.787 303.259 161.645L307.332 156.644C307.483 156.459 307.705 156.353 307.943 156.353H332.331H332.8C332.993 156.353 333.165 156.455 333.26 156.625C333.355 156.795 333.351 156.996 333.249 157.162ZM335.264 152.787C335.264 153.229 334.907 153.589 334.467 153.589H309.677C309.237 153.589 308.88 153.229 308.88 152.787V149.468C308.88 149.026 309.238 148.666 309.677 148.666H334.467C334.906 148.666 335.264 149.026 335.264 149.468V152.787H335.264Z" fill="black"/>
<path d="M319.641 177.049H318.219H312.931H311.508H306.898H304.919L305.488 179.041C306.07 181.078 307.89 182.5 309.914 182.5C309.955 182.5 309.996 182.499 310.036 182.498V187.151C310.036 188.812 311.322 190.164 312.903 190.164H318.246C319.826 190.164 321.113 188.812 321.113 187.151V182.498C321.154 182.499 321.194 182.5 321.235 182.5C323.259 182.5 325.079 181.078 325.661 179.041L326.23 177.049H324.251H319.641ZM319.641 187.15C319.641 187.957 319.013 188.616 318.246 188.616H312.904C312.136 188.616 311.509 187.956 311.509 187.15V185.883H319.642V187.15H319.641ZM321.236 180.953C320.652 180.953 320.11 180.779 319.641 180.488V184.906H311.508V180.488C311.04 180.779 310.498 180.953 309.914 180.953C308.489 180.953 307.287 179.959 306.898 178.595H311.508H312.931H318.219H319.642H324.252C323.862 179.959 322.66 180.953 321.236 180.953Z" fill="black"/>
<path fill-rule="evenodd" clip-rule="evenodd" d="M309.837 177.049H312.138C312.27 175.451 313.758 174.191 315.574 174.191C317.391 174.191 318.879 175.451 319.011 177.049H321.312C321.177 174.312 318.66 172.131 315.574 172.131C312.489 172.131 309.972 174.312 309.837 177.049Z" fill="black"/>
<path fill-rule="evenodd" clip-rule="evenodd" d="M587.782 167.291L596.602 176.783L622.374 148.306C624.303 146.382 627.335 148.435 625.819 150.615L600.461 186.659C598.532 188.968 595.913 189.225 593.708 186.916L580.891 172.678C578.411 169.343 584.75 164.597 587.782 167.291Z" fill="#9AB08B"/>
</svg>
