<svg width="333" height="328" viewBox="0 0 333 328" fill="none" xmlns="http://www.w3.org/2000/svg">
<path d="M65.5601 192.741C65.7714 196.009 68.5497 198.106 72.6767 198.106C77.0961 198.106 79.8583 195.895 79.8583 192.399C79.8583 189.652 78.2822 188.123 74.4315 187.229L72.3842 186.741C69.9308 186.172 68.9397 185.408 68.9397 184.091C68.9397 182.4 70.4832 181.311 72.8067 181.311C75.0001 181.311 76.5274 182.368 76.8037 184.091H79.5658C79.4033 181.002 76.6249 178.823 72.8554 178.823C68.7772 178.823 66.0638 181.002 66.0638 184.254C66.0638 186.936 67.5911 188.53 70.9869 189.326L73.4079 189.896C75.8938 190.481 76.9824 191.343 76.9824 192.757C76.9824 194.416 75.2601 195.619 72.8879 195.619C70.3695 195.619 68.6147 194.497 68.3548 192.741H65.5601Z" fill="#2F3B3E"/>
<path d="M87.8197 197.651V189.993H95.8949V187.538H87.8197V181.799H96.6423V179.278H84.9926V197.651H87.8197Z" fill="#2F3B3E"/>
<path d="M111.119 179.278V197.651H113.946V191.424H118.333C121.989 191.424 124.556 188.953 124.556 185.376C124.556 181.75 122.054 179.278 118.414 179.278H111.119ZM113.946 181.75H117.667C120.25 181.75 121.68 183.034 121.68 185.392C121.68 187.668 120.202 188.969 117.667 188.969H113.946V181.75Z" fill="#2F3B3E"/>
<path d="M132.469 190.611H136.645L140.479 197.651H143.745L139.537 190.156C141.828 189.392 143.192 187.392 143.192 184.92C143.192 181.473 140.772 179.278 137.002 179.278H129.642V197.651H132.469V190.611ZM132.469 181.717H136.628C138.887 181.717 140.284 182.953 140.284 184.985C140.284 187.05 138.984 188.221 136.71 188.221H132.469V181.717Z" fill="#2F3B3E"/>
<path d="M156.629 178.823C151.268 178.823 147.888 182.53 147.888 188.465C147.888 194.367 151.186 198.106 156.629 198.106C162.024 198.106 165.322 194.367 165.322 188.465C165.322 182.547 162.007 178.823 156.629 178.823ZM156.629 181.425C160.204 181.425 162.43 184.156 162.43 188.465C162.43 192.741 160.22 195.505 156.629 195.505C152.974 195.505 150.78 192.741 150.78 188.465C150.78 184.156 153.039 181.425 156.629 181.425Z" fill="#2F3B3E"/>
<path d="M187.549 197.651V181.799H193.463V179.278H178.824V181.799H184.722V197.651H187.549Z" fill="#2F3B3E"/>
<path d="M210.182 195.131H201.165V189.505H209.711V187.083H201.165V181.799H210.182V179.278H198.338V197.651H210.182V195.131Z" fill="#2F3B3E"/>
<path d="M214.488 197.651H217.64L222.336 190.79H222.563L227.194 197.651H230.508L224.253 188.481L230.638 179.278H227.438L222.758 186.254H222.547L217.933 179.278H214.553L220.776 188.4L214.488 197.651Z" fill="#2F3B3E"/>
<path d="M243.019 197.651V181.799H248.934V179.278H234.294V181.799H240.192V197.651H243.019Z" fill="#2F3B3E"/>
<path d="M3.49329 225.365C3.49329 220.715 5.15057 216.504 7.53901 213.968H4.45192C1.83601 216.439 0 220.455 0 225.365C0 230.259 1.94974 234.454 4.43567 236.844H7.53901C5.08558 233.982 3.49329 229.967 3.49329 225.365Z" fill="#2F3B3E"/>
<path d="M15.9879 234.649V227.235H23.8519V224.357H15.9879V219.138H24.5993V216.163H12.4621V234.649H15.9879Z" fill="#2F3B3E"/>
<path d="M37.6788 215.691C32.1708 215.691 28.6775 219.414 28.6775 225.398C28.6775 231.381 32.1058 235.121 37.6788 235.121C43.1868 235.121 46.6151 231.381 46.6151 225.398C46.6151 219.431 43.1868 215.691 37.6788 215.691ZM37.6788 218.764C40.9446 218.764 43.0243 221.349 43.0243 225.398C43.0243 229.446 40.9609 232.048 37.6788 232.048C34.3317 232.048 32.2845 229.446 32.2845 225.398C32.2845 221.349 34.3805 218.764 37.6788 218.764Z" fill="#2F3B3E"/>
<path d="M55.1778 227.788H58.801L62.4405 234.649H66.4538L62.3756 227.235C64.6015 226.438 65.9013 224.406 65.9013 221.983C65.9013 218.39 63.3992 216.163 59.3859 216.163H51.652V234.649H55.1778V227.788ZM55.1778 219.008H58.8985C60.9782 219.008 62.2943 220.162 62.2943 222.048C62.2943 223.951 61.0757 225.056 58.9635 225.056H55.1778V219.008Z" fill="#2F3B3E"/>
<path d="M79.0621 235.121C83.4653 235.121 86.7149 232.519 87.1048 228.666H83.6603C83.2053 230.714 81.4181 232.031 79.0621 232.031C75.91 232.031 73.944 229.479 73.944 225.398C73.944 221.317 75.91 218.764 79.0459 218.764C81.4018 218.764 83.2053 220.211 83.644 222.39H87.1048C86.7474 218.488 83.4003 215.691 79.0459 215.691C73.6678 215.691 70.337 219.398 70.337 225.398C70.337 231.414 73.6841 235.121 79.0621 235.121Z" fill="#2F3B3E"/>
<path d="M104.311 231.674H95.5374V226.682H103.824V223.869H95.5374V219.138H104.311V216.163H92.0117V234.649H104.311V231.674Z" fill="#2F3B3E"/>
<path d="M109.689 216.163V234.649H116.871C122.509 234.649 125.742 231.267 125.742 225.316C125.742 219.512 122.476 216.163 116.871 216.163H109.689ZM113.215 219.138H116.367C120.007 219.138 122.135 221.414 122.135 225.365C122.135 229.43 120.055 231.674 116.367 231.674H113.215V219.138Z" fill="#2F3B3E"/>
<path d="M138.984 229.593C139.163 232.974 142.023 235.121 146.393 235.121C151.024 235.121 153.884 232.861 153.884 229.219C153.884 226.39 152.275 224.812 148.441 223.983L146.247 223.512C143.94 223.008 142.997 222.292 142.997 221.073C142.997 219.545 144.411 218.569 146.523 218.569C148.554 218.569 150 219.577 150.212 221.154H153.575C153.445 217.935 150.536 215.691 146.523 215.691C142.266 215.691 139.455 217.935 139.455 221.333C139.455 224.113 141.08 225.804 144.509 226.552L146.962 227.089C149.35 227.625 150.358 228.373 150.358 229.658C150.358 231.17 148.798 232.243 146.604 232.243C144.265 232.243 142.624 231.202 142.413 229.593H138.984Z" fill="#2F3B3E"/>
<path d="M178.483 234.649V216.163H174.356L168.783 229.316H168.555L162.999 216.163H158.855V234.649H162.137V221.837H162.316L167.434 233.82H169.904L175.006 221.837H175.217V234.649H178.483Z" fill="#2F3B3E"/>
<path d="M196.469 234.649H200.255L193.593 216.163H189.58L182.918 234.649H186.477L188.053 230.015H194.909L196.469 234.649ZM191.384 219.772H191.611L194.113 227.284H188.865L191.384 219.772Z" fill="#2F3B3E"/>
<path d="M216.828 231.609H208.233V216.163H204.707V234.649H216.828V231.609Z" fill="#2F3B3E"/>
<path d="M233.758 231.609H225.163V216.163H221.637V234.649H233.758V231.609Z" fill="#2F3B3E"/>
<path d="M255.579 235.121C259.982 235.121 263.232 232.519 263.622 228.666H260.177C259.722 230.714 257.935 232.031 255.579 232.031C252.427 232.031 250.461 229.479 250.461 225.398C250.461 221.317 252.427 218.764 255.563 218.764C257.919 218.764 259.722 220.211 260.161 222.39H263.622C263.264 218.488 259.917 215.691 255.563 215.691C250.185 215.691 246.854 219.398 246.854 225.398C246.854 231.414 250.201 235.121 255.579 235.121Z" fill="#2F3B3E"/>
<path d="M280.146 234.649H283.931L277.27 216.163H273.257L266.595 234.649H270.153L271.729 230.015H278.586L280.146 234.649ZM275.06 219.772H275.288L277.79 227.284H272.542L275.06 219.772Z" fill="#2F3B3E"/>
<path d="M288.383 216.163V234.649H291.909V228.682H295.906C299.773 228.682 302.454 226.162 302.454 222.439C302.454 218.683 299.871 216.163 296.069 216.163H288.383ZM291.909 219.057H295.126C297.531 219.057 298.896 220.244 298.896 222.455C298.896 224.617 297.498 225.82 295.126 225.82H291.909V219.057Z" fill="#2F3B3E"/>
<path d="M306.5 229.593C306.678 232.974 309.538 235.121 313.909 235.121C318.539 235.121 321.399 232.861 321.399 229.219C321.399 226.39 319.79 224.812 315.956 223.983L313.763 223.512C311.455 223.008 310.513 222.292 310.513 221.073C310.513 219.545 311.927 218.569 314.039 218.569C316.07 218.569 317.516 219.577 317.727 221.154H321.09C320.96 217.935 318.052 215.691 314.039 215.691C309.782 215.691 306.971 217.935 306.971 221.333C306.971 224.113 308.596 225.804 312.024 226.552L314.477 227.089C316.866 227.625 317.873 228.373 317.873 229.658C317.873 231.17 316.313 232.243 314.12 232.243C311.78 232.243 310.139 231.202 309.928 229.593H306.5Z" fill="#2F3B3E"/>
<path d="M329.49 225.365C329.49 229.967 327.914 233.982 325.461 236.844H328.564C331.05 234.454 333 230.259 333 225.365C333 220.455 331.164 216.439 328.548 213.968H325.445C327.849 216.504 329.49 220.715 329.49 225.365Z" fill="#2F3B3E"/>
<path d="M69.5572 279.142H71.0601L67.6724 269.956H66.1614L62.7737 279.142H64.2279L65.0971 276.679H68.6879L69.5572 279.142ZM66.8438 271.598H66.9494L68.3223 275.509H65.4708L66.8438 271.598Z" fill="#2F3B3E"/>
<path d="M81.8568 279.142C83.8553 279.142 85.0576 278.159 85.0576 276.541C85.0576 275.338 84.2127 274.46 82.9454 274.33V274.224C83.8715 274.07 84.5864 273.208 84.5864 272.249C84.5864 270.834 83.5303 269.956 81.7756 269.956H78.0386V279.142H81.8568ZM79.4521 271.143H81.4506C82.5392 271.143 83.1729 271.647 83.1729 272.501C83.1729 273.387 82.4986 273.858 81.1988 273.858H79.4521V271.143ZM79.4521 277.956V274.964H81.4912C82.8804 274.964 83.6034 275.468 83.6034 276.443C83.6034 277.435 82.9048 277.956 81.5806 277.956H79.4521Z" fill="#2F3B3E"/>
<path d="M96.1062 279.37C98.1778 279.37 99.7132 278.175 99.9732 276.37H98.5677C98.2996 277.411 97.3491 278.069 96.1062 278.069C94.4002 278.069 93.3359 276.712 93.3359 274.549C93.3359 272.387 94.4002 271.029 96.0981 271.029C97.3329 271.029 98.2915 271.761 98.5596 272.891H99.9732C99.7376 271.037 98.1453 269.729 96.0981 269.729C93.4984 269.729 91.8899 271.574 91.8899 274.549C91.8899 277.525 93.5065 279.37 96.1062 279.37Z" fill="#2F3B3E"/>
<path d="M107.236 269.956V279.142H110.591C113.386 279.142 115.002 277.451 115.002 274.525C115.002 271.639 113.37 269.956 110.591 269.956H107.236ZM108.65 271.216H110.445C112.403 271.216 113.556 272.444 113.556 274.541C113.556 276.671 112.419 277.882 110.445 277.882H108.65V271.216Z" fill="#2F3B3E"/>
<path d="M128.236 277.882H123.728V275.07H128.001V273.858H123.728V271.216H128.236V269.956H122.314V279.142H128.236V277.882Z" fill="#2F3B3E"/>
<path d="M137.1 279.142V275.313H141.137V274.086H137.1V271.216H141.511V269.956H135.686V279.142H137.1Z" fill="#2F3B3E"/>
<path d="M156.719 275.517V274.379H152.884V275.549H155.33V275.752C155.313 277.134 154.257 278.069 152.706 278.069C150.926 278.069 149.813 276.72 149.813 274.533C149.813 272.387 150.926 271.029 152.673 271.029C153.973 271.029 154.867 271.647 155.232 272.769H156.654C156.337 270.915 154.793 269.729 152.673 269.729C150.057 269.729 148.367 271.623 148.367 274.541C148.367 277.508 150.041 279.37 152.689 279.37C155.135 279.37 156.719 277.85 156.719 275.517Z" fill="#2F3B3E"/>
<path d="M171.748 279.142V269.956H170.335V273.826H165.485V269.956H164.071V279.142H165.485V275.094H170.335V279.142H171.748Z" fill="#2F3B3E"/>
<path d="M180.871 279.142V269.956H179.458V279.142H180.871Z" fill="#2F3B3E"/>
<path d="M187.931 276.785C187.931 278.346 189.085 279.37 190.766 279.37C192.545 279.37 193.626 278.305 193.626 276.476V269.956H192.212V276.46C192.212 277.5 191.692 278.061 190.75 278.061C189.905 278.061 189.345 277.541 189.32 276.785H187.931Z" fill="#2F3B3E"/>
<path d="M202.741 279.142V276.102L203.797 274.939L206.973 279.142H208.745L204.796 273.948L208.436 269.956H206.746L202.847 274.281H202.741V269.956H201.327V279.142H202.741Z" fill="#2F3B3E"/>
<path d="M221.458 277.866H217.055V269.956H215.642V279.142H221.458V277.866Z" fill="#2F3B3E"/>
<path d="M238.096 279.142V269.956H236.447L233.425 277.013H233.319L230.305 269.956H228.656V279.142H229.972V272.46H230.054L232.832 278.899H233.921L236.691 272.46H236.78V279.142H238.096Z" fill="#2F3B3E"/>
<path d="M247.171 279.142V272.541H247.284L252.126 279.142H253.41V269.956H252.037V276.557H251.931L247.089 269.956H245.798V279.142H247.171Z" fill="#2F3B3E"/>
<path d="M265.108 269.729C262.427 269.729 260.738 271.582 260.738 274.549C260.738 277.5 262.387 279.37 265.108 279.37C267.805 279.37 269.455 277.5 269.455 274.549C269.455 271.59 267.797 269.729 265.108 269.729ZM265.108 271.029C266.896 271.029 268.009 272.395 268.009 274.549C268.009 276.687 266.904 278.069 265.108 278.069C263.28 278.069 262.184 276.687 262.184 274.549C262.184 272.395 263.313 271.029 265.108 271.029Z" fill="#2F3B3E"/>
<path d="M88.6809 294.005V303.191H90.0945V300.078H92.2879C94.1158 300.078 95.3994 298.842 95.3994 297.053C95.3994 295.241 94.1483 294.005 92.3285 294.005H88.6809ZM90.0945 295.241H91.9548C93.2466 295.241 93.9615 295.883 93.9615 297.062C93.9615 298.2 93.2222 298.85 91.9548 298.85H90.0945V295.241Z" fill="#2F3B3E"/>
<path d="M110.551 304.175L109.373 302.516C110.396 301.744 110.973 300.362 110.973 298.598C110.973 295.631 109.291 293.777 106.627 293.777C103.946 293.777 102.256 295.623 102.256 298.598C102.256 301.59 103.921 303.419 106.627 303.419C107.22 303.419 107.788 303.321 108.284 303.15L109.056 304.175H110.551ZM106.627 302.118C104.831 302.118 103.71 300.769 103.71 298.598C103.71 296.436 104.831 295.078 106.627 295.078C108.398 295.078 109.527 296.444 109.527 298.598C109.527 299.801 109.169 300.752 108.528 301.281L107.805 300.395H106.342L107.528 301.996C107.236 302.077 106.935 302.118 106.627 302.118Z" fill="#2F3B3E"/>
<path d="M119.714 299.671H121.802L123.719 303.191H125.352L123.248 299.443C124.394 299.061 125.076 298.061 125.076 296.826C125.076 295.102 123.866 294.005 121.981 294.005H118.301V303.191H119.714V299.671ZM119.714 295.224H121.794C122.923 295.224 123.622 295.842 123.622 296.858C123.622 297.891 122.972 298.476 121.835 298.476H119.714V295.224Z" fill="#2F3B3E"/>
<path d="M132.063 300.736C132.168 302.37 133.558 303.419 135.621 303.419C137.831 303.419 139.212 302.313 139.212 300.565C139.212 299.191 138.424 298.427 136.498 297.98L135.475 297.736C134.248 297.452 133.752 297.07 133.752 296.411C133.752 295.566 134.524 295.021 135.686 295.021C136.783 295.021 137.546 295.549 137.684 296.411H139.066C138.984 294.867 137.595 293.777 135.71 293.777C133.671 293.777 132.315 294.867 132.315 296.492C132.315 297.834 133.078 298.631 134.776 299.029L135.987 299.313C137.23 299.606 137.774 300.037 137.774 300.744C137.774 301.573 136.913 302.175 135.727 302.175C134.467 302.175 133.59 301.614 133.46 300.736H132.063Z" fill="#2F3B3E"/>
<path d="M150.26 303.191V295.265H153.217V294.005H145.898V295.265H148.847V303.191H150.26Z" fill="#2F3B3E"/>
<path d="M161.788 294.005H160.375V300.029C160.375 302.02 161.813 303.419 164.16 303.419C166.5 303.419 167.938 302.02 167.938 300.029V294.005H166.524V299.907C166.524 301.208 165.663 302.11 164.16 302.11C162.649 302.11 161.788 301.208 161.788 299.907V294.005Z" fill="#2F3B3E"/>
<path d="M179.84 303.191L183.195 294.005H181.692L179.149 301.451H179.035L176.476 294.005H174.949L178.312 303.191H179.84Z" fill="#2F3B3E"/>
<path d="M195.462 296.387H195.543L197.582 303.191H198.915L201.441 294.005H199.971L198.24 301.094H198.151L196.169 294.005H194.836L192.862 301.094H192.781L191.042 294.005H189.564L192.099 303.191H193.431L195.462 296.387Z" fill="#2F3B3E"/>
<path d="M207.94 303.191H209.516L211.864 299.761H211.978L214.293 303.191H215.95L212.823 298.606L216.015 294.005H214.415L212.075 297.492H211.97L209.663 294.005H207.973L211.084 298.565L207.94 303.191Z" fill="#2F3B3E"/>
<path d="M227.113 303.191V299.46L230.419 294.005H228.843L226.463 297.996H226.357L223.969 294.005H222.393L225.699 299.46V303.191H227.113Z" fill="#2F3B3E"/>
<path d="M237.138 303.191H244.157V301.931H238.941V301.817L244.035 295.005V294.005H237.292V295.265H242.256V295.379L237.138 302.191V303.191Z" fill="#2F3B3E"/>
<path d="M106.537 327.24H107.951V318.054H106.545L104.076 319.769V321.192L106.432 319.558H106.537V327.24Z" fill="#2F3B3E"/>
<path d="M115.953 320.704V320.72H117.293V320.704C117.293 319.704 118 319.037 119.032 319.037C120.015 319.037 120.754 319.671 120.754 320.525C120.754 321.208 120.445 321.696 119.203 322.972L116.026 326.24V327.24H122.298V325.988H118V325.882L120.112 323.777C121.672 322.208 122.152 321.419 122.152 320.444C122.152 318.94 120.844 317.826 119.073 317.826C117.253 317.826 115.953 319.013 115.953 320.704Z" fill="#2F3B3E"/>
<path d="M131.592 323.102H132.769C134.012 323.102 134.776 323.695 134.776 324.663C134.776 325.581 133.964 326.232 132.81 326.232C131.665 326.232 130.877 325.655 130.787 324.752H129.422C129.512 326.394 130.852 327.467 132.81 327.467C134.752 327.467 136.23 326.289 136.23 324.736C136.23 323.5 135.442 322.647 134.167 322.492V322.387C135.199 322.159 135.84 321.346 135.84 320.265C135.84 318.883 134.508 317.826 132.786 317.826C130.917 317.826 129.707 318.85 129.609 320.501H130.958C131.039 319.59 131.713 319.037 132.737 319.037C133.761 319.037 134.443 319.598 134.443 320.46C134.443 321.338 133.736 321.948 132.729 321.948H131.592V323.102Z" fill="#2F3B3E"/>
<path d="M147.726 327.24H149.09V325.451H150.39V324.208H149.09V318.054H147.076C145.402 320.509 143.997 322.663 143.16 324.159V325.451H147.726V327.24ZM144.525 324.143C145.63 322.273 146.726 320.606 147.661 319.281H147.742V324.232H144.525V324.143Z" fill="#2F3B3E"/>
<path d="M160.732 327.467C162.739 327.467 164.103 326.167 164.103 324.273C164.103 322.468 162.852 321.192 161.073 321.192C160.188 321.192 159.53 321.484 159.091 322.021H158.985L159.229 319.297H163.559V318.054H158.132L157.629 323.305H158.929C159.294 322.704 159.952 322.354 160.765 322.354C161.918 322.354 162.714 323.143 162.714 324.313C162.714 325.468 161.926 326.24 160.748 326.24C159.708 326.24 158.937 325.638 158.839 324.736H157.482C157.572 326.337 158.88 327.467 160.732 327.467Z" fill="#2F3B3E"/>
<path d="M174.705 327.459C176.687 327.459 178.085 326.126 178.085 324.256C178.085 322.484 176.793 321.192 175.006 321.192C173.901 321.192 172.999 321.704 172.544 322.582H172.439C172.471 320.346 173.308 319.062 174.762 319.062C175.623 319.062 176.289 319.533 176.525 320.289H177.955C177.662 318.793 176.419 317.826 174.77 317.826C172.439 317.826 171.074 319.655 171.074 322.769C171.074 323.874 171.261 324.801 171.634 325.533C172.236 326.776 173.316 327.459 174.705 327.459ZM174.697 326.232C173.568 326.232 172.707 325.386 172.707 324.273C172.707 323.167 173.544 322.37 174.705 322.37C175.867 322.37 176.679 323.167 176.679 324.305C176.679 325.394 175.818 326.232 174.697 326.232Z" fill="#2F3B3E"/>
<path d="M185.673 327.24H187.151L191.237 319.322V318.054H184.885V319.289H189.808V319.387L185.673 327.24Z" fill="#2F3B3E"/>
<path d="M201.677 327.467C203.748 327.467 205.178 326.362 205.178 324.777C205.178 323.59 204.39 322.663 203.196 322.443V322.33C204.179 322.086 204.796 321.297 204.796 320.305C204.796 318.858 203.505 317.826 201.677 317.826C199.857 317.826 198.557 318.858 198.557 320.305C198.557 321.289 199.191 322.086 200.166 322.33V322.443C198.963 322.679 198.175 323.606 198.175 324.785C198.175 326.37 199.613 327.467 201.677 327.467ZM201.677 321.883C200.653 321.883 199.954 321.305 199.954 320.444C199.954 319.566 200.645 318.98 201.677 318.98C202.717 318.98 203.407 319.566 203.407 320.444C203.407 321.297 202.708 321.883 201.677 321.883ZM201.677 326.305C200.466 326.305 199.621 325.63 199.621 324.663C199.621 323.695 200.466 323.029 201.677 323.029C202.895 323.029 203.732 323.695 203.732 324.663C203.732 325.63 202.895 326.305 201.677 326.305Z" fill="#2F3B3E"/>
<path d="M215.536 327.459C217.868 327.459 219.233 325.638 219.233 322.517C219.233 321.411 219.046 320.484 218.672 319.753C218.071 318.501 216.982 317.826 215.601 317.826C213.619 317.826 212.222 319.159 212.222 321.029C212.222 322.801 213.513 324.094 215.301 324.094C216.405 324.094 217.307 323.59 217.762 322.704H217.868C217.835 324.947 216.998 326.224 215.544 326.224C214.683 326.224 214.017 325.76 213.781 324.996H212.352C212.644 326.492 213.887 327.459 215.536 327.459ZM215.601 322.915C214.439 322.915 213.627 322.118 213.627 320.988C213.627 319.891 214.488 319.053 215.609 319.053C216.738 319.053 217.6 319.899 217.6 321.013C217.6 322.118 216.763 322.915 215.601 322.915Z" fill="#2F3B3E"/>
<path d="M229.704 327.467C231.873 327.467 233.141 325.695 233.141 322.655C233.141 319.606 231.849 317.826 229.704 317.826C227.543 317.826 226.252 319.606 226.252 322.639C226.252 325.695 227.527 327.467 229.704 327.467ZM229.704 326.248C228.413 326.248 227.681 324.98 227.681 322.639C227.681 320.322 228.429 319.053 229.704 319.053C230.98 319.053 231.711 320.314 231.711 322.639C231.711 324.98 230.988 326.248 229.704 326.248Z" fill="#2F3B3E"/>
<path d="M79.4158 17.854C79.7245 21.8955 83.1528 24.5249 88.1246 24.5249C93.4864 24.5249 96.8822 21.7818 96.8822 17.4807C96.8822 14.0397 94.9325 12.1569 90.0744 10.9396L87.6209 10.2904C84.3876 9.4626 83.104 8.40759 83.104 6.57351C83.104 4.2038 85.1675 2.64563 88.2871 2.64563C91.2117 2.64563 93.194 4.07395 93.6002 6.47612H96.541C96.2973 2.69433 92.9177 0 88.3846 0C83.429 0 80.0982 2.69433 80.0982 6.67089C80.0982 9.99822 81.9342 11.9135 86.1749 12.9847L89.1807 13.7638C92.4141 14.5753 93.8764 15.8413 93.8764 17.8377C93.8764 20.1587 91.5529 21.863 88.4008 21.863C85.07 21.863 82.7303 20.3048 82.3729 17.854H79.4158Z" fill="#2F3B3E"/>
<path d="M104.681 23.973V13.8287H115.064V11.2318H104.681V3.18125H115.99V0.55185H101.757V23.973H104.681Z" fill="#2F3B3E"/>
<path d="M130.19 0.55185V23.973H133.115V15.6141H139.013C143.416 15.6141 146.552 12.514 146.552 8.13167C146.552 3.66818 143.481 0.55185 139.045 0.55185H130.19ZM133.115 3.14879H138.282C141.678 3.14879 143.546 4.91796 143.546 8.13167C143.546 11.2318 141.613 13.0172 138.282 13.0172H133.115V3.14879Z" fill="#2F3B3E"/>
<path d="M150.988 23.973H153.782V13.1308C153.782 10.6637 155.716 8.87829 158.38 8.87829C158.933 8.87829 159.94 8.97567 160.168 9.0406V6.24889C159.81 6.20019 159.225 6.16773 158.77 6.16773C156.447 6.16773 154.432 7.36882 153.912 9.07306H153.652V6.47612H150.988V23.973Z" fill="#2F3B3E"/>
<path d="M170.371 24.2814C175.359 24.2814 178.446 20.8404 178.446 15.2246C178.446 9.59245 175.359 6.16773 170.371 6.16773C165.383 6.16773 162.296 9.59245 162.296 15.2246C162.296 20.8404 165.383 24.2814 170.371 24.2814ZM170.371 21.7656C167.057 21.7656 165.188 19.3634 165.188 15.2246C165.188 11.0695 167.057 8.68352 170.371 8.68352C173.686 8.68352 175.554 11.0695 175.554 15.2246C175.554 19.3634 173.686 21.7656 170.371 21.7656Z" fill="#2F3B3E"/>
<path d="M201.6 23.973V3.18125H209.155V0.55185H191.12V3.18125H198.675V23.973H201.6Z" fill="#2F3B3E"/>
<path d="M221.666 19.4446C220.935 20.9865 219.407 21.8143 217.149 21.8143C214.176 21.8143 212.242 19.6231 212.096 16.166V16.0361H224.688V14.9649C224.688 9.52752 221.812 6.16773 217.084 6.16773C212.275 6.16773 209.187 9.73853 209.187 15.2408C209.187 20.7755 212.226 24.2814 217.084 24.2814C220.918 24.2814 223.648 22.4311 224.46 19.4446H221.666ZM217.051 8.63483C219.83 8.63483 221.682 10.6799 221.747 13.78H212.096C212.307 10.6799 214.257 8.63483 217.051 8.63483Z" fill="#2F3B3E"/>
<path d="M234.615 17.4157L238.759 24.0217H242.073L236.045 15.1596L241.992 6.52481H238.824L234.713 13.0334H234.453L230.293 6.52481H226.963L233.023 15.2733L227.028 24.0217H230.196L234.355 17.4157H234.615Z" fill="#2F3B3E"/>
<path d="M247.045 1.94771V6.47612H244.218V8.81337H247.045V19.4284C247.045 22.7719 248.491 24.1029 252.098 24.1029C252.65 24.1029 253.187 24.0379 253.739 23.9405V21.5871C253.219 21.6358 252.943 21.652 252.439 21.652C250.619 21.652 249.84 20.7755 249.84 18.7142V8.81337H253.739V6.47612H249.84V1.94771H247.045Z" fill="#2F3B3E"/>
<path d="M61.1649 52.6144H62.7003L58.3783 40.9039H56.9323L52.6104 52.6144H54.1458L55.3237 49.2628H59.9869L61.1649 52.6144ZM57.5903 42.7948H57.7203L59.5563 48.0211H55.7543L57.5903 42.7948Z" fill="#2F3B3E"/>
<path d="M74.025 52.6144C76.5191 52.6144 77.9976 51.389 77.9976 49.3277C77.9976 47.7776 76.9821 46.682 75.3817 46.4792V46.3493C76.511 46.1464 77.4046 45.0427 77.4046 43.8254C77.4046 42.0319 76.0885 40.9039 73.9357 40.9039H69.4513V52.6144H74.025ZM70.9136 42.1942H73.627C75.0811 42.1942 75.926 42.884 75.926 44.077C75.926 45.3187 75.0243 45.9517 73.2533 45.9517H70.9136V42.1942ZM70.9136 51.3241V47.2096H73.6676C75.5361 47.2096 76.4947 47.8994 76.4947 49.2546C76.4947 50.6099 75.5686 51.3241 73.8057 51.3241H70.9136Z" fill="#2F3B3E"/>
<path d="M89.8017 52.8904C92.2958 52.8904 94.148 51.5026 94.538 49.352H93.0513C92.6776 50.7073 91.4346 51.5432 89.8017 51.5432C87.5433 51.5432 86.1297 49.701 86.1297 46.7632C86.1297 43.8254 87.5433 41.9751 89.7936 41.9751C91.4103 41.9751 92.6613 42.9246 93.0513 44.4341H94.538C94.1886 42.178 92.2633 40.6279 89.7936 40.6279C86.609 40.6279 84.6268 42.9814 84.6268 46.7632C84.6268 50.5369 86.6171 52.8904 89.8017 52.8904Z" fill="#2F3B3E"/>
<path d="M101.687 40.9039V52.6144H105.708C109.194 52.6144 111.241 50.4476 111.241 46.7551C111.241 43.0707 109.185 40.9039 105.708 40.9039H101.687ZM103.149 42.2186H105.611C108.211 42.2186 109.746 43.9066 109.746 46.7713C109.746 49.628 108.227 51.2997 105.611 51.2997H103.149V42.2186Z" fill="#2F3B3E"/>
<path d="M125.734 51.2997H119.933V47.2745H125.433V45.976H119.933V42.2186H125.734V40.9039H118.471V52.6144H125.734V51.2997Z" fill="#2F3B3E"/>
<path d="M134.54 52.6144V47.5423H139.731V46.2438H134.54V42.2186H140.194V40.9039H133.078V52.6144H134.54Z" fill="#2F3B3E"/>
<path d="M157.133 48.086V46.6577H152.38V47.9399H155.679V48.224C155.679 50.2041 154.257 51.5432 152.161 51.5432C149.805 51.5432 148.343 49.7091 148.343 46.7551C148.343 43.8416 149.829 41.9751 152.153 41.9751C153.891 41.9751 155.069 42.811 155.573 44.3935H157.06C156.637 42.0725 154.753 40.6279 152.153 40.6279C148.944 40.6279 146.84 43.0544 146.84 46.7551C146.84 50.5044 148.911 52.8904 152.153 52.8904C155.151 52.8904 157.133 50.9751 157.133 48.086Z" fill="#2F3B3E"/>
<path d="M173.779 52.6144V40.9039H172.316V45.9679H165.882V40.9039H164.42V52.6144H165.882V47.2826H172.316V52.6144H173.779Z" fill="#2F3B3E"/>
<path d="M182.926 52.6144V40.9039H181.464V52.6144H182.926Z" fill="#2F3B3E"/>
<path d="M189.815 49.8795C189.815 51.673 191.197 52.8904 193.163 52.8904C195.283 52.8904 196.575 51.5838 196.575 49.352V40.9039H195.112V49.3439C195.112 50.7803 194.405 51.5432 193.154 51.5432C192.05 51.5432 191.302 50.8615 191.27 49.8795H189.815Z" fill="#2F3B3E"/>
<path d="M205.722 52.6144V48.5243L207.128 46.9742L211.36 52.6144H213.253L208.135 45.9598L212.822 40.9039H210.986L205.852 46.5928H205.722V40.9039H204.26V52.6144H205.722Z" fill="#2F3B3E"/>
<path d="M227.039 51.2997H221.385V40.9039H219.923V52.6144H227.039V51.2997Z" fill="#2F3B3E"/>
<path d="M245.627 52.6144V40.9039H243.929L239.916 50.6748H239.786L235.773 40.9039H234.075V52.6144H235.439V43.6712H235.537L239.233 52.6144H240.468L244.165 43.6712H244.262V52.6144H245.627Z" fill="#2F3B3E"/>
<path d="M254.758 52.6144V43.5333H254.888L261.249 52.6144H262.671V40.9039H261.225V50.0175H261.095L254.734 40.9039H253.312V52.6144H254.758Z" fill="#2F3B3E"/>
<path d="M275.279 40.6279C271.965 40.6279 269.901 42.9895 269.901 46.7551C269.901 50.5044 271.916 52.8904 275.279 52.8904C278.626 52.8904 280.657 50.4963 280.657 46.7551C280.657 42.9976 278.61 40.6279 275.279 40.6279ZM275.279 41.9751C277.676 41.9751 279.154 43.8254 279.154 46.7551C279.154 49.6604 277.684 51.5432 275.279 51.5432C272.842 51.5432 271.404 49.6604 271.404 46.7551C271.404 43.8254 272.891 41.9751 275.279 41.9751Z" fill="#2F3B3E"/>
<path d="M80.7679 64.9111V76.6217H82.2302V72.4423H85.1792C87.3808 72.4423 88.9487 70.8922 88.9487 68.701C88.9487 66.4693 87.4133 64.9111 85.1954 64.9111H80.7679ZM82.2302 66.2096H84.8136C86.5115 66.2096 87.4458 67.0942 87.4458 68.701C87.4458 70.2511 86.479 71.1438 84.8136 71.1438H82.2302V66.2096Z" fill="#2F3B3E"/>
<path d="M100.972 76.8976C101.728 76.8976 102.443 76.7759 103.068 76.5406L104.1 77.9445H105.741L104.254 75.8832C105.587 74.9256 106.334 73.0996 106.334 70.7705C106.334 66.9968 104.27 64.6352 100.972 64.6352C97.6576 64.6352 95.586 66.9887 95.586 70.7705C95.586 74.5685 97.6332 76.8976 100.972 76.8976ZM100.98 75.5505C98.5756 75.5505 97.0889 73.7245 97.0889 70.7705C97.0889 67.8246 98.5837 65.9824 100.972 65.9824C103.344 65.9824 104.831 67.8327 104.831 70.7705C104.831 72.5559 104.319 73.9517 103.401 74.6821L102.337 73.27H100.68L102.231 75.3719C101.825 75.4937 101.411 75.5505 100.98 75.5505Z" fill="#2F3B3E"/>
<path d="M115.035 71.9878H117.919L120.429 76.6217H122.143L119.43 71.7606C120.9 71.298 121.786 70.032 121.786 68.4008C121.786 66.2908 120.307 64.9111 118.049 64.9111H113.572V76.6217H115.035V71.9878ZM115.035 66.2096H117.854C119.365 66.2096 120.275 67.0455 120.275 68.4495C120.275 69.8859 119.422 70.6893 117.919 70.6893H115.035V66.2096Z" fill="#2F3B3E"/>
<path d="M128.577 73.5622C128.732 75.5829 130.446 76.8976 132.932 76.8976C135.613 76.8976 137.31 75.5261 137.31 73.3755C137.31 71.6551 136.336 70.7137 133.907 70.105L132.68 69.7804C131.063 69.3665 130.421 68.839 130.421 67.922C130.421 66.7371 131.453 65.958 133.013 65.958C134.475 65.958 135.466 66.6722 135.669 67.8733H137.14C137.018 65.9824 135.328 64.6352 133.062 64.6352C130.584 64.6352 128.918 65.9824 128.918 67.9706C128.918 69.6343 129.836 70.5919 131.957 71.1276L133.46 71.5171C135.076 71.9229 135.808 72.5559 135.808 73.5541C135.808 74.7146 134.646 75.5667 133.07 75.5667C131.404 75.5667 130.235 74.7876 130.056 73.5622H128.577Z" fill="#2F3B3E"/>
<path d="M148.952 76.6217V66.2258H152.73V64.9111H143.712V66.2258H147.49V76.6217H148.952Z" fill="#2F3B3E"/>
<path d="M161.13 64.9111H159.668V72.5964C159.668 75.096 161.414 76.8976 164.323 76.8976C167.231 76.8976 168.978 75.096 168.978 72.5964V64.9111H167.515V72.4991C167.515 74.2682 166.354 75.5505 164.323 75.5505C162.292 75.5505 161.13 74.2682 161.13 72.4991V64.9111Z" fill="#2F3B3E"/>
<path d="M181.48 76.6217L185.802 64.9111H184.267L180.822 74.7308H180.692L177.248 64.9111H175.712L180.034 76.6217H181.48Z" fill="#2F3B3E"/>
<path d="M199.06 67.3782H199.158L201.855 76.6217H203.236L206.429 64.9111H204.902L202.57 74.4305H202.473L199.849 64.9111H198.37L195.746 74.4305H195.648L193.317 64.9111H191.79L194.982 76.6217H196.363L199.06 67.3782Z" fill="#2F3B3E"/>
<path d="M212.587 76.6217H214.244L217.372 72.004H217.502L220.573 76.6217H222.327L218.355 70.7948L222.417 64.9111H220.751L217.616 69.5694H217.486L214.398 64.9111H212.636L216.6 70.7299L212.587 76.6217Z" fill="#2F3B3E"/>
<path d="M234.034 76.6217V71.582L238.193 64.9111H236.528L233.368 70.1131H233.238L230.078 64.9111H228.412L232.572 71.582V76.6217H234.034Z" fill="#2F3B3E"/>
<path d="M244.628 76.6217H253.296V75.307H246.553V75.1772L253.158 65.9499V64.9111H244.855V66.2258H251.265V66.3557L244.628 75.5829V76.6217Z" fill="#2F3B3E"/>
<path d="M72.7983 100.783C73.9682 100.783 74.9268 100.272 75.4955 99.3386H75.6255V100.629H76.9578V94.6398C76.9578 92.8219 75.7636 91.7263 73.627 91.7263C71.7585 91.7263 70.3774 92.6515 70.1905 94.0555H71.6041C71.7991 93.3657 72.5302 92.968 73.5782 92.968C74.8862 92.968 75.5605 93.5604 75.5605 94.6398V95.4351L73.0339 95.5893C70.9948 95.711 69.8412 96.6118 69.8412 98.1781C69.8412 99.7769 71.1004 100.783 72.7983 100.783ZM73.0583 99.5577C72.0428 99.5577 71.2873 99.0384 71.2873 98.1457C71.2873 97.2692 71.8722 96.8066 73.2045 96.7173L75.5605 96.5631V97.3666C75.5605 98.6164 74.4962 99.5577 73.0583 99.5577Z" fill="#2F3B3E"/>
<path d="M88.5912 100.783C90.8091 100.783 92.2633 98.9897 92.2633 96.2548C92.2633 93.5036 90.8172 91.7263 88.5912 91.7263C87.3889 91.7263 86.3247 92.3188 85.8454 93.2602H85.7154V88.4071H84.3181V100.629H85.6504V99.2331H85.7804C86.3328 100.207 87.3727 100.783 88.5912 100.783ZM88.2663 92.9842C89.8667 92.9842 90.8172 94.2097 90.8172 96.2548C90.8172 98.2998 89.8667 99.5253 88.2663 99.5253C86.674 99.5253 85.6829 98.2755 85.6829 96.2548C85.6829 94.234 86.674 92.9842 88.2663 92.9842Z" fill="#2F3B3E"/>
<path d="M106.399 94.5586C106.155 93.0005 104.855 91.7263 102.727 91.7263C100.273 91.7263 98.7137 93.4955 98.7137 96.2223C98.7137 99.0059 100.282 100.783 102.735 100.783C104.839 100.783 106.147 99.5983 106.399 97.9915H104.985C104.725 98.9815 103.905 99.5253 102.727 99.5253C101.167 99.5253 100.16 98.243 100.16 96.2223C100.16 94.2421 101.151 92.9842 102.727 92.9842C103.986 92.9842 104.758 93.6903 104.985 94.5586H106.399Z" fill="#2F3B3E"/>
<path d="M116.399 100.783C117.61 100.783 118.65 100.207 119.202 99.2331H119.332V100.629H120.665V88.4071H119.267V93.2602H119.145C118.65 92.3025 117.618 91.7263 116.399 91.7263C114.174 91.7263 112.719 93.5117 112.719 96.2548C112.719 99.0059 114.157 100.783 116.399 100.783ZM116.724 92.9842C118.309 92.9842 119.3 94.2502 119.3 96.2548C119.3 98.2755 118.317 99.5253 116.724 99.5253C115.124 99.5253 114.165 98.2998 114.165 96.2548C114.165 94.2178 115.132 92.9842 116.724 92.9842Z" fill="#2F3B3E"/>
<path d="M133.874 98.3648C133.508 99.1357 132.745 99.5496 131.616 99.5496C130.129 99.5496 129.162 98.454 129.089 96.7255V96.6605H135.385V96.1249C135.385 93.4062 133.947 91.7263 131.583 91.7263C129.178 91.7263 127.635 93.5117 127.635 96.2629C127.635 99.0302 129.154 100.783 131.583 100.783C133.5 100.783 134.865 99.858 135.271 98.3648H133.874ZM131.567 92.9599C132.956 92.9599 133.882 93.9824 133.915 95.5325H129.089C129.195 93.9824 130.17 92.9599 131.567 92.9599Z" fill="#2F3B3E"/>
<path d="M142.859 100.629H144.256V93.0492H146.263V91.8805H144.256V90.9473C144.256 89.9896 144.679 89.5027 145.686 89.5027C145.938 89.5027 146.174 89.5108 146.344 89.5433V88.4071C146.052 88.3503 145.743 88.326 145.402 88.326C143.737 88.326 142.859 89.1619 142.859 90.9067V91.8805H141.405V93.0492H142.859V100.629Z" fill="#2F3B3E"/>
<path d="M156.605 103.989C158.993 103.989 160.504 102.739 160.504 100.783V91.8805H159.172V93.2683H159.042C158.538 92.3269 157.458 91.7263 156.231 91.7263C153.981 91.7263 152.559 93.5036 152.559 96.1249C152.559 98.7462 153.965 100.499 156.231 100.499C157.433 100.499 158.425 99.9554 158.977 98.9897H159.107V100.71C159.107 102 158.173 102.771 156.605 102.771C155.346 102.771 154.566 102.309 154.411 101.595H152.933C153.144 103.039 154.493 103.989 156.605 103.989ZM156.54 99.2656C154.915 99.2656 154.005 98.032 154.005 96.1249C154.005 94.2178 154.915 92.9842 156.54 92.9842C158.156 92.9842 159.139 94.2178 159.139 96.1249C159.139 98.032 158.165 99.2656 156.54 99.2656Z" fill="#2F3B3E"/>
<path d="M167.913 100.629H169.311V95.4513C169.311 93.9743 170.172 92.9842 171.74 92.9842C173.064 92.9842 173.763 93.7552 173.763 95.3053V100.629H175.16V94.9644C175.16 92.9112 173.99 91.7263 172.138 91.7263C170.797 91.7263 169.879 92.2944 169.441 93.2602H169.311V88.4071H167.913V100.629Z" fill="#2F3B3E"/>
<path d="M183.138 90.1925C183.674 90.1925 184.112 89.7543 184.112 89.2187C184.112 88.6831 183.674 88.2448 183.138 88.2448C182.601 88.2448 182.163 88.6831 182.163 89.2187C182.163 89.7543 182.601 90.1925 183.138 90.1925ZM182.439 100.629H183.836V91.8805H182.439V100.629Z" fill="#2F3B3E"/>
<path d="M191.944 90.1925C192.48 90.1925 192.919 89.7543 192.919 89.2187C192.919 88.6831 192.48 88.2448 191.944 88.2448C191.408 88.2448 190.969 88.6831 190.969 89.2187C190.969 89.7543 191.408 90.1925 191.944 90.1925ZM192.626 91.8805H191.229V101.083C191.229 102.049 190.904 102.439 189.913 102.439H189.702V103.632H189.945C191.781 103.632 192.626 102.861 192.626 101.059V91.8805Z" fill="#2F3B3E"/>
<path d="M201.595 95.7029H201.465V88.4071H200.068V100.629H201.465V97.3098L202.302 96.5307L205.584 100.629H207.363L203.342 95.6299L207.111 91.8805H205.397L201.595 95.7029Z" fill="#2F3B3E"/>
<path d="M213.797 100.629H215.195V88.4071H213.797V100.629Z" fill="#2F3B3E"/>
<path d="M222.604 100.629H224.001V95.2079C224.001 93.9743 224.886 92.9842 226.032 92.9842C227.137 92.9842 227.86 93.6497 227.86 94.6885V100.629H229.257V95.005C229.257 93.8932 230.07 92.9842 231.288 92.9842C232.523 92.9842 233.132 93.6172 233.132 94.9076V100.629H234.53V94.583C234.53 92.7489 233.53 91.7263 231.743 91.7263C230.533 91.7263 229.533 92.335 229.062 93.2602H228.932C228.526 92.3512 227.697 91.7263 226.511 91.7263C225.341 91.7263 224.464 92.2863 224.066 93.2602H223.936V91.8805H222.604V100.629Z" fill="#2F3B3E"/>
<path d="M241.776 100.629H243.173V95.4513C243.173 93.9175 244.075 92.9842 245.473 92.9842C246.87 92.9842 247.536 93.7309 247.536 95.3053V100.629H248.933V94.9644C248.933 92.8869 247.837 91.7263 245.871 91.7263C244.53 91.7263 243.677 92.2944 243.238 93.2602H243.108V91.8805H241.776V100.629Z" fill="#2F3B3E"/>
<path d="M259.787 100.783C262.281 100.783 263.824 99.0627 263.824 96.2548C263.824 93.4387 262.281 91.7263 259.787 91.7263C257.293 91.7263 255.749 93.4387 255.749 96.2548C255.749 99.0627 257.293 100.783 259.787 100.783ZM259.787 99.5253C258.13 99.5253 257.195 98.3242 257.195 96.2548C257.195 94.1772 258.13 92.9842 259.787 92.9842C261.444 92.9842 262.378 94.1772 262.378 96.2548C262.378 98.3242 261.444 99.5253 259.787 99.5253Z" fill="#2F3B3E"/>
<path d="M99.1199 115.734C97.9256 115.734 96.8777 116.342 96.3171 117.349H96.1871V115.888H94.8548V127.558H96.2521V123.322H96.3821C96.8614 124.247 97.8688 124.79 99.1199 124.79C101.346 124.79 102.8 122.997 102.8 120.262C102.8 117.511 101.354 115.734 99.1199 115.734ZM98.7868 123.533C97.2107 123.533 96.2115 122.267 96.2115 120.262C96.2115 118.249 97.2107 116.992 98.7949 116.992C100.395 116.992 101.354 118.217 101.354 120.262C101.354 122.307 100.395 123.533 98.7868 123.533Z" fill="#2F3B3E"/>
<path d="M112.914 115.734C110.696 115.734 109.25 117.519 109.25 120.262C109.25 123.021 110.68 124.79 112.914 124.79C114.149 124.79 115.092 124.279 115.652 123.322H115.782V127.558H117.196V115.888H115.847V117.349H115.717C115.197 116.367 114.109 115.734 112.914 115.734ZM113.231 123.533C111.639 123.533 110.696 122.315 110.696 120.262C110.696 118.217 111.647 116.992 113.239 116.992C114.823 116.992 115.823 118.258 115.823 120.262C115.823 122.275 114.832 123.533 113.231 123.533Z" fill="#2F3B3E"/>
<path d="M124.523 124.636H125.921V119.215C125.921 117.982 126.887 117.089 128.22 117.089C128.496 117.089 129 117.138 129.113 117.17V115.774C128.935 115.75 128.642 115.734 128.415 115.734C127.253 115.734 126.246 116.334 125.986 117.186H125.856V115.888H124.523V124.636Z" fill="#2F3B3E"/>
<path d="M135.353 118.282C135.353 119.548 136.1 120.254 137.741 120.652L139.244 121.017C140.178 121.244 140.633 121.65 140.633 122.25C140.633 123.054 139.788 123.614 138.61 123.614C137.489 123.614 136.791 123.143 136.555 122.405H135.117C135.271 123.857 136.612 124.79 138.562 124.79C140.552 124.79 142.071 123.711 142.071 122.145C142.071 120.887 141.275 120.173 139.626 119.775L138.277 119.45C137.245 119.199 136.758 118.826 136.758 118.225C136.758 117.446 137.57 116.918 138.61 116.918C139.666 116.918 140.349 117.381 140.536 118.079H141.917C141.73 116.643 140.454 115.734 138.618 115.734C136.758 115.734 135.353 116.829 135.353 118.282Z" fill="#2F3B3E"/>
<path d="M149.545 113.624V115.888H148.132V117.056H149.545V122.364C149.545 124.036 150.268 124.701 152.072 124.701C152.348 124.701 152.616 124.669 152.892 124.62V123.443C152.632 123.468 152.494 123.476 152.242 123.476C151.332 123.476 150.942 123.038 150.942 122.007V117.056H152.892V115.888H150.942V113.624H149.545Z" fill="#2F3B3E"/>
<path d="M166.784 115.888H165.387V121.065C165.387 122.599 164.542 123.516 162.998 123.516C161.601 123.516 161.016 122.786 161.016 121.212V115.888H159.619V121.552C159.619 123.622 160.642 124.79 162.608 124.79C163.949 124.79 164.883 124.239 165.322 123.265H165.452V124.636H166.784V115.888Z" fill="#2F3B3E"/>
<path d="M181.261 115.888H179.766L177.37 123.094H177.24L174.843 115.888H173.348L176.59 124.636H178.019L181.261 115.888Z" fill="#2F3B3E"/>
<path d="M198.841 115.888H197.436L195.713 122.883H195.583L193.626 115.888H192.285L190.327 122.883H190.197L188.475 115.888H187.061L189.515 124.636H190.928L192.878 117.868H193.008L194.966 124.636H196.388L198.841 115.888Z" fill="#2F3B3E"/>
<path d="M208.5 121.358L210.572 124.661H212.229L209.215 120.23L212.189 115.912H210.605L208.549 119.166H208.419L206.34 115.912H204.674L207.704 120.286L204.707 124.661H206.291L208.371 121.358H208.5Z" fill="#2F3B3E"/>
<path d="M219.573 127.801C221.125 127.801 221.824 127.201 222.571 125.172L225.991 115.888H224.505L222.108 123.086H221.978L219.573 115.888H218.062L221.304 124.644L221.141 125.164C220.776 126.219 220.337 126.6 219.533 126.6C219.338 126.6 219.118 126.592 218.948 126.56V127.753C219.143 127.785 219.387 127.801 219.573 127.801Z" fill="#2F3B3E"/>
<path d="M232.352 124.636H239.095V123.468H234.042V123.338L239.071 116.935V115.888H232.36V117.056H237.405V117.186L232.352 123.614V124.636Z" fill="#2F3B3E"/>
<path d="M101.663 148.644H103.125V136.933H101.671L98.5512 139.173V140.715L101.533 138.556H101.663V148.644Z" fill="#2F3B3E"/>
<path d="M111.249 140.236H112.662C112.662 138.848 113.597 137.931 115.002 137.931C116.383 137.931 117.22 138.856 117.22 140.098C117.22 141.129 116.781 141.737 115.286 143.352L111.322 147.637V148.644H118.91V147.329H113.353V147.199L116.018 144.448C118.13 142.265 118.715 141.291 118.715 139.944C118.715 138.045 117.147 136.657 115.1 136.657C112.857 136.657 111.249 138.15 111.249 140.236Z" fill="#2F3B3E"/>
<path d="M128.537 143.247H129.991C131.64 143.247 132.655 144.091 132.655 145.446C132.655 146.761 131.559 147.645 130.015 147.645C128.504 147.645 127.448 146.858 127.318 145.625H125.904C126.01 147.613 127.651 148.919 130.031 148.919C132.363 148.919 134.158 147.451 134.158 145.487C134.158 143.855 133.151 142.825 131.632 142.581V142.451C132.834 142.102 133.712 141.169 133.72 139.757C133.728 138.118 132.395 136.657 130.08 136.657C127.708 136.657 126.254 138.061 126.108 139.968H127.529C127.651 138.653 128.569 137.931 129.983 137.931C131.396 137.931 132.233 138.824 132.233 139.919C132.233 141.137 131.274 141.997 129.926 141.997H128.537V143.247Z" fill="#2F3B3E"/>
<path d="M146.556 148.644H147.985V146.217H149.651V144.91H147.985V136.933H145.865C144.224 139.376 142.429 142.232 140.844 144.886V146.217H146.556V148.644ZM142.339 144.821C143.615 142.671 145.15 140.252 146.466 138.288H146.564V144.919H142.339V144.821Z" fill="#2F3B3E"/>
<path d="M160.504 148.919C162.901 148.919 164.534 147.264 164.534 144.854C164.534 142.533 162.909 140.991 160.943 140.991C159.773 140.991 158.904 141.348 158.335 142.054H158.205L158.571 138.24H163.933V136.933H157.425L156.751 143.628H158.124C158.587 142.76 159.464 142.249 160.577 142.249C162.056 142.249 163.071 143.312 163.071 144.894C163.071 146.534 162.056 147.637 160.521 147.637C159.139 147.637 158.132 146.801 158.002 145.552H156.564C156.694 147.556 158.286 148.919 160.504 148.919Z" fill="#2F3B3E"/>
<path d="M175.745 148.911C178.149 148.911 179.856 147.231 179.856 144.878C179.856 142.606 178.239 140.958 176.005 140.958C174.607 140.958 173.462 141.624 172.885 142.76H172.755C172.804 139.579 173.941 137.955 175.891 137.955C177.077 137.955 177.938 138.564 178.182 139.652H179.685C179.384 137.834 177.979 136.657 175.842 136.657C173.072 136.657 171.333 138.962 171.333 142.987C171.333 146.931 173.194 148.911 175.745 148.911ZM175.729 147.629C174.226 147.629 173.08 146.444 173.08 144.878C173.08 143.328 174.193 142.224 175.745 142.224C177.296 142.224 178.377 143.328 178.377 144.927C178.377 146.46 177.231 147.629 175.729 147.629Z" fill="#2F3B3E"/>
<path d="M187.395 148.644H188.93L194.145 138.288V136.933H186.387V138.24H192.659V138.353L187.395 148.644Z" fill="#2F3B3E"/>
<path d="M205.097 148.919C207.582 148.919 209.321 147.515 209.321 145.511C209.321 143.985 208.354 142.8 206.884 142.524V142.395C208.094 142.062 208.842 141.064 208.842 139.781C208.842 137.955 207.29 136.657 205.097 136.657C202.903 136.657 201.351 137.955 201.351 139.781C201.351 141.056 202.115 142.07 203.309 142.395V142.524C201.839 142.8 200.872 143.985 200.872 145.511C200.872 147.515 202.611 148.919 205.097 148.919ZM205.097 141.908C203.715 141.908 202.789 141.112 202.789 139.919C202.789 138.71 203.707 137.907 205.097 137.907C206.486 137.907 207.404 138.71 207.404 139.919C207.404 141.112 206.478 141.908 205.097 141.908ZM205.097 147.67C203.472 147.67 202.351 146.745 202.351 145.405C202.351 144.066 203.472 143.141 205.097 143.141C206.721 143.141 207.842 144.066 207.842 145.405C207.842 146.745 206.721 147.67 205.097 147.67Z" fill="#2F3B3E"/>
<path d="M220.158 148.911C223.026 148.911 224.667 146.607 224.667 142.581C224.667 138.597 222.782 136.657 220.256 136.657C217.851 136.657 216.145 138.337 216.145 140.69C216.145 142.963 217.762 144.61 219.996 144.61C221.393 144.61 222.539 143.945 223.115 142.809H223.245C223.164 145.925 222.084 147.613 220.175 147.613C219.021 147.613 218.127 146.972 217.819 145.917H216.316C216.681 147.759 218.168 148.911 220.158 148.911ZM220.256 143.344C218.704 143.344 217.624 142.24 217.624 140.642C217.624 139.108 218.769 137.939 220.272 137.939C221.775 137.939 222.92 139.124 222.92 140.69C222.92 142.24 221.807 143.344 220.256 143.344Z" fill="#2F3B3E"/>
<path d="M235.659 148.919C238.291 148.919 239.802 146.696 239.802 142.809C239.802 138.929 238.267 136.657 235.659 136.657C233.035 136.657 231.499 138.921 231.499 142.784C231.499 146.68 233.019 148.919 235.659 148.919ZM235.659 147.645C233.928 147.645 232.97 145.917 232.97 142.784C232.97 139.692 233.945 137.939 235.659 137.939C237.373 137.939 238.332 139.676 238.332 142.784C238.332 145.925 237.389 147.645 235.659 147.645Z" fill="#2F3B3E"/>
</svg>
